<?xml version="1.0" encoding="utf-8"?>
<!-- Generator: Adobe Illustrator 27.5.0, SVG Export Plug-In . SVG Version: 6.00 Build 0)  -->
<svg version="1.1" xmlns="http://www.w3.org/2000/svg" xmlns:xlink="http://www.w3.org/1999/xlink" x="0px" y="0px"
	 viewBox="0 0 500 500" style="enable-background:new 0 0 500 500;" xml:space="preserve">
<g id="Floor">
	<path id="XMLID_2545_" style="fill:#F5F5F5;" d="M107.582,426.557c81.257,39.877,213,39.878,294.255,0.001
		c81.257-39.878,81.257-104.531,0-144.408c-81.257-39.877-213-39.877-294.256-0.001C26.325,322.026,26.325,386.68,107.582,426.557z"
		/>
</g>
<g id="Shadow">
	<path id="XMLID_2496_" style="fill:#E6E6E6;" d="M418.468,399.041c-12.891,6.145-33.79,6.145-46.681,0
		c-12.891-6.143-12.891-16.105,0-22.249c12.891-6.143,33.79-6.143,46.681,0C431.359,382.937,431.359,392.898,418.468,399.041z"/>
</g>
<g id="Device_1_">
	<g id="Device">
		<g id="XMLID_2408_">
			<path id="XMLID_2415_" style="fill:#263238;" d="M253.486,247.276l-37.502,21.652c-1.391,0.803-2.742,2.738-3.016,4.321
				l-9.32,53.809c-0.274,1.583,0.632,3.518,2.023,4.321l24.181,13.961c1.391,0.803,3.647,0.803,5.039,0l51.682-29.839
				c1.391-0.803,2.519-2.676,2.519-4.184c0-1.507-1.128-3.38-2.519-4.184l-18.595-10.736c-1.391-0.803-2.651-2.75-2.814-4.349
				l-4.137-40.605c-0.163-1.598-1.353-3.505-2.658-4.259C257.064,246.432,254.878,246.473,253.486,247.276z"/>
			<path id="XMLID_2411_" style="fill:#455A64;" d="M232.372,335.879l0.001,10.063c0.912,0,1.824-0.201,2.519-0.602l51.682-29.839
				c1.391-0.803,2.519-2.676,2.519-4.184c0-0.882-0.393-1.884-0.991-2.729h-8.462L232.372,335.879z"/>
			<path id="XMLID_2410_" style="fill:#263238;" d="M258.213,250.005l-37.502,21.652c-1.391,0.803-2.742,2.738-3.016,4.321
				l-8.461,48.847c-0.274,1.583,0.632,3.518,2.023,4.321l18.596,10.736c1.391,0.803,3.647,0.803,5.039,0l51.682-29.839
				c1.391-0.803,1.391-2.106,0-2.909l-18.595-10.736c-1.391-0.803-2.651-2.75-2.814-4.349l-4.137-40.605
				C260.864,249.846,259.604,249.202,258.213,250.005z"/>
			<path id="XMLID_2409_" style="fill:#37474F;" d="M286.574,307.134l-18.595-10.736c-0.686-0.396-1.338-1.071-1.845-1.844
				l-56.543,32.645c0.364,0.814,0.948,1.532,1.666,1.947l18.595,10.736c1.392,0.803,3.648,0.803,5.039,0l51.682-29.839
				C287.965,309.239,287.965,307.937,286.574,307.134z"/>
		</g>
		<g id="XMLID_2402_">
			<path id="XMLID_2407_" style="fill:#455A64;" d="M134.311,354.296l-2.401-1.386c-1.948-1.125-3.527-3.86-3.527-6.109
				l-0.001-161.052c0-2.249,1.581-4.981,3.532-6.1L328.671,66.687c1.951-1.12,5.111-1.116,7.059,0.008l1.831,1.057
				c1.948,1.125,3.527,3.86,3.527,6.109v161.051c0,2.249-1.579,4.984-3.527,6.109L141.366,354.296
				C139.418,355.421,136.26,355.421,134.311,354.296z"/>
			<path id="XMLID_2406_" style="fill:#263238;" d="M142.563,189.863l-13.145-7.589c-0.64,1.104-1.035,2.35-1.035,3.475
				l0.001,161.052c0,2.249,1.579,4.984,3.527,6.109l2.401,1.386c1.948,1.125,5.106,1.125,7.054,0l1.198-0.692L142.563,189.863z"/>
			<path id="XMLID_2405_" style="fill:#37474F;" d="M137.839,352.26V191.208c0-2.249,1.579-4.985,3.527-6.109L337.56,71.825
				c1.948-1.125,3.527-0.213,3.527,2.036v161.051c0,2.249-1.579,4.984-3.527,6.109L141.366,354.296
				C139.418,355.421,137.839,354.509,137.839,352.26z"/>
			<path id="XMLID_2404_" style="fill:#E0E0E0;" d="M229.966,292.23l18.595-10.736c1.391-0.803,2.519-0.233,2.519,1.274
				s-1.128,3.38-2.519,4.184l-18.595,10.736c-1.391,0.803-2.519,0.233-2.519-1.275C227.446,294.906,228.574,293.033,229.966,292.23z
				"/>
			<path id="XMLID_2403_" style="fill:#FFFFFF;" d="M146.876,190.024L331.651,83.043c1.112-0.644,2.014-0.124,2.014,1.161v140.365
				c0,1.285-0.902,2.848-2.016,3.491L146.877,334.738c-1.113,0.643-2.016,0.122-2.016-1.164V193.517
				C144.862,192.232,145.763,190.668,146.876,190.024z"/>
		</g>
	</g>
</g>
<g id="Window">
	<g id="Tab_2_">
		<g id="XMLID_2375_">
			<path style="fill:#E0E0E0;" d="M160.198,193.53L354.111,81.563c3.077-1.777,5.595-0.323,5.595,3.23v126.516
				c0,1.65-1.169,3.675-2.598,4.5L159.196,330.083c-1.429,0.825-2.598,0.15-2.598-1.5V199.765
				C156.598,197.479,158.218,194.673,160.198,193.53z"/>
		</g>
		<path id="XMLID_726_" style="fill:#27DEBF;" d="M359.706,87.712v-2.919c0-3.553-2.518-5.007-5.595-3.23L160.198,193.53
			c-1.98,1.143-3.6,3.949-3.6,6.235v5.224L359.706,87.712z"/>
		<path id="XMLID_725_" style="fill:#FFFFFF;" d="M336.242,94.366c-1.064,0.614-1.927,2.109-1.927,3.337
			c0,1.229,0.863,1.727,1.927,1.113c1.064-0.615,1.927-2.109,1.927-3.337C338.169,94.249,337.306,93.752,336.242,94.366z"/>
		<path id="XMLID_82_" style="fill:#FFFFFF;" d="M343.889,89.951c-1.064,0.614-1.927,2.109-1.927,3.337
			c0,1.229,0.863,1.727,1.927,1.113c1.064-0.614,1.927-2.109,1.927-3.338C345.816,89.835,344.953,89.337,343.889,89.951z"/>
		<path id="XMLID_722_" style="fill:#FFFFFF;" d="M351.536,85.537c-1.064,0.615-1.927,2.109-1.927,3.338
			c0,1.229,0.863,1.727,1.927,1.113c1.064-0.615,1.927-2.109,1.927-3.338S352.6,84.922,351.536,85.537z"/>
	</g>
</g>
<g id="Charts">
	<g id="Graphics">
		<g id="XMLID_84_">
			<g id="XMLID_727_">
				<path id="XMLID_861_" style="fill:#EBEBEB;" d="M347.46,109.942c-0.16-0.53-0.66-0.7-1.25-0.36l-123.32,71.21
					c-0.36,0.21-0.69,0.56-0.92,0.97l-4.06-2.35c0.23-0.41,0.56-0.76,0.92-0.97l123.32-71.2c0.72-0.42,1.88-0.42,2.6,0l1.46,0.84
					C346.82,108.432,347.33,109.212,347.46,109.942z"/>
				<path id="XMLID_864_" style="fill:#FAFAFA;" d="M347.511,110.332v53.29c0,0.83-0.58,1.84-1.3,2.25l-123.32,71.2
					c-0.06,0.03-0.12,0.06-0.18,0.09c-0.08,0.03-0.16,0.06-0.24,0.07c-0.01,0-0.03,0.01-0.04,0.01c-0.49,0.07-0.84-0.28-0.84-0.92
					v-53.28c0-0.42,0.15-0.88,0.38-1.28c0.23-0.41,0.56-0.76,0.92-0.97l123.32-71.21c0.59-0.34,1.09-0.17,1.25,0.36
					c0.01,0.03,0.02,0.06,0.02,0.1C347.5,110.142,347.511,110.232,347.511,110.332z"/>
				<path id="XMLID_862_" style="fill:#E0E0E0;" d="M222.43,237.242c-0.38,0.12-0.82,0.16-1.23,0.11c-0.33-0.03-0.65-0.13-0.91-0.28
					l-1.46-0.84c-0.72-0.42-1.3-1.43-1.3-2.25v-53.29c0-0.41,0.14-0.87,0.38-1.28l4.06,2.35c-0.23,0.4-0.38,0.86-0.38,1.28v53.28
					C221.591,236.962,221.94,237.312,222.43,237.242z"/>
			</g>
			<path id="XMLID_2294_" style="fill:#27DEBF;" d="M343.676,138.878c-0.246-0.125-0.547-0.027-0.672,0.22l-4.369,8.63
				c-0.125-0.17-0.27-0.321-0.453-0.427c-0.544-0.315-1.232-0.266-1.938,0.142c-1.115,0.644-2.018,2.044-2.232,3.371l-8.383-1.368
				c-0.09-0.597-0.361-1.061-0.803-1.316c-0.546-0.314-1.231-0.264-1.936,0.142c-0.479,0.277-0.92,0.694-1.283,1.184l-10.63-9.694
				c0.296-0.615,0.477-1.272,0.477-1.888c0-0.813-0.3-1.434-0.845-1.749c-0.546-0.314-1.232-0.264-1.936,0.143
				c-1.279,0.738-2.281,2.474-2.281,3.951c0,0.801,0.294,1.413,0.825,1.732l-7.544,22.732c-0.474-0.128-1.016-0.039-1.573,0.283
				c-0.73,0.422-1.362,1.171-1.777,2.009l-9.085-6.541c0.002-0.044,0.011-0.088,0.011-0.131c0-0.813-0.3-1.433-0.845-1.748
				c-0.546-0.314-1.232-0.264-1.936,0.142c-1.279,0.738-2.281,2.474-2.281,3.951c0,0.515,0.133,0.94,0.359,1.272l-7.356,21.535
				c-0.333,0.022-0.685,0.134-1.043,0.34c-1.193,0.689-2.134,2.244-2.257,3.648l-11.333,6.546c-0.134-0.42-0.369-0.756-0.717-0.957
				c-0.546-0.314-1.233-0.265-1.936,0.143c-0.963,0.556-1.769,1.678-2.109,2.829l-7.352-2.977c0.033-0.2,0.052-0.398,0.052-0.592
				c0-0.813-0.3-1.433-0.845-1.748c-0.545-0.314-1.231-0.264-1.936,0.142c-1.279,0.739-2.281,2.475-2.281,3.952
				c0,0.323,0.06,0.605,0.151,0.86l-8.393,16.047c-0.495-0.168-1.069-0.094-1.663,0.248c-1.193,0.689-2.134,2.243-2.257,3.648
				l-5.868,3.387c-0.239,0.138-0.321,0.444-0.183,0.683c0.092,0.16,0.261,0.25,0.433,0.25c0.085,0,0.171-0.021,0.25-0.067
				l5.472-3.159c0.134,0.42,0.369,0.756,0.716,0.956c0.236,0.136,0.499,0.204,0.778,0.204c0.365,0,0.759-0.116,1.158-0.346
				c1.279-0.739,2.281-2.474,2.281-3.951c0-0.487-0.119-0.893-0.322-1.217l8.271-15.813c0.007,0.005,0.012,0.012,0.02,0.016
				c0.236,0.136,0.499,0.204,0.778,0.204c0.365,0,0.759-0.116,1.158-0.346c0.841-0.485,1.555-1.403,1.951-2.394l7.466,3.023
				c-0.001,0.036-0.009,0.074-0.009,0.11c0,0.813,0.3,1.433,0.845,1.747c0.236,0.137,0.499,0.205,0.779,0.205
				c0.365,0,0.76-0.116,1.158-0.346c1.193-0.689,2.134-2.244,2.257-3.648l11.334-6.546c0.134,0.42,0.369,0.756,0.716,0.956
				c0.236,0.136,0.499,0.204,0.779,0.204c0.365,0,0.759-0.116,1.157-0.346c1.279-0.739,2.282-2.475,2.282-3.951
				c0-0.77-0.277-1.359-0.77-1.687l7.232-21.17c0.134,0.037,0.274,0.057,0.419,0.057c0.365,0,0.759-0.116,1.158-0.346
				c0.935-0.54,1.718-1.614,2.074-2.73l8.917,6.42c-0.085,0.328-0.139,0.656-0.139,0.973c0,0.813,0.3,1.434,0.845,1.748
				c0.236,0.136,0.499,0.204,0.778,0.204c0.365,0,0.759-0.116,1.158-0.346c1.279-0.738,2.281-2.474,2.281-3.951
				c0-0.514-0.133-0.94-0.359-1.271l7.686-23.158c0.311-0.033,0.634-0.126,0.965-0.317c0.479-0.277,0.92-0.694,1.283-1.184
				l10.63,9.694c-0.296,0.615-0.477,1.272-0.477,1.888c0,0.813,0.3,1.434,0.845,1.749c0.236,0.136,0.499,0.204,0.778,0.204
				c0.365,0,0.759-0.116,1.158-0.346c1.115-0.643,2.018-2.044,2.232-3.371l8.383,1.368c0.09,0.597,0.361,1.061,0.803,1.316
				c0.236,0.136,0.499,0.204,0.779,0.204c0.365,0,0.759-0.116,1.157-0.346c1.239-0.715,2.21-2.363,2.271-3.808l4.881-9.641
				C344.021,139.304,343.923,139.003,343.676,138.878z M233.525,218.629c-0.375,0.217-0.717,0.269-0.937,0.142
				c-0.219-0.126-0.345-0.448-0.345-0.882c0-1.115,0.815-2.528,1.781-3.085c0.241-0.139,0.468-0.21,0.656-0.21
				c0.106,0,0.201,0.022,0.28,0.068c0.219,0.126,0.345,0.448,0.345,0.882C235.307,216.659,234.491,218.071,233.525,218.629z
				 M245.712,197.521c-0.375,0.216-0.716,0.27-0.937,0.143c-0.219-0.126-0.345-0.448-0.345-0.882c0-1.115,0.816-2.528,1.781-3.086
				c0.24-0.139,0.467-0.21,0.656-0.21c0.107,0,0.201,0.022,0.28,0.068c0.219,0.126,0.345,0.448,0.345,0.882
				C247.493,195.552,246.678,196.964,245.712,197.521z M257.902,199.867c-0.375,0.218-0.717,0.268-0.938,0.142
				c-0.219-0.126-0.345-0.448-0.345-0.882c0-1.115,0.816-2.527,1.782-3.085c0.24-0.139,0.467-0.21,0.656-0.21
				c0.106,0,0.201,0.022,0.279,0.068c0.22,0.127,0.346,0.448,0.346,0.882C259.684,197.896,258.868,199.309,257.902,199.867z
				 M274.145,190.486c-0.374,0.218-0.716,0.269-0.936,0.142c-0.219-0.126-0.345-0.448-0.345-0.882c0-1.115,0.815-2.527,1.781-3.085
				c0.241-0.139,0.468-0.21,0.657-0.21c0.106,0,0.201,0.022,0.279,0.068c0.22,0.127,0.346,0.448,0.346,0.882
				C275.928,188.516,275.111,189.929,274.145,190.486z M284.467,163.388c-0.375,0.217-0.717,0.269-0.937,0.142
				c-0.032-0.018-0.057-0.049-0.084-0.075c-0.004-0.004-0.008-0.007-0.012-0.011c-0.156-0.158-0.248-0.433-0.248-0.796
				c0-1.115,0.815-2.528,1.781-3.085c0.24-0.139,0.467-0.21,0.656-0.21c0.107,0,0.201,0.023,0.28,0.068
				c0.219,0.126,0.345,0.448,0.345,0.882C286.248,161.419,285.432,162.831,284.467,163.388z M298.099,169.657
				c-0.375,0.218-0.717,0.268-0.936,0.142c-0.219-0.127-0.345-0.448-0.345-0.882c0-1.115,0.815-2.528,1.781-3.085
				c0.24-0.139,0.467-0.21,0.656-0.21c0.107,0,0.201,0.023,0.28,0.068c0.036,0.021,0.065,0.054,0.096,0.085c0,0,0,0,0,0.001
				c0.157,0.157,0.249,0.434,0.249,0.796C299.881,167.687,299.065,169.1,298.099,169.657z M308.673,140.959
				c-0.375,0.218-0.717,0.268-0.936,0.142c-0.219-0.127-0.345-0.448-0.345-0.882c0-1.115,0.815-2.528,1.781-3.085
				c0.241-0.139,0.468-0.21,0.656-0.21c0.106,0,0.201,0.022,0.28,0.068c0.219,0.126,0.345,0.448,0.345,0.882
				C310.454,138.989,309.638,140.401,308.673,140.959z M322.891,152.962c-0.378,0.218-0.717,0.268-0.936,0.143
				c-0.219-0.126-0.345-0.448-0.345-0.882c0-1.115,0.816-2.527,1.781-3.085c0.24-0.139,0.467-0.21,0.656-0.21
				c0.107,0,0.201,0.022,0.28,0.068c0.219,0.126,0.345,0.448,0.345,0.882C324.672,150.993,323.856,152.405,322.891,152.962z
				 M336.245,152.133c-0.375,0.218-0.716,0.269-0.936,0.142c-0.219-0.126-0.345-0.448-0.345-0.882c0-1.115,0.815-2.527,1.781-3.085
				c0.24-0.139,0.468-0.21,0.657-0.21c0.107,0,0.201,0.022,0.28,0.068c0.219,0.126,0.345,0.448,0.345,0.882
				C338.027,150.163,337.211,151.576,336.245,152.133z"/>
		</g>
		<g id="XMLID_738_">
			<g id="XMLID_827_">
				<path id="XMLID_859_" style="fill:#EBEBEB;" d="M274.35,217.822c-0.16-0.53-0.67-0.7-1.25-0.36l-50.21,28.99
					c-0.38,0.22-0.72,0.6-0.95,1.03l-4.05-2.37c0.24-0.42,0.57-0.79,0.94-1l50.2-28.99c0.72-0.42,1.89-0.42,2.6,0l1.47,0.84
					C273.701,216.312,274.21,217.092,274.35,217.822z"/>
				<path id="XMLID_860_" style="fill:#FAFAFA;" d="M274.4,218.212l-0.01,39.22c0,0.83-0.58,1.83-1.29,2.25l-47.45,27.39l-2.76,1.6
					c-0.06,0.04-0.13,0.07-0.2,0.1c-0.01,0-0.02,0.01-0.03,0.01c-0.62,0.22-1.07-0.13-1.07-0.86v-39.22c0-0.39,0.13-0.83,0.35-1.22
					c0.23-0.43,0.57-0.81,0.95-1.03l50.21-28.99c0.58-0.34,1.09-0.17,1.25,0.36c0.01,0.03,0.01,0.06,0.02,0.1
					C274.391,218.022,274.4,218.112,274.4,218.212z"/>
				<path id="XMLID_866_" style="fill:#E0E0E0;" d="M222.661,288.782c-0.05,0.02-0.1,0.04-0.16,0.06c-0.07,0.03-0.15,0.05-0.22,0.06
					c-0.11,0.03-0.22,0.05-0.34,0.06c-0.11,0.01-0.23,0.02-0.34,0.02c-0.24,0-0.47-0.03-0.7-0.08c-0.22-0.05-0.43-0.13-0.61-0.23
					l-1.46-0.85c-0.72-0.41-1.3-1.42-1.3-2.25v-39.21c0-0.41,0.14-0.85,0.36-1.25l4.05,2.37c-0.22,0.39-0.35,0.83-0.35,1.22v39.22
					C221.591,288.652,222.04,289.002,222.661,288.782z"/>
			</g>
			<g id="XMLID_807_">
				<path id="XMLID_808_" style="fill:#27DEBF;" d="M225.652,281.382l-0.001-26.143c0-0.552,0.388-1.224,0.866-1.5l2.331-1.345
					c0.478-0.276,0.866-0.052,0.866,0.5v26.143c0,0.552-0.388,1.224-0.866,1.5l-2.33,1.345
					C226.04,282.158,225.652,281.934,225.652,281.382z"/>
				<path id="XMLID_824_" style="fill:#27DEBF;" d="M233.776,276.69l-0.001-30.832c0-0.552,0.388-1.224,0.866-1.5l2.331-1.345
					c0.478-0.276,0.866-0.052,0.866,0.5v30.832c0,0.552-0.388,1.224-0.866,1.5l-2.33,1.345
					C234.164,277.466,233.776,277.242,233.776,276.69z"/>
				<path id="XMLID_825_" style="fill:#27DEBF;" d="M241.901,272l-0.001-14.797c0-0.552,0.388-1.224,0.866-1.5l2.331-1.345
					c0.478-0.276,0.866-0.052,0.866,0.5v14.797c0,0.552-0.388,1.224-0.866,1.5l-2.33,1.345
					C242.288,272.776,241.901,272.553,241.901,272z"/>
				<path id="XMLID_826_" style="fill:#27DEBF;" d="M250.025,267.32l-0.001-19.192c0-0.552,0.388-1.224,0.866-1.5l2.331-1.345
					c0.478-0.276,0.866-0.052,0.866,0.5v19.192c0,0.552-0.388,1.224-0.866,1.5l-2.33,1.345
					C250.413,268.096,250.025,267.872,250.025,267.32z"/>
				<path id="XMLID_863_" style="fill:#27DEBF;" d="M258.149,262.627l-0.001-6.53c0-0.552,0.388-1.224,0.866-1.5l2.331-1.345
					c0.478-0.276,0.866-0.052,0.866,0.5v6.53c0,0.552-0.388,1.224-0.866,1.5l-2.33,1.345
					C258.537,263.404,258.149,263.18,258.149,262.627z"/>
				<path id="XMLID_865_" style="fill:#27DEBF;" d="M266.274,257.938l-0.001-21.454c0-0.552,0.388-1.224,0.866-1.5l2.331-1.345
					c0.478-0.276,0.866-0.052,0.866,0.5v21.454c0,0.552-0.388,1.224-0.866,1.5l-2.33,1.345
					C266.661,258.714,266.274,258.49,266.274,257.938z"/>
			</g>
		</g>
		<g id="XMLID_2394_">
			<g id="XMLID_868_">
				<path id="XMLID_869_" style="fill:#EBEBEB;" d="M347.463,175.603c-0.16-0.53-0.67-0.7-1.25-0.36l-62.396,36.031
					c-0.38,0.22-0.72,0.6-0.95,1.03l-4.05-2.37c0.24-0.42,0.57-0.79,0.94-1l62.386-36.031c0.72-0.42,1.89-0.42,2.6,0l1.47,0.84
					C346.813,174.093,347.323,174.873,347.463,175.603z"/>
				<path id="XMLID_870_" style="fill:#FAFAFA;" d="M347.513,175.993l-0.01,39.22c0,0.83-0.58,1.83-1.29,2.25l-59.636,34.431
					l-2.76,1.6c-0.06,0.04-0.13,0.07-0.2,0.1c-0.01,0-0.02,0.01-0.03,0.01c-0.62,0.22-1.07-0.13-1.07-0.86v-39.22
					c0-0.39,0.13-0.83,0.35-1.22c0.23-0.43,0.57-0.81,0.95-1.03l62.396-36.031c0.58-0.34,1.09-0.17,1.25,0.36
					c0.01,0.03,0.01,0.06,0.02,0.1C347.503,175.803,347.513,175.893,347.513,175.993z"/>
				<path id="XMLID_871_" style="fill:#E0E0E0;" d="M283.587,253.604c-0.05,0.02-0.1,0.04-0.16,0.06c-0.07,0.03-0.15,0.05-0.22,0.06
					c-0.11,0.03-0.22,0.05-0.34,0.06c-0.11,0.01-0.23,0.02-0.34,0.02c-0.24,0-0.47-0.03-0.7-0.08c-0.22-0.05-0.43-0.13-0.61-0.23
					l-1.46-0.85c-0.72-0.41-1.3-1.42-1.3-2.25v-39.21c0-0.41,0.14-0.85,0.36-1.25l4.05,2.37c-0.22,0.39-0.35,0.83-0.35,1.22v39.22
					C282.517,253.474,282.967,253.824,283.587,253.604z"/>
			</g>
			<g id="XMLID_2393_">
				<path id="XMLID_2149_" style="fill:#27DEBF;" d="M305.61,207.902l-3.23,12.05c-0.22,0.8-0.85,2.02-1.38,2.66l-10.43,12.53
					c-1.33-0.91-2.19-2.32-2.52-4.1c-0.73-4.03,1.329-9.54,5.36-14.39c0.69-0.82,1.39-1.59,2.11-2.32
					C298.6,211.252,302.04,209.062,305.61,207.902z"/>
				<path id="XMLID_2148_" style="fill:#27DEBF;" d="M314.301,223.062c-4.63,7.79-13.43,13.67-20.03,13.26
					c-1.02-0.06-1.84-0.24-2.62-0.58l10.28-12.35c0.44-0.53,1.4-0.96,2.12-0.96h0.11L314.301,223.062z"/>
				<path id="XMLID_2146_" style="fill:#27DEBF;" d="M313.41,207.702l-9.58,11.51l3.14-11.71
					C309.57,206.862,311.65,206.912,313.41,207.702z"/>
				<path id="XMLID_2150_" style="fill:#27DEBF;" d="M314.951,221.882l-10.71-0.66c-0.23-0.02-0.34-0.08-0.35-0.08
					c0-0.02,0.02-0.09,0.09-0.2c0.03-0.05,0.06-0.09,0.09-0.12l10.43-12.53C317.94,210.632,318.121,215.872,314.951,221.882z"/>
			</g>
			<path id="XMLID_1912_" style="fill:#27DEBF;" d="M321.353,199.497c0,0.721,0.582,0.969,1.299,0.555l19.498-11.258
				c0.717-0.414,1.299-1.335,1.299-2.055c0-0.721-0.581-0.969-1.298-0.555l-19.499,11.259
				C321.935,197.857,321.353,198.777,321.353,199.497z"/>
			<g id="XMLID_2046_">
				<path id="XMLID_2076_" style="fill:#E0E0E0;" d="M321.353,207.339c0,0.721,0.582,0.969,1.299,0.555l19.498-11.258
					c0.717-0.414,1.299-1.335,1.299-2.055c0-0.721-0.581-0.969-1.298-0.555l-19.499,11.259
					C321.935,205.699,321.353,206.619,321.353,207.339z"/>
				<path id="XMLID_2097_" style="fill:#E0E0E0;" d="M321.353,212.176c0,0.721,0.582,0.969,1.299,0.555l19.498-11.258
					c0.717-0.414,1.299-1.334,1.299-2.055c0-0.721-0.581-0.97-1.298-0.555l-19.499,11.259
					C321.935,210.536,321.353,211.456,321.353,212.176z"/>
				<path id="XMLID_2117_" style="fill:#E0E0E0;" d="M321.353,217.014c0,0.721,0.582,0.969,1.299,0.555l19.498-11.258
					c0.717-0.414,1.299-1.334,1.299-2.055c0-0.721-0.581-0.969-1.298-0.555l-19.499,11.259
					C321.935,215.373,321.353,216.293,321.353,217.014z"/>
				<path id="XMLID_2118_" style="fill:#E0E0E0;" d="M321.353,221.851c0,0.721,0.582,0.969,1.299,0.555l19.498-11.258
					c0.717-0.414,1.299-1.335,1.299-2.055c0-0.721-0.581-0.969-1.298-0.555l-19.499,11.259
					C321.935,220.21,321.353,221.13,321.353,221.851z"/>
			</g>
		</g>
		<g id="XMLID_2392_">
			<g id="XMLID_2242_">
				<path id="XMLID_2277_" style="fill:#EBEBEB;" d="M205.29,213.138c-0.16-0.54-0.66-0.71-1.25-0.36l-33.96,19.6
					c-0.36,0.21-0.68,0.57-0.92,0.97l-4.06-2.34c0.24-0.41,0.56-0.76,0.92-0.97l33.96-19.61c0.72-0.41,1.88-0.41,2.6,0l1.46,0.85
					C204.65,211.628,205.161,212.408,205.29,213.138z"/>
				<path id="XMLID_2250_" style="fill:#FAFAFA;" d="M205.341,213.527v11.07c0,0.83-0.58,1.83-1.3,2.25l-33.96,19.6
					c-0.07,0.04-0.15,0.08-0.24,0.12c-0.02,0-0.04,0.01-0.061,0.02c-0.579,0.17-1-0.18-1-0.89v-11.07c0-0.42,0.14-0.87,0.38-1.28
					c0.24-0.4,0.56-0.76,0.92-0.97l33.96-19.6c0.59-0.35,1.09-0.18,1.25,0.36c0.01,0.03,0.02,0.06,0.02,0.1
					C205.33,213.337,205.341,213.438,205.341,213.527z"/>
				<path id="XMLID_2249_" style="fill:#E0E0E0;" d="M169.78,246.587c-0.15,0.06-0.32,0.1-0.49,0.13c-0.5,0.09-1.06,0.05-1.52-0.13
					c-0.1-0.04-0.2-0.09-0.29-0.14l-1.46-0.84c-0.72-0.41-1.3-1.42-1.3-2.25v-11.07c0-0.42,0.15-0.87,0.38-1.28l4.06,2.34
					c-0.24,0.41-0.38,0.86-0.38,1.28v11.07C168.78,246.408,169.201,246.758,169.78,246.587z"/>
			</g>
			<g id="XMLID_2279_">
				<path id="XMLID_2285_" style="fill:#EBEBEB;" d="M205.29,234.245c-0.16-0.54-0.66-0.71-1.25-0.36l-33.96,19.6
					c-0.36,0.21-0.68,0.57-0.92,0.97l-4.06-2.34c0.24-0.41,0.56-0.76,0.92-0.97l33.96-19.61c0.72-0.41,1.88-0.41,2.6,0l1.46,0.85
					C204.65,232.735,205.161,233.514,205.29,234.245z"/>
				<path id="XMLID_2283_" style="fill:#FAFAFA;" d="M205.341,234.635v11.07c0,0.83-0.58,1.83-1.3,2.25l-33.96,19.6
					c-0.07,0.04-0.15,0.08-0.24,0.12c-0.02,0-0.04,0.01-0.061,0.02c-0.579,0.17-1-0.18-1-0.89v-11.07c0-0.42,0.14-0.87,0.38-1.28
					c0.24-0.4,0.56-0.76,0.92-0.97l33.96-19.6c0.59-0.35,1.09-0.18,1.25,0.36c0.01,0.03,0.02,0.06,0.02,0.1
					C205.33,234.445,205.341,234.545,205.341,234.635z"/>
				<path id="XMLID_2282_" style="fill:#E0E0E0;" d="M169.78,267.694c-0.15,0.06-0.32,0.1-0.49,0.13c-0.5,0.09-1.06,0.05-1.52-0.13
					c-0.1-0.04-0.2-0.09-0.29-0.14l-1.46-0.84c-0.72-0.41-1.3-1.42-1.3-2.25v-11.07c0-0.42,0.15-0.87,0.38-1.28l4.06,2.34
					c-0.24,0.41-0.38,0.86-0.38,1.28v11.07C168.78,267.514,169.201,267.865,169.78,267.694z"/>
			</g>
			<g id="XMLID_2286_">
				<path id="XMLID_2289_" style="fill:#EBEBEB;" d="M205.29,255.352c-0.16-0.54-0.66-0.71-1.25-0.36l-33.96,19.6
					c-0.36,0.21-0.68,0.57-0.92,0.97l-4.06-2.34c0.24-0.41,0.56-0.76,0.92-0.97l33.96-19.61c0.72-0.41,1.88-0.41,2.6,0l1.46,0.85
					C204.65,253.842,205.161,254.622,205.29,255.352z"/>
				<path id="XMLID_2288_" style="fill:#FAFAFA;" d="M205.341,255.742v11.07c0,0.83-0.58,1.83-1.3,2.25l-33.96,19.6
					c-0.07,0.04-0.15,0.08-0.24,0.12c-0.02,0-0.04,0.01-0.061,0.02c-0.579,0.17-1-0.18-1-0.89v-11.07c0-0.42,0.14-0.87,0.38-1.28
					c0.24-0.4,0.56-0.76,0.92-0.97l33.96-19.6c0.59-0.35,1.09-0.18,1.25,0.36c0.01,0.03,0.02,0.06,0.02,0.1
					C205.33,255.551,205.341,255.652,205.341,255.742z"/>
				<path id="XMLID_2287_" style="fill:#E0E0E0;" d="M169.78,288.802c-0.15,0.06-0.32,0.1-0.49,0.13c-0.5,0.09-1.06,0.05-1.52-0.13
					c-0.1-0.04-0.2-0.09-0.29-0.14l-1.46-0.84c-0.72-0.41-1.3-1.42-1.3-2.25v-11.07c0-0.42,0.15-0.87,0.38-1.28l4.06,2.34
					c-0.24,0.41-0.38,0.86-0.38,1.28v11.07C168.78,288.621,169.201,288.972,169.78,288.802z"/>
			</g>
			<g id="XMLID_2290_">
				<path id="XMLID_2312_" style="fill:#EBEBEB;" d="M205.29,276.459c-0.16-0.54-0.66-0.71-1.25-0.36l-33.96,19.6
					c-0.36,0.21-0.68,0.57-0.92,0.97l-4.06-2.34c0.24-0.41,0.56-0.76,0.92-0.97l33.96-19.61c0.72-0.41,1.88-0.41,2.6,0l1.46,0.85
					C204.65,274.949,205.161,275.728,205.29,276.459z"/>
				<path id="XMLID_2311_" style="fill:#FAFAFA;" d="M205.341,276.849v11.07c0,0.83-0.58,1.83-1.3,2.25l-33.96,19.6
					c-0.07,0.04-0.15,0.08-0.24,0.12c-0.02,0-0.04,0.01-0.061,0.02c-0.579,0.17-1-0.18-1-0.89v-11.07c0-0.42,0.14-0.87,0.38-1.28
					c0.24-0.4,0.56-0.76,0.92-0.97l33.96-19.6c0.59-0.35,1.09-0.18,1.25,0.36c0.01,0.03,0.02,0.06,0.02,0.1
					C205.33,276.659,205.341,276.759,205.341,276.849z"/>
				<path id="XMLID_2291_" style="fill:#E0E0E0;" d="M169.78,309.909c-0.15,0.06-0.32,0.1-0.49,0.13c-0.5,0.09-1.06,0.05-1.52-0.13
					c-0.1-0.04-0.2-0.09-0.29-0.14l-1.46-0.84c-0.72-0.41-1.3-1.42-1.3-2.25v-11.07c0-0.42,0.15-0.87,0.38-1.28l4.06,2.34
					c-0.24,0.41-0.38,0.86-0.38,1.28v11.07C168.78,309.728,169.201,310.079,169.78,309.909z"/>
			</g>
			<g id="XMLID_2247_">
				<path id="XMLID_2275_" style="fill:#27DEBF;" d="M208.861,195.61c0.039,0.002,0.083,0.012,0.13,0.038l-3.65-2.094v-1.132
					c0-0.09-0.01-0.19-0.03-0.29c0-0.04-0.01-0.07-0.02-0.1c-0.13-0.73-0.64-1.51-1.25-1.86l-1.46-0.85c-0.72-0.41-1.88-0.41-2.6,0
					l-33.96,19.61c-0.36,0.21-0.68,0.56-0.92,0.97c-0.23,0.41-0.38,0.86-0.38,1.28v11.07c0,0.83,0.58,1.84,1.3,2.25l1.46,0.84
					c0.09,0.05,0.19,0.1,0.29,0.14c0.46,0.18,1.02,0.22,1.52,0.13c0.17-0.03,0.34-0.07,0.49-0.13c0.021-0.01,0.04-0.02,0.061-0.02
					c0.09-0.04,0.17-0.08,0.24-0.12l33.96-19.6c0.72-0.42,1.3-1.42,1.3-2.25v-3.193l3.705-4.278
					C209.185,195.861,209.072,195.613,208.861,195.61z"/>
				<path id="XMLID_2244_" style="opacity:0.1;" d="M169.78,225.482c-0.15,0.06-0.32,0.1-0.49,0.13c-0.5,0.09-1.06,0.05-1.52-0.13
					c-0.1-0.04-0.2-0.09-0.29-0.14l-1.46-0.84c-0.72-0.41-1.3-1.42-1.3-2.25v-11.07c0-0.42,0.15-0.87,0.38-1.28l4.06,2.34
					c-0.24,0.41-0.38,0.86-0.38,1.28v11.07C168.78,225.302,169.201,225.652,169.78,225.482z"/>
				<path id="XMLID_2280_" style="opacity:0.4;fill:#FFFFFF;" d="M205.29,192.032c-0.16-0.54-0.66-0.71-1.25-0.36l-33.96,19.6
					c-0.36,0.21-0.68,0.57-0.92,0.97l-4.06-2.34c0.24-0.41,0.56-0.76,0.92-0.97l33.96-19.61c0.72-0.41,1.88-0.41,2.6,0l1.46,0.85
					C204.65,190.522,205.161,191.302,205.29,192.032z"/>
				<path id="XMLID_2133_" style="opacity:0.4;fill:#FFFFFF;" d="M208.857,195.609h-3.517l0.001-2.056l3.65,2.094
					C208.942,195.622,208.897,195.611,208.857,195.609z"/>
			</g>
		</g>
	</g>
</g>
<g id="Plants">
	<g id="Plants_6_">
		<g id="XMLID_2138_">
			<g id="XMLID_2550_">
				<path id="XMLID_2551_" style="fill:#27DEBF;" d="M99.391,374.325l7.013-4.007c0,0,3.364-18.536,0.848-34.47
					c-3.537-22.402-18.79-30.13-24.33-27.903s-6.842,8.863,3.163,21.807C91.988,337.39,99.58,353.534,99.391,374.325z"/>
			</g>
			<g id="XMLID_2135_" style="opacity:0.1;">
				<path id="XMLID_2137_" d="M99.391,374.325l7.013-4.007c0,0,3.364-18.536,0.848-34.47c-3.537-22.402-18.79-30.13-24.33-27.903
					s-6.842,8.863,3.163,21.807C91.988,337.39,99.58,353.534,99.391,374.325z"/>
			</g>
			<g id="XMLID_2136_">
				<path id="XMLID_2614_" style="fill:#FFFFFF;" d="M101.933,365.428c-0.023,0-0.046-0.002-0.069-0.005
					c-0.273-0.038-0.465-0.29-0.427-0.564c2.898-20.974-5.536-43.952-15.013-53.213c-0.197-0.192-0.201-0.51-0.008-0.707
					c0.193-0.195,0.51-0.201,0.707-0.008c9.649,9.43,18.245,32.782,15.304,54.064C102.393,365.246,102.178,365.428,101.933,365.428z
					"/>
			</g>
		</g>
		<g id="XMLID_2132_">
			<g id="XMLID_2540_">
				<path id="XMLID_2547_" style="fill:#27DEBF;" d="M79.933,385.566c-1.108,0.636-3.392-0.755-4.267-1.342
					c-1.498-1.005-2.711-2.428-3.517-4.037c-0.938-1.873-1.174-3.88-0.881-5.952c0.152-1.075,0.453-2.122,0.753-3.165
					c0.294-1.024,0.589-2.048,0.883-3.072c0.29-1.01,0.584-2.056,0.45-3.099c-0.269-2.101-2.134-3.573-3.829-4.842
					c-1.875-1.404-3.827-3.257-3.817-5.787c0.008-1.952,1.019-3.764,2.228-5.296c1.21-1.532,2.645-2.885,3.738-4.502
					c0.787-1.164,1.401-2.531,1.273-3.93c-0.08-0.869-0.44-1.688-0.856-2.456c-0.893-1.647-2.072-3.155-2.688-4.925
					c-0.616-1.769-0.528-3.97,0.853-5.236c1.133-1.039,2.818-1.184,4.352-1.083c1.419,0.094,2.806,0.734,4.048,1.425
					c4.016,2.233,6.308,6.989,10.569,8.707c1.644,0.663,3.444,0.808,5.158,1.261c1.713,0.453,3.46,1.328,4.253,2.912
					c1.564,3.124-1.339,6.975-0.239,10.291c0.973,2.935,3.825,4.058,5.426,6.703c0.701,1.157,0.862,2.494,0.749,3.842
					c-0.191,2.281-0.525,3.955-1.62,6.492c-0.905,2.096-3.563,5.849-3.563,5.849C99.324,374.391,80.103,385.468,79.933,385.566z"/>
			</g>
			<g id="XMLID_2542_">
				<path id="XMLID_2613_" style="fill:#FFFFFF;" d="M91.317,379.5c-0.007,0-0.014,0-0.014,0c-0.283-0.012-0.497-0.245-0.486-0.521
					c0.826-19.852-8.527-41.767-15.329-48.135c-0.201-0.188-0.212-0.505-0.023-0.707c0.189-0.201,0.505-0.211,0.707-0.023
					c6.938,6.495,16.482,28.775,15.646,48.906C91.806,379.29,91.584,379.5,91.317,379.5z"/>
			</g>
			<g id="XMLID_2134_">
				<path id="XMLID_2612_" style="fill:#FFFFFF;" d="M88.343,356.047c-0.049,0-0.099-0.007-0.147-0.022
					c-6.378-1.972-14.327-2.319-14.406-2.322c-0.276-0.012-0.49-0.245-0.479-0.521c0.012-0.275,0.221-0.493,0.521-0.479
					c0.081,0.004,8.156,0.356,14.66,2.367c0.264,0.081,0.412,0.361,0.33,0.625C88.754,355.909,88.557,356.047,88.343,356.047z"/>
			</g>
		</g>
	</g>
</g>
<g id="Magnifying_Glass">
	<g id="Lens_2_">
		<path id="XMLID_2398_" style="fill:#27DEBF;" d="M163.314,334.199L163.314,334.199L163.314,334.199
			c0-0.993-0.656-1.985-1.967-2.742c-2.623-1.514-6.876-1.514-9.498,0c-1.311,0.757-1.967,1.75-1.967,2.742l0,0v0.001l-2.662,69.869
			h0.007c-0.094,1.454,0.809,2.926,2.733,4.036c3.666,2.117,9.61,2.117,13.276,0c1.923-1.11,2.827-2.582,2.733-4.036h0.017
			L163.314,334.199z"/>
		<path id="XMLID_2397_" style="opacity:0.15;" d="M151.848,331.457c-2.623,1.514-2.623,3.97,0,5.484
			c2.623,1.514,6.875,1.514,9.498,0c2.623-1.514,2.623-3.97,0-5.484C158.723,329.943,154.471,329.943,151.848,331.457z"/>
		<path id="XMLID_2416_" style="fill:#263238;" d="M159.469,311.915c-1.586-0.916-4.157-0.916-5.743,0
			c-0.793,0.458-1.189,1.058-1.189,1.658h-0.002v20.625h0.002c0,0.6,0.396,1.2,1.189,1.658c1.586,0.916,4.157,0.916,5.743,0
			c0.793-0.458,1.189-1.058,1.189-1.658v-20.625l0,0C160.658,312.973,160.262,312.373,159.469,311.915z"/>
		<g id="XMLID_2349_">
			<path id="XMLID_2360_" style="fill:#27DEBF;" d="M201.805,261.389c-0.01-0.41-0.03-0.81-0.06-1.21c-0.02-0.4-0.05-0.79-0.09-1.18
				c-0.02-0.26-0.05-0.52-0.08-0.78c-0.07-0.68-0.17-1.35-0.28-1.99c-0.05-0.29-0.1-0.59-0.16-0.88c-0.05-0.28-0.11-0.55-0.17-0.82
				c-0.17-0.74-0.35-1.46-0.56-2.15c-0.11-0.33-0.21-0.66-0.32-0.98c-0.02-0.05-0.04-0.1-0.05-0.15c-0.12-0.32-0.23-0.63-0.35-0.93
				c-0.14-0.35-0.28-0.7-0.44-1.03c-0.11-0.25-0.22-0.49-0.35-0.73c-0.07-0.18-0.16-0.35-0.26-0.52c-0.1-0.21-0.21-0.42-0.33-0.62
				c-0.03-0.05-0.05-0.1-0.08-0.14c-0.1-0.18-0.21-0.36-0.32-0.54c-0.07-0.12-0.15-0.23-0.22-0.34c-0.53-0.83-1.1-1.59-1.72-2.29
				c-0.11-0.12-0.22-0.24-0.32-0.36c-0.09-0.1-0.18-0.19-0.27-0.28c-0.11-0.12-0.23-0.23-0.35-0.35c-0.34-0.34-0.68-0.65-1.04-0.93
				c-0.17-0.15-0.35-0.29-0.53-0.42c-0.18-0.14-0.36-0.27-0.55-0.4c-0.29-0.21-0.59-0.41-0.89-0.58c-0.08-0.05-0.16-0.1-0.24-0.15
				l-0.05-0.04c-0.01,0-0.01,0-0.01,0l-14.17-8.18c-0.01,0-0.01,0-0.02,0l-0.08-0.05c-2.6-1.48-5.6-2.25-8.9-2.25
				c-4.64,0-9.88,1.52-15.43,4.72c-19.06,11.01-34.52,37.78-34.52,59.8c0,10.98,3.84,18.7,10.05,22.32l0.06,0.03c0,0,0,0,0,0.01
				l14.18,8.17c0,0.01,0,0.01,0.01,0.01l0.06,0.04v-0.01c0.06,0.03,0.11,0.06,0.17,0.09c0.27,0.16,0.54,0.3,0.82,0.43
				c0.34,0.17,0.69,0.32,1.04,0.46c0.31,0.13,0.63,0.25,0.95,0.35c0.17,0.06,0.34,0.11,0.51,0.15c0.18,0.07,0.36,0.12,0.55,0.16
				c0.19,0.06,0.37,0.1,0.56,0.14c0.14,0.04,0.27,0.07,0.41,0.09c0.24,0.05,0.5,0.1,0.75,0.13c0.06,0.02,0.11,0.03,0.17,0.03
				c0.3,0.05,0.6,0.09,0.9,0.12c5.14,0.54,11.12-0.91,17.52-4.6c19.07-11.01,34.53-37.79,34.53-59.8
				C201.835,262.429,201.825,261.909,201.805,261.389z M178.675,245.819c0.91,3.1,1.09,6.3,1.09,8.4
				c0,19.42-14.21,44.03-31.03,53.74c-2.73,1.57-5.39,2.68-7.87,3.27c-0.9-3.1-1.09-6.3-1.09-8.41c0-19.42,14.21-44.03,31.03-53.74
				C173.535,247.509,176.195,246.409,178.675,245.819z"/>
			<path id="XMLID_2359_" style="opacity:0.1;" d="M142.405,324.897l-13.762-7.943c-6.21-3.63-10.05-11.35-10.05-22.31
				c0-9.82,3.08-20.58,8.17-30.46l14.178,8.176c-5.1,9.88-8.17,20.64-8.17,30.46C132.771,313.56,136.425,321.177,142.405,324.897z"
				/>
			<path id="XMLID_2355_" style="opacity:0.4;fill:#FFFFFF;" d="M201.805,261.389c-0.01-0.41-0.03-0.81-0.06-1.21
				c-0.02-0.4-0.05-0.79-0.09-1.18c-0.02-0.26-0.05-0.52-0.08-0.78c-0.07-0.68-0.17-1.35-0.28-1.99c-0.05-0.29-0.1-0.59-0.16-0.88
				c-0.05-0.28-0.11-0.55-0.17-0.82c-0.17-0.74-0.35-1.46-0.56-2.15c-0.11-0.33-0.21-0.66-0.32-0.98c-0.02-0.05-0.04-0.1-0.05-0.15
				c-0.12-0.32-0.23-0.63-0.35-0.93c-0.14-0.35-0.28-0.7-0.44-1.03c-0.11-0.25-0.22-0.49-0.35-0.73c-0.07-0.18-0.16-0.35-0.26-0.52
				c-0.1-0.21-0.21-0.42-0.33-0.62c-0.03-0.05-0.05-0.1-0.08-0.14c-0.1-0.18-0.21-0.36-0.32-0.54c-0.07-0.12-0.15-0.23-0.22-0.34
				c-0.53-0.83-1.1-1.59-1.72-2.29c-0.11-0.12-0.22-0.24-0.32-0.36c-0.09-0.1-0.18-0.19-0.27-0.28c-0.11-0.12-0.23-0.23-0.35-0.35
				c-0.34-0.34-0.68-0.65-1.04-0.93c-0.17-0.15-0.35-0.29-0.53-0.42c-0.18-0.14-0.36-0.27-0.55-0.4c-0.29-0.21-0.59-0.41-0.89-0.58
				c-6.27-3.81-15.03-3.36-24.71,2.23c-19.07,11.01-34.53,37.78-34.53,59.8c0,11.15,3.96,18.94,10.35,22.48
				c0.27,0.16,0.54,0.3,0.82,0.43c0.34,0.17,0.69,0.32,1.04,0.46c0.31,0.13,0.63,0.25,0.95,0.35c0.17,0.06,0.34,0.11,0.51,0.15
				c0.18,0.07,0.36,0.12,0.55,0.16c0.19,0.06,0.37,0.1,0.56,0.14c0.14,0.04,0.27,0.07,0.41,0.09c0.24,0.05,0.5,0.1,0.75,0.13
				c0.06,0.02,0.11,0.03,0.17,0.03c0.3,0.05,0.6,0.09,0.9,0.12c5.14,0.54,11.12-0.91,17.52-4.6c19.07-11.01,34.53-37.79,34.53-59.8
				C201.835,262.429,201.825,261.909,201.805,261.389z M163.805,316.699c-4.28,2.47-8.4,3.77-11.92,3.77
				c-6.61,0-9.65-4.51-11.02-9.24c-0.9-3.1-1.09-6.3-1.09-8.41c0-19.42,14.21-44.03,31.03-53.74c2.73-1.57,5.39-2.67,7.87-3.26
				c1.42-0.34,2.77-0.51,4.05-0.51c10.93,0,12.1,12.34,12.1,17.65C194.825,282.379,180.625,306.989,163.805,316.699z"/>
			<path id="XMLID_2354_" style="opacity:0.1;" d="M194.825,262.959c0,19.42-14.2,44.03-31.02,53.74c-4.28,2.47-8.4,3.77-11.92,3.77
				c-6.61,0-9.65-4.51-11.02-9.24c2.48-0.59,5.14-1.7,7.87-3.27c16.82-9.71,31.03-34.32,31.03-53.74c0-2.1-0.18-5.3-1.09-8.4
				c1.42-0.34,2.77-0.51,4.05-0.51C193.655,245.309,194.825,257.649,194.825,262.959z"/>
			<path id="XMLID_2352_" style="opacity:0.7;fill:#FFFFFF;" d="M188.785,259.569c0,19.42-14.2,44.03-31.02,53.74
				c-4.28,2.47-8.4,3.77-11.92,3.77c-0.74,0-1.44-0.06-2.09-0.17c-1.38-1.62-2.29-3.62-2.89-5.68c-0.9-3.1-1.09-6.3-1.09-8.41
				c0-19.42,14.21-44.03,31.03-53.74c2.73-1.57,5.39-2.67,7.87-3.26c1.42-0.34,2.77-0.51,4.05-0.51c0.75,0,1.44,0.06,2.1,0.17
				C188.275,249.549,188.785,256.079,188.785,259.569z"/>
		</g>
		<path id="XMLID_2421_" style="opacity:0.1;" d="M154.639,337.904l-1.79,71.33c-1.04-0.27-2.03-0.63-2.89-1.13
			c-1.92-1.11-2.83-2.58-2.729-4.04h-0.01l2.66-69.86c0,1,0.66,1.98,1.97,2.74C152.659,337.404,153.619,337.724,154.639,337.904z"/>
	</g>
</g>
<g id="Character">
	<g id="Character_5_">
		<g id="Character2_1_">
			<g id="XMLID_2446_">
				<g id="XMLID_2447_">
					<g id="XMLID_2489_">
						<path id="XMLID_2490_" style="fill:#FFA8A7;" d="M419.774,267.878c-0.055-0.767-1.492-8.958-2.482-13.539l-9.629,2.951
							l1.711,8.428l8.113,6.511C420.028,271.726,419.828,268.646,419.774,267.878z"/>
					</g>
					<g id="XMLID_2450_">
						<g id="XMLID_2487_">
							<path id="XMLID_2488_" style="fill:#263238;" d="M394.614,226.635h2.05c7.921,0,14.342-6.421,14.342-14.342l0,0
								c0-8.487-6.88-15.366-15.366-15.366h0c-8.487,0-15.366,6.88-15.366,15.366l0,0
								C380.273,220.214,386.694,226.635,394.614,226.635z"/>
						</g>
						<g id="XMLID_2485_">
							<polygon id="XMLID_2486_" style="fill:#F28F8F;" points="373.204,250.61 368.653,258.955 375.733,265.023 382.217,254.74 
															"/>
						</g>
						<g id="XMLID_2483_">
							<path id="XMLID_2484_" style="fill:#27DEBF;" d="M390.281,232.013c-4.514,0.046-9.484,1.688-11.194,5.227
								c-1.71,3.54-7.057,14.563-7.057,14.563s3.99,5.841,10.318,5.429L390.281,232.013z"/>
						</g>
						<g id="XMLID_1_" style="opacity:0.1;">
							<path id="XMLID_3_" d="M390.281,232.013c-4.514,0.046-9.484,1.688-11.194,5.227c-1.71,3.54-7.057,14.563-7.057,14.563
								s3.99,5.841,10.318,5.429L390.281,232.013z"/>
						</g>
						<g id="XMLID_2477_">
							<path id="XMLID_2478_" style="fill:#263238;" d="M405.51,380.326v-0.988c-0.389,1.159-2.197,6.148-4.938,8.648
								c-2.179,1.988-5.152,4.283-5.908,6.499c-0.786,2.305,4.137,3.079,6.172,2.718c2.365-0.419,5.426-1.761,7.092-3.808
								c1.171-1.439,1.917-3.145,2.753-4.276c0.836-1.132,2.764-2.395,3.216-3.705c0.248-0.719-0.047-2.295-0.396-3.626
								c-0.32-1.222-0.667-2.564-1.084-2.45c-0.001,0.149,0,0.753,0,0.753c-0.501,0.556-1.889,1.107-3.454,1.167
								C407.954,381.297,405.502,381.096,405.51,380.326z"/>
						</g>
						<g id="XMLID_2475_">
							<path id="XMLID_2476_" style="fill:#FFA8A7;" d="M398.6,389.734c0.676-0.603,1.356-1.193,1.973-1.755
								c1.915-1.747,3.374-4.709,4.213-6.731c0.479-1.154,0.725-2.386,0.725-3.635v-3.937h6.908v6.409v0v0.001v0.171l-0.035,0.018
								c-0.332,1.435-3.503,5.254-5.304,7.744c-1.207,1.669-3.502,3.793-6.243,4.159C398.239,392.523,396.912,391.704,398.6,389.734
								z"/>
						</g>
						<g id="XMLID_2482_">
							<path id="XMLID_2511_" style="fill:#263238;" d="M379.838,373.665v-0.988c-0.389,1.159-2.197,6.147-4.938,8.648
								c-2.179,1.988-5.152,4.283-5.908,6.499c-0.786,2.305,4.137,3.079,6.172,2.718c2.366-0.419,5.426-1.761,7.092-3.808
								c1.171-1.439,1.917-3.145,2.753-4.276c0.836-1.132,2.764-2.395,3.216-3.705c0.248-0.719-0.047-2.295-0.396-3.627
								c-0.32-1.221-0.667-2.565-1.084-2.45c-0.001,0.149,0,0.753,0,0.753c-0.501,0.556-1.889,1.108-3.454,1.168
								C382.282,374.636,379.83,374.436,379.838,373.665z"/>
						</g>
						<g id="XMLID_2480_">
							<path id="XMLID_2481_" style="fill:#FFA8A7;" d="M372.928,383.073c0.676-0.603,1.356-1.193,1.973-1.755
								c1.915-1.747,3.375-4.709,4.213-6.731c0.479-1.154,0.725-2.386,0.725-3.635v-3.938h6.908v6.409v0v0.001v0.171l-0.035,0.018
								c-0.332,1.435-3.503,5.254-5.304,7.744c-1.207,1.669-3.501,3.793-6.243,4.159
								C372.567,385.862,371.239,385.043,372.928,383.073z"/>
						</g>
						<g id="XMLID_2473_">
							<path id="XMLID_2474_" style="fill:#37474F;" d="M411.044,272.964c5.356,11.697-0.193,52.903-0.193,52.903
								c0.161,1.898,2.331,5.633,3.14,13.988c0.955,9.871-1.499,34.658-1.499,34.658s-3.198,2.091-6.981,0.277
								c0,0-6.584-37.331-7.822-47.145c-1.08-8.566-3.154-28.699-3.154-28.699l-5.894,28.653c0,0,1.519,5.21,1.632,10.092
								c0.135,5.799-3.386,31.235-3.386,31.235c-0.676,1.3-5.826,1.612-7.178,0.026c0,0-3.038-35.715-3.644-42.663
								c-0.362-4.15,4.369-55.036,4.369-55.036L411.044,272.964z"/>
						</g>
						<g id="XMLID_2471_">
							<path id="XMLID_2472_" style="fill:#263238;" d="M394.534,298.946l-1.739-9.565c0,0-7.356-1.524-10.692-4.66
								c0,0,3.5,4.354,8.699,5.78l1.953,8.365l-3.414,25.327L394.534,298.946z"/>
						</g>
						<g id="XMLID_2469_">
							<path id="XMLID_2470_" style="fill:#27DEBF;" d="M401.597,232.326L401.597,232.326c4.089,0.984,7.348,3.788,9.066,7.415
								c1.308,2.761,1.323,5.962,0.325,8.85l-4.785,13.842c0,0,2.24,5.415,4.841,10.532c-12.007,6.702-27.001,3.179-30.611-1.712
								c-0.153-1.037,0.055-5.713-0.236-11.033c-0.311-5.673-1.09-12.079-0.198-15.585c1.656-6.509,4.758-12.62,10.931-12.62
								L401.597,232.326z"/>
						</g>
						<g id="XMLID_2467_">
							<path id="XMLID_2468_" style="fill:#27DEBF;" d="M401.597,232.326c4.098,0.579,10.477,1.391,13.294,11.35
								c2.747,9.712,3.39,13.099,3.39,13.099s-3.363,3.913-10.161,3.88l-2.114-7.483L401.597,232.326z"/>
						</g>
						<g id="XMLID_2463_">
							<path id="XMLID_2464_" style="fill:#FFA8A7;" d="M386.01,204.706c-1.623,0.959-3.629,5.042-3.431,13.6
								c0.168,7.253,2.519,9.045,3.699,9.561c1.181,0.517,3.457,0.202,5.671-0.167v4.353c0,0-3.059,3.553-2.866,5.549
								c0.193,1.996,4.417,2.468,7.28,0.518c2.863-1.95,4.698-4.918,4.698-4.918V222.68c0,0,1.494,1.995,3.938,0.372
								c2.444-1.623,2.537-5.64,1.116-7.083c-1.421-1.443-4.483-0.986-5.054,1.007c0,0-3.53,0.129-8.231-2.453
								C388.128,211.941,386.322,207.518,386.01,204.706z"/>
						</g>
						<g id="XMLID_2461_">
							<path id="XMLID_2462_" style="fill:#263238;" d="M390.677,216.483c-0.026,0.523,0.36,0.966,0.863,0.99
								c0.503,0.024,0.932-0.381,0.959-0.903c0.026-0.523-0.36-0.966-0.863-0.99C391.132,215.556,390.703,215.96,390.677,216.483z"
								/>
						</g>
						<g id="XMLID_2459_">
							<path id="XMLID_2460_" style="fill:#F28F8F;" d="M390.433,222.632l-2.118,0.676c0.176,0.606,0.793,0.947,1.378,0.76
								C390.277,223.881,390.609,223.238,390.433,222.632z"/>
						</g>
						<g id="XMLID_2457_">
							<path id="XMLID_2458_" style="fill:#263238;" d="M383.198,213.682l1.845-1.279c-0.337-0.527-1.023-0.668-1.533-0.314
								C383.001,212.442,382.862,213.155,383.198,213.682z"/>
						</g>
						<g id="XMLID_2455_">
							<path id="XMLID_2456_" style="fill:#263238;" d="M383.624,215.824c-0.026,0.523,0.36,0.966,0.864,0.989
								c0.503,0.024,0.932-0.38,0.958-0.903c0.026-0.523-0.36-0.966-0.863-0.99C384.079,214.897,383.65,215.301,383.624,215.824z"/>
						</g>
						<g id="XMLID_2453_">
							<polygon id="XMLID_2454_" style="fill:#F28F8F;" points="387.927,215.301 387.782,220.792 384.892,219.897 							"/>
						</g>
						<g id="XMLID_2451_">
							<path id="XMLID_2452_" style="fill:#F28F8F;" d="M391.948,227.7c2.333-0.306,7.132-1.684,7.879-3.582
								c0,0-0.249,1.192-1.683,2.421c-1.433,1.229-6.197,2.613-6.197,2.613V227.7z"/>
						</g>
					</g>
					<g id="XMLID_2448_">
						<path id="XMLID_2449_" style="opacity:0.1;" d="M407.663,258.208c0,0-1.518-4.025-2.355-7.597c0,0,0.384,5.652,1.978,8.69
							L407.663,258.208z"/>
					</g>
				</g>
			</g>
			<g id="XMLID_2444_">
				<polygon id="XMLID_2445_" style="fill:#E0E0E0;" points="353.773,250.098 380.253,257.072 388.069,289.935 362.894,282.624 				
					"/>
			</g>
			<g id="XMLID_2442_" style="opacity:0.1;">
				<path id="XMLID_2443_" d="M365.318,271.843c-0.245,0.671-1.695,2.534-4.778,2.387l-0.381-1.359L365.318,271.843z"/>
			</g>
			<g id="XMLID_2440_" style="opacity:0.1;">
				<path id="XMLID_2441_" d="M371.236,272.871c0.116,0.875,1.918,2.498,4.961,3.513c3.463,1.154,8.779,0.544,8.779,0.544
					l-0.476-1.635L371.236,272.871z"/>
			</g>
			<g id="XMLID_2438_" style="opacity:0.1;">
				<path id="XMLID_2439_" d="M361.525,254.857c0,0-0.098-0.452-0.218-1.01s1.433-0.582,3.471-0.053l3.901,1.012
					c2.038,0.528,3.787,1.409,3.908,1.967l0.218,1.01L361.525,254.857z"/>
			</g>
			<g id="XMLID_2436_">
				<path id="XMLID_2437_" style="fill:#37474F;" d="M359.69,251.047c-0.077-0.349,0.553-0.44,1.406-0.204l1.545,0.427
					c0,0-0.461-2.184,2.967-1.421c3.428,0.763,4.178,3.244,4.178,3.244s0.738,0.21,1.649,0.468c0.911,0.259,1.737,0.75,1.844,1.097
					l0.195,0.628l-13.64-3.591C359.835,251.694,359.766,251.395,359.69,251.047z"/>
			</g>
			<g id="XMLID_2434_">
				<path id="XMLID_2435_" style="fill:#37474F;" d="M361.568,252.137c1.25,0.301,1.769,0.467,1.956,1.327
					c0.213,0.982,0.3,1.703,0.3,1.703l6.037,1.595c0,0-0.292-1.243-0.385-1.728c-0.093-0.485,0.112-0.777,1.073-0.523l0.081-0.385
					l-9.46-2.409L361.568,252.137z"/>
			</g>
			<g id="XMLID_2432_">
				<path id="XMLID_2433_" style="fill:#37474F;" d="M361.361,254.952c0,0-0.098-0.452-0.219-1.01
					c-0.121-0.558,1.433-0.582,3.471-0.053l3.902,1.012c2.037,0.528,3.787,1.409,3.908,1.967l0.218,1.01L361.361,254.952z"/>
			</g>
			<g id="XMLID_2430_">
				<path id="XMLID_2431_" style="fill:#FFA8A7;" d="M417.487,272.229l-8.113-6.511c0,0-17.928,3.194-20.034,3.359
					c-2.107,0.166-4.446-1.322-5.25-3.39c-0.803-2.068-2.218-1.811-2.218-1.811s0.623,2.621,0.823,3.458
					c0.199,0.837-4.85,1.525-7.65,0.576c-2.8-0.948-6.854,0.428-4.343,4.242c2.511,3.813,7.394,4.253,10.786,4.255
					c0.938,0.001,2.604-0.071,4.241-0.283c1.098-0.143,2.189-0.253,3.293-0.332C395.966,275.298,414.331,273.22,417.487,272.229z"/>
			</g>
			<g id="XMLID_2428_">
				<path id="XMLID_2429_" style="fill:#FFA8A7;" d="M356.467,259.705c0,0,0.949,3.383,1.175,4.191
					c0.227,0.807,3.305,2.274,5.252,2.809c1.947,0.535,4.075,1.169,3.154,3.89c-0.849,2.51-4.052,3.082-5.683,3.012
					c-1.631-0.071-3.863-1.63-4.743-4.142c-1.122-3.205-0.517-6.628-0.963-8.5C354.214,259.093,355.491,258.589,356.467,259.705z"/>
			</g>
		</g>
		<path id="XMLID_2465_" style="fill:#263238;" d="M419.42,238.169L419.42,238.169c-5.324,0-9.64-4.316-9.64-9.64v-22.627l0,0
			c5.324,0,9.64,4.316,9.64,9.64V238.169z"/>
		<g id="XMLID_2523_">
			<path id="XMLID_2524_" style="fill:#263238;" d="M409.473,206.695l4.001-2.148c-0.568-1.146-1.924-1.595-3.029-1.002
				C409.34,204.138,408.905,205.548,409.473,206.695z"/>
		</g>
	</g>
</g>
<g id="Cloud">
	<g id="Cloud_2_">
		<path id="Nube_1_" style="fill:#EBEBEB;" d="M147.286,110.993l-6.863,3.962c0.034-0.307,0.058-0.611,0.058-0.909v-1.988
			c0-3.538-2.484-4.972-5.548-3.203c-1.241,0.716-2.383,1.852-3.307,3.18c-0.502-4.449-3.993-6.106-8.232-3.659
			c-4.584,2.647-8.3,9.083-8.3,14.377v2.975c0,1.371,0.254,2.526,0.703,3.446l-5.701,3.291c-1.7,0.981-3.077,3.368-3.077,5.33
			c0,1.963,1.378,2.758,3.077,1.777l37.191-21.472c1.7-0.981,3.078-3.368,3.078-5.33
			C150.364,110.807,148.986,110.011,147.286,110.993z"/>
	</g>
</g>
</svg>
