<?xml version="1.0" encoding="utf-8"?>
<!-- Generator: Adobe Illustrator 27.5.0, SVG Export Plug-In . SVG Version: 6.00 Build 0)  -->
<svg version="1.1" xmlns="http://www.w3.org/2000/svg" xmlns:xlink="http://www.w3.org/1999/xlink" x="0px" y="0px"
	 viewBox="0 0 500 500" style="enable-background:new 0 0 500 500;" xml:space="preserve">
<g id="Floor">
	<ellipse id="Floor_3_" style="fill:#F5F5F5;" cx="249" cy="346.379" rx="239.651" ry="137.314"/>
</g>
<g id="Shadows">
	<ellipse id="Shadow_4_" style="fill:#E6E6E6;" cx="48.463" cy="381.455" rx="21.034" ry="12.144"/>
	<ellipse id="Shadow_3_" style="fill:#E6E6E6;" cx="100.719" cy="417.082" rx="21.034" ry="12.144"/>
	<path id="Shadow_2_" style="fill:#E6E6E6;" d="M366.936,355.958c-23.926-13.814-62.718-13.814-86.644,0
		c-20.281,11.71-23.363,29.584-9.26,43.173c-0.814,0.233-1.593,0.531-2.28,0.927l-75.586,43.64c-3.209,1.853-3.209,4.856,0,6.709
		l4.731,2.732c3.209,1.853,8.323,1.71,11.424-0.319l70.397-46.073c0.307-0.201,0.561-0.418,0.809-0.637
		c23.944,13.681,62.56,13.641,86.41-0.128C390.862,392.168,390.862,369.772,366.936,355.958z"/>
	<path id="Shadow_1_" style="fill:#E0E0E0;" d="M466.181,312.969c18.959,10.68,19.149,28.322,0.425,39.406
		c-18.724,11.084-49.278,11.413-68.245,0.737c-18.967-10.677-19.158-28.32-0.425-39.406
		C416.668,302.62,447.223,302.29,466.181,312.969z"/>
</g>
<g id="Grid_1_">
	<g id="Grid">
		<g>
			<g>
				
					<rect x="38.425" y="140.203" transform="matrix(0.8656 -0.5007 0.5007 0.8656 -49.0314 98.7521)" style="fill:#E0E0E0;" width="242.109" height="1.057"/>
			</g>
			<g>
				
					<rect x="38.425" y="165.618" transform="matrix(0.8657 -0.5006 0.5006 0.8657 -61.7526 102.1562)" style="fill:#E0E0E0;" width="242.109" height="1.057"/>
			</g>
			<g>
				
					<rect x="38.425" y="191.033" transform="matrix(0.8659 -0.5002 0.5002 0.8659 -74.4389 105.4705)" style="fill:#E0E0E0;" width="242.109" height="1.057"/>
			</g>
			<g>
				
					<rect x="38.425" y="216.447" transform="matrix(0.8659 -0.5002 0.5002 0.8659 -87.1475 108.8674)" style="fill:#E0E0E0;" width="242.109" height="1.058"/>
			</g>
			<g>
				
					<rect x="38.425" y="241.862" transform="matrix(0.8659 -0.5002 0.5002 0.8659 -99.8664 112.2877)" style="fill:#E0E0E0;" width="242.109" height="1.057"/>
			</g>
			<g>
				
					<rect x="38.425" y="267.277" transform="matrix(0.8659 -0.5002 0.5002 0.8659 -112.5801 115.6963)" style="fill:#E0E0E0;" width="242.109" height="1.058"/>
			</g>
			<g>
				<rect x="73.176" y="164.927" style="fill:#E0E0E0;" width="1.057" height="177.904"/>
			</g>
			<g>
				<rect x="92.237" y="153.921" style="fill:#E0E0E0;" width="1.057" height="177.904"/>
			</g>
			<g>
				<rect x="111.298" y="142.917" style="fill:#E0E0E0;" width="1.057" height="177.904"/>
			</g>
			<g>
				<rect x="130.36" y="131.912" style="fill:#E0E0E0;" width="1.057" height="177.904"/>
			</g>
			<g>
				<rect x="149.42" y="120.907" style="fill:#E0E0E0;" width="1.057" height="177.904"/>
			</g>
			<g>
				<rect x="168.482" y="109.902" style="fill:#E0E0E0;" width="1.057" height="177.904"/>
			</g>
			<g>
				<rect x="187.543" y="98.896" style="fill:#E0E0E0;" width="1.057" height="177.905"/>
			</g>
			<g>
				<rect x="206.604" y="87.892" style="fill:#E0E0E0;" width="1.057" height="177.905"/>
			</g>
			<g>
				<rect x="225.665" y="76.887" style="fill:#E0E0E0;" width="1.057" height="177.905"/>
			</g>
			<g>
				<rect x="244.726" y="65.882" style="fill:#E0E0E0;" width="1.057" height="177.905"/>
			</g>
			<g>
				<path style="fill:#E0E0E0;" d="M54.643,354.277c-0.091,0-0.183-0.023-0.265-0.07c-0.163-0.095-0.264-0.27-0.264-0.458V175.932
					c0-0.189,0.101-0.363,0.264-0.458L264.051,54.419c0.164-0.095,0.365-0.095,0.529,0c0.163,0.094,0.264,0.269,0.264,0.458v177.816
					c0,0.189-0.101,0.363-0.264,0.457L54.908,354.207C54.826,354.253,54.734,354.277,54.643,354.277z M55.171,176.237v176.597
					l208.616-120.445V55.792L55.171,176.237z"/>
			</g>
		</g>
		<g>
			<g>
				
					<rect x="57.42" y="303.659" transform="matrix(0.8658 -0.5003 0.5003 0.8658 -128.2468 130.103)" style="fill:#E0E0E0;" width="242.109" height="1.058"/>
			</g>
			<g>
				
					<rect x="76.481" y="314.664" transform="matrix(0.8659 -0.5003 0.5003 0.8659 -131.1871 141.1006)" style="fill:#E0E0E0;" width="242.109" height="1.058"/>
			</g>
			<g>
				
					<rect x="95.542" y="325.669" transform="matrix(0.8658 -0.5003 0.5003 0.8658 -134.1442 152.1289)" style="fill:#E0E0E0;" width="242.109" height="1.058"/>
			</g>
			<g>
				
					<rect x="114.603" y="336.674" transform="matrix(0.8658 -0.5003 0.5003 0.8658 -137.0929 163.1421)" style="fill:#E0E0E0;" width="242.109" height="1.058"/>
			</g>
			<g>
				
					<rect x="120.828" y="315.232" transform="matrix(0.5 -0.866 0.866 0.5 -259.9724 290.2255)" style="fill:#E0E0E0;" width="1.058" height="110.048"/>
			</g>
			<g>
				
					<rect x="139.889" y="304.226" transform="matrix(0.5 -0.866 0.866 0.5 -240.9117 301.2321)" style="fill:#E0E0E0;" width="1.058" height="110.049"/>
			</g>
			<g>
				
					<rect x="158.95" y="293.221" transform="matrix(0.5 -0.866 0.866 0.5 -221.8504 312.2374)" style="fill:#E0E0E0;" width="1.058" height="110.049"/>
			</g>
			<g>
				
					<rect x="178.011" y="282.216" transform="matrix(0.5 -0.866 0.866 0.5 -202.7887 323.2374)" style="fill:#E0E0E0;" width="1.058" height="110.049"/>
			</g>
			<g>
				
					<rect x="197.073" y="271.211" transform="matrix(0.5 -0.866 0.866 0.5 -183.7274 334.2467)" style="fill:#E0E0E0;" width="1.058" height="110.049"/>
			</g>
			<g>
				
					<rect x="216.134" y="260.206" transform="matrix(0.5 -0.866 0.866 0.5 -164.666 345.252)" style="fill:#E0E0E0;" width="1.058" height="110.049"/>
			</g>
			<g>
				
					<rect x="235.195" y="249.201" transform="matrix(0.5 -0.866 0.866 0.5 -145.6052 356.255)" style="fill:#E0E0E0;" width="1.058" height="110.048"/>
			</g>
			<g>
				
					<rect x="254.256" y="238.196" transform="matrix(0.5 -0.866 0.866 0.5 -126.5438 367.2618)" style="fill:#E0E0E0;" width="1.058" height="110.049"/>
			</g>
			<g>
				
					<rect x="273.317" y="227.192" transform="matrix(0.5 -0.866 0.866 0.5 -107.4833 378.2647)" style="fill:#E0E0E0;" width="1.058" height="110.049"/>
			</g>
			<g>
				
					<rect x="292.378" y="216.187" transform="matrix(0.5 -0.866 0.866 0.5 -88.4218 389.2715)" style="fill:#E0E0E0;" width="1.058" height="110.049"/>
			</g>
			<g>
				<path style="fill:#E0E0E0;" d="M149.882,409.263c-0.091,0-0.183-0.023-0.265-0.07l-95.239-54.986
					c-0.163-0.095-0.264-0.27-0.264-0.458c0-0.189,0.101-0.363,0.264-0.458l209.673-121.055c0.164-0.095,0.365-0.095,0.529,0
					l95.24,54.986c0.163,0.095,0.264,0.27,0.264,0.458s-0.101,0.363-0.264,0.458L150.147,409.193
					C150.065,409.24,149.973,409.263,149.882,409.263z M55.7,353.749l94.183,54.376L358.499,287.68l-94.184-54.377L55.7,353.749z"/>
			</g>
		</g>
	</g>
</g>
<g id="Charts_1_">
	<g id="Charts">
		<g>
			<g id="XMLID_1149_">
				<g id="XMLID_1150_">
					<g id="XMLID_1152_">
						<path style="fill:#455A64;" d="M106.956,181.589c0,11.504-6.525,24.861-14.577,29.846
							c-8.043,4.985-14.567-0.309-14.567-11.802c0-11.504,6.524-24.861,14.567-29.846v22.07l13.866-16.262
							C106.706,177.336,106.956,179.344,106.956,181.589z"/>
					</g>
				</g>
			</g>
			<path id="XMLID_1153_" style="fill:#27DEBF;" d="M107.587,172.389c-1.897-7.177-7.387-9.817-13.863-5.81v22.067L107.587,172.389z
				"/>
		</g>
		<g>
			<g id="XMLID_1141_">
				<g id="XMLID_1142_">
					<g id="XMLID_1144_">
						<path style="fill:#455A64;" d="M140.315,163.579l8.571,11.555c-2.412,3.986-5.372,7.292-8.571,9.269
							c-8.043,4.985-14.567-0.299-14.567-11.803c0-11.504,6.525-24.861,14.567-29.846V163.579z"/>
					</g>
				</g>
			</g>
			<g>
				<path id="XMLID_1145_" style="fill:#27DEBF;" d="M151.102,174.23c3.64-6.038,6.006-13.639,6.006-20.565
					c0-11.501-6.524-16.787-14.572-11.807l0,20.823L151.102,174.23z"/>
			</g>
		</g>
		<g>
			<g id="XMLID_1132_">
				<g id="XMLID_1133_">
					<g id="XMLID_1134_">
						<path style="fill:#455A64;" d="M234.078,87.98v20.824l-13.866,2.142C222.105,101.42,227.602,91.987,234.078,87.98z"/>
					</g>
				</g>
			</g>
			<g>
				<path id="XMLID_1135_" style="fill:#27DEBF;" d="M222.674,113.335c-0.461,2.312-0.71,4.629-0.71,6.876
					c0,11.501,6.524,16.787,14.572,11.807c8.048-4.98,14.572-18.341,14.572-29.841s-6.524-16.787-14.572-11.807l0,20.826
					L222.674,113.335z"/>
			</g>
		</g>
		<g>
			<g id="XMLID_450_">
				<g id="XMLID_826_">
					<g id="XMLID_1124_">
						<path style="fill:#455A64;" d="M187.915,114.255v20.824l-8.562,22.153c-3.642-1.535-6.015-6.21-6.015-13.141
							C173.338,132.597,179.862,119.229,187.915,114.255z"/>
					</g>
				</g>
			</g>
			<g>
				<path id="XMLID_1125_" style="fill:#27DEBF;" d="M181.69,157.893c2.404,1.012,5.364,0.655,8.565-1.325
					c8.048-4.98,14.572-18.341,14.572-29.841c0-11.501-6.524-16.787-14.572-11.807l0,20.826L181.69,157.893z"/>
			</g>
		</g>
		<g>
			<path id="XMLID_1151_" style="fill:#27DEBF;" d="M83.578,239.106v-6.802c0-0.161,0.113-0.357,0.252-0.437l17.208-10.061
				c0.139-0.08,0.252-0.015,0.252,0.146v6.802c0,0.161-0.113,0.357-0.252,0.437l-17.208,10.061
				C83.691,239.332,83.578,239.267,83.578,239.106z"/>
			<path style="fill:#27DEBF;" d="M131.319,211.683v-6.802c0-0.161,0.113-0.357,0.252-0.437l17.208-10.061
				c0.139-0.08,0.252-0.015,0.252,0.146v6.802c0,0.161-0.113,0.357-0.252,0.437l-17.208,10.061
				C131.432,211.909,131.319,211.844,131.319,211.683z"/>
			<path style="fill:#27DEBF;" d="M179.061,184.26v-6.802c0-0.161,0.113-0.357,0.252-0.437l17.208-10.061
				c0.139-0.08,0.252-0.015,0.252,0.146v6.802c0,0.161-0.113,0.357-0.252,0.437l-17.208,10.061
				C179.173,184.486,179.061,184.421,179.061,184.26z"/>
			<path id="XMLID_1148_" style="fill:#27DEBF;" d="M226.801,156.837v-6.802c0-0.161,0.113-0.357,0.252-0.437l17.208-10.061
				c0.139-0.08,0.252-0.015,0.252,0.146v6.802c0,0.161-0.113,0.357-0.252,0.437l-17.208,10.061
				C226.915,157.063,226.801,156.998,226.801,156.837z"/>
		</g>
	</g>
	<g id="Graph_3_">
		<g>
			<polygon style="fill:#263238;" points="298.079,126.266 279.018,159.04 259.956,215.254 240.895,204.82 221.834,257.261 
				202.773,246.827 183.712,258.25 164.651,284.646 145.589,283.266 126.528,322.4 107.467,321.321 88.406,347.826 88.406,373.241 
				92.699,375.72 302.372,254.637 302.372,128.745 			"/>
			<polygon style="fill:#455A64;" points="92.699,350.305 111.761,323.8 130.822,324.879 149.883,285.745 168.944,287.125 
				188.005,260.729 207.066,249.306 226.128,259.74 245.189,207.298 264.25,217.733 283.311,161.519 302.372,128.745 
				302.372,254.637 92.699,375.72 			"/>
			<polygon style="fill:#37474F;" points="88.406,347.826 92.699,350.305 111.761,323.8 107.467,321.321 			"/>
			<polygon style="fill:#37474F;" points="145.589,283.266 149.883,285.745 130.822,324.879 126.528,322.4 			"/>
			<polygon style="fill:#37474F;" points="164.651,284.646 168.944,287.125 188.005,260.729 183.712,258.25 			"/>
			<polygon style="fill:#37474F;" points="240.895,204.82 245.189,207.298 226.128,259.74 221.834,257.261 			"/>
			<polygon style="fill:#37474F;" points="279.018,159.04 283.311,161.519 264.25,217.733 259.956,215.254 			"/>
		</g>
		<g>
			<g>
				<g>
					<path style="fill:#455A64;" d="M282.207,136.443c-0.084,0-0.169-0.023-0.244-0.073c-0.202-0.135-0.258-0.408-0.123-0.611
						l16.287-24.577c0.134-0.203,0.409-0.258,0.611-0.124c0.202,0.135,0.258,0.408,0.123,0.611l-16.287,24.577
						C282.491,136.374,282.35,136.443,282.207,136.443z"/>
				</g>
				<g>
					<path style="fill:#455A64;" d="M262.39,192.258c-0.047,0-0.095-0.008-0.142-0.024c-0.23-0.078-0.354-0.329-0.276-0.559
						l16.296-48.059c0.078-0.23,0.329-0.355,0.56-0.276c0.23,0.078,0.354,0.329,0.276,0.559l-16.296,48.059
						C262.746,192.142,262.574,192.258,262.39,192.258z"/>
				</g>
				<g>
					<path style="fill:#455A64;" d="M258.855,195.157c-0.072,0-0.145-0.018-0.212-0.054l-13.249-7.238
						c-0.213-0.117-0.292-0.385-0.175-0.599c0.117-0.215,0.387-0.292,0.599-0.176l13.249,7.238c0.213,0.117,0.292,0.385,0.175,0.599
						C259.162,195.073,259.01,195.157,258.855,195.157z"/>
				</g>
				<g>
					<path style="fill:#455A64;" d="M225.867,235.119c-0.05,0-0.101-0.009-0.15-0.027c-0.23-0.083-0.348-0.336-0.265-0.565
						l16.11-44.321c0.082-0.229,0.334-0.347,0.564-0.264c0.229,0.083,0.348,0.336,0.265,0.566l-16.11,44.321
						C226.216,235.008,226.047,235.119,225.867,235.119z"/>
				</g>
				<g>
					<path style="fill:#455A64;" d="M222.237,238.003c-0.072,0-0.145-0.018-0.212-0.055l-14.752-8.076
						c-0.214-0.117-0.292-0.385-0.175-0.599c0.117-0.214,0.386-0.291,0.599-0.175l14.752,8.076c0.214,0.117,0.292,0.385,0.175,0.599
						C222.543,237.919,222.392,238.003,222.237,238.003z"/>
				</g>
				<g>
					<path style="fill:#455A64;" d="M189.084,238.482c-0.149,0-0.296-0.076-0.378-0.214c-0.126-0.209-0.058-0.48,0.151-0.605
						l13.418-8.041c0.208-0.125,0.48-0.058,0.604,0.152c0.126,0.209,0.058,0.48-0.151,0.605l-13.418,8.041
						C189.24,238.462,189.162,238.482,189.084,238.482z"/>
				</g>
				<g>
					<path style="fill:#455A64;" d="M169.689,263.128c-0.09,0-0.18-0.027-0.258-0.084c-0.198-0.143-0.242-0.418-0.1-0.615
						l14.312-19.819c0.143-0.197,0.418-0.242,0.615-0.099c0.198,0.143,0.242,0.418,0.1,0.616l-14.312,19.818
						C169.96,263.065,169.826,263.128,169.689,263.128z"/>
				</g>
				<g>
					<path style="fill:#455A64;" d="M164.6,266.378c-0.01,0-0.021-0.001-0.032-0.002l-13.878-1.005
						c-0.242-0.018-0.426-0.229-0.407-0.472c0.018-0.241,0.21-0.433,0.472-0.407l13.878,1.005c0.242,0.018,0.426,0.228,0.407,0.472
						C165.023,266.2,164.829,266.378,164.6,266.378z"/>
				</g>
				<g>
					<path style="fill:#455A64;" d="M131.052,300.279c-0.066,0-0.131-0.015-0.193-0.045c-0.219-0.106-0.31-0.371-0.203-0.59
						l15.153-31.11c0.106-0.219,0.372-0.309,0.59-0.203c0.219,0.106,0.31,0.371,0.203,0.59l-15.153,31.11
						C131.372,300.187,131.215,300.279,131.052,300.279z"/>
				</g>
				<g>
					<path style="fill:#455A64;" d="M126.475,304.171c-0.008,0-0.017-0.001-0.025-0.001l-13.899-0.786
						c-0.243-0.014-0.429-0.222-0.415-0.466c0.014-0.242,0.188-0.412,0.466-0.415l13.899,0.786c0.243,0.014,0.429,0.222,0.415,0.466
						C126.902,303.99,126.707,304.171,126.475,304.171z"/>
				</g>
				<g>
					<path style="fill:#455A64;" d="M90.962,329.747c-0.09,0-0.18-0.027-0.258-0.083c-0.197-0.143-0.242-0.418-0.101-0.616
						l16.65-23.153c0.145-0.197,0.419-0.241,0.616-0.101c0.197,0.143,0.242,0.418,0.101,0.616l-16.65,23.153
						C91.234,329.682,91.099,329.747,90.962,329.747z"/>
				</g>
			</g>
			<g>
				<g>
					<path style="fill:#455A64;" d="M108.898,307.352c-0.338,0-0.657-0.083-0.946-0.25c-0.762-0.44-1.198-1.412-1.198-2.67
						c0-2.258,1.34-4.8,3.049-5.787c0.822-0.475,1.636-0.527,2.293-0.148c0.762,0.439,1.198,1.412,1.198,2.669
						c0,2.259-1.34,4.801-3.05,5.787C109.784,307.218,109.326,307.352,108.898,307.352z M111.145,299.128
						c-0.328,0-0.652,0.138-0.901,0.281c-1.438,0.83-2.607,3.084-2.607,5.023c0,0.934,0.275,1.629,0.757,1.906
						c0.474,0.274,1.028,0.071,1.409-0.149c1.438-0.83,2.608-3.083,2.608-5.023c0-0.933-0.275-1.628-0.757-1.905
						C111.49,299.166,111.317,299.128,111.145,299.128z"/>
				</g>
				<g>
					<path style="fill:#455A64;" d="M147.021,269.42c-0.338,0-0.657-0.083-0.946-0.25c-0.762-0.439-1.199-1.413-1.199-2.67
						c0-2.258,1.34-4.8,3.05-5.787c0.822-0.476,1.636-0.528,2.292-0.149c0.762,0.439,1.199,1.413,1.199,2.67
						c0,2.258-1.34,4.8-3.05,5.787C147.907,269.287,147.45,269.42,147.021,269.42z M149.268,261.196
						c-0.328,0-0.652,0.138-0.901,0.281c-1.438,0.831-2.608,3.084-2.608,5.023c0,0.934,0.275,1.628,0.757,1.906
						c0.477,0.275,1.03,0.069,1.41-0.149c1.438-0.831,2.608-3.084,2.608-5.023c0-0.934-0.275-1.628-0.757-1.906
						C149.613,261.233,149.44,261.196,149.268,261.196z"/>
				</g>
				<g>
					<path style="fill:#455A64;" d="M127.959,308.233c-0.338,0-0.657-0.083-0.946-0.25c-0.762-0.439-1.199-1.413-1.199-2.67
						c0-2.258,1.34-4.8,3.05-5.787c0.821-0.475,1.636-0.529,2.292-0.149c0.762,0.439,1.199,1.413,1.199,2.67
						c0,2.258-1.34,4.8-3.05,5.787C128.845,308.099,128.388,308.233,127.959,308.233z M130.206,300.008
						c-0.328,0-0.652,0.138-0.901,0.281c-1.438,0.831-2.608,3.084-2.608,5.023c0,0.934,0.275,1.628,0.757,1.906
						c0.478,0.275,1.031,0.069,1.41-0.149c1.439-0.831,2.608-3.084,2.608-5.023c0-0.934-0.275-1.628-0.757-1.906
						C130.551,300.045,130.378,300.008,130.206,300.008z"/>
				</g>
				<g>
					<path style="fill:#455A64;" d="M166.081,270.454c-0.338,0-0.658-0.084-0.947-0.251c-0.762-0.439-1.198-1.412-1.198-2.669
						c0-2.259,1.34-4.801,3.05-5.787c0.822-0.476,1.637-0.528,2.293-0.149c0.761,0.439,1.198,1.413,1.198,2.67
						c0,2.258-1.34,4.8-3.05,5.787C166.967,270.32,166.51,270.454,166.081,270.454z M168.329,262.229
						c-0.327,0-0.651,0.137-0.901,0.281c-1.439,0.83-2.608,3.083-2.608,5.023c0,0.933,0.275,1.628,0.757,1.905
						c0.478,0.276,1.031,0.07,1.41-0.148c1.438-0.831,2.608-3.084,2.608-5.023c0-0.934-0.275-1.628-0.757-1.906
						C168.673,262.266,168.5,262.229,168.329,262.229z"/>
				</g>
				<g>
					<path style="fill:#455A64;" d="M185.143,243.864c-0.338,0-0.657-0.083-0.946-0.25c-0.762-0.439-1.199-1.413-1.199-2.67
						c0-2.258,1.34-4.8,3.05-5.787c0.823-0.476,1.637-0.528,2.292-0.149c0.762,0.439,1.199,1.413,1.199,2.67
						c0,2.258-1.34,4.8-3.05,5.787C186.029,243.73,185.572,243.864,185.143,243.864z M187.39,235.639
						c-0.328,0-0.651,0.138-0.901,0.282c-1.438,0.831-2.608,3.084-2.608,5.023c0,0.934,0.275,1.628,0.757,1.906
						c0.478,0.274,1.03,0.07,1.41-0.149c1.438-0.831,2.608-3.085,2.608-5.023c0-0.934-0.275-1.628-0.757-1.906
						C187.735,235.677,187.562,235.639,187.39,235.639z"/>
				</g>
				<g>
					<path style="fill:#455A64;" d="M204.204,232.858c-0.338,0-0.657-0.083-0.947-0.25c-0.761-0.439-1.198-1.413-1.198-2.669
						c0-2.258,1.34-4.8,3.05-5.788c0.822-0.476,1.634-0.527,2.293-0.149c0.761,0.44,1.198,1.413,1.198,2.67
						c0,2.258-1.34,4.8-3.05,5.788C205.09,232.725,204.633,232.858,204.204,232.858z M206.452,224.634
						c-0.328,0-0.652,0.137-0.901,0.281c-1.439,0.831-2.608,3.084-2.608,5.024c0,0.933,0.275,1.628,0.757,1.906
						c0.477,0.275,1.03,0.07,1.41-0.149c1.439-0.831,2.608-3.084,2.608-5.024c0-0.933-0.275-1.628-0.757-1.906
						C206.796,224.671,206.624,224.634,206.452,224.634z"/>
				</g>
				<g>
					<path style="fill:#455A64;" d="M223.265,243.293c-0.338,0-0.657-0.083-0.946-0.25c-0.762-0.439-1.199-1.413-1.199-2.67
						c0-2.258,1.34-4.8,3.05-5.787c0.821-0.476,1.635-0.527,2.293-0.149c0.761,0.44,1.198,1.413,1.198,2.67
						c0,2.258-1.34,4.8-3.05,5.787C224.151,243.159,223.693,243.293,223.265,243.293z M225.512,235.068
						c-0.328,0-0.652,0.137-0.901,0.281c-1.414,0.816-2.608,3.117-2.608,5.023c0,0.934,0.275,1.628,0.757,1.906
						c0.477,0.274,1.029,0.07,1.41-0.149c1.438-0.831,2.608-3.084,2.608-5.023c0-0.933-0.275-1.628-0.757-1.906
						C225.857,235.106,225.684,235.068,225.512,235.068z"/>
				</g>
				<g>
					<path style="fill:#455A64;" d="M242.327,190.851c-0.338,0-0.657-0.083-0.946-0.25c-0.762-0.439-1.199-1.413-1.199-2.67
						c0-2.258,1.34-4.8,3.05-5.787c0.822-0.476,1.635-0.528,2.293-0.149c0.761,0.439,1.198,1.413,1.198,2.669
						c0,2.258-1.34,4.8-3.05,5.787C243.212,190.717,242.754,190.851,242.327,190.851z M244.574,182.626
						c-0.328,0-0.652,0.137-0.901,0.281c-1.439,0.831-2.608,3.085-2.608,5.023c0,0.934,0.275,1.628,0.757,1.906
						c0.477,0.274,1.029,0.07,1.41-0.149c1.439-0.831,2.608-3.084,2.608-5.023c0-0.933-0.275-1.628-0.757-1.906
						C244.918,182.664,244.745,182.626,244.574,182.626z"/>
				</g>
				<g>
					<path style="fill:#455A64;" d="M259.882,200.447c-0.338,0-0.657-0.083-0.947-0.249c-0.761-0.44-1.198-1.413-1.198-2.67
						c0-2.258,1.34-4.8,3.05-5.787c0.823-0.477,1.636-0.528,2.292-0.149c0.762,0.439,1.199,1.413,1.199,2.67
						c0,2.258-1.34,4.8-3.05,5.787C260.768,200.314,260.311,200.447,259.882,200.447z M262.129,192.222
						c-0.328,0-0.651,0.138-0.901,0.282c-1.439,0.831-2.608,3.084-2.608,5.023c0,0.933,0.275,1.628,0.757,1.906
						c0.477,0.275,1.031,0.071,1.41-0.149c1.438-0.831,2.608-3.084,2.608-5.023c0-0.934-0.275-1.628-0.757-1.906
						C262.474,192.26,262.301,192.222,262.129,192.222z"/>
				</g>
				<g>
					<path style="fill:#455A64;" d="M278.944,144.233c-0.338,0-0.657-0.083-0.947-0.249c-0.761-0.44-1.198-1.413-1.198-2.67
						c0-2.258,1.34-4.8,3.05-5.787c0.822-0.476,1.637-0.528,2.292-0.149c0.762,0.439,1.199,1.413,1.199,2.67
						c0,2.258-1.34,4.8-3.05,5.787C279.829,144.1,279.372,144.233,278.944,144.233z M281.191,136.008
						c-0.328,0-0.651,0.138-0.901,0.282c-1.438,0.831-2.608,3.084-2.608,5.023c0,0.933,0.275,1.628,0.757,1.906
						c0.478,0.276,1.03,0.071,1.41-0.149c1.414-0.816,2.608-3.117,2.608-5.023c0-0.934-0.275-1.628-0.757-1.906
						C281.536,136.046,281.363,136.008,281.191,136.008z"/>
				</g>
				<g>
					<path style="fill:#455A64;" d="M299.51,112.298c-0.338,0-0.657-0.083-0.947-0.25c-0.761-0.439-1.198-1.413-1.198-2.669
						c0-2.258,1.34-4.8,3.05-5.788c0.822-0.475,1.634-0.528,2.293-0.149c0.761,0.44,1.198,1.413,1.198,2.67
						c0,2.258-1.34,4.8-3.05,5.788C300.396,112.165,299.939,112.298,299.51,112.298z M301.757,104.073
						c-0.328,0-0.652,0.137-0.901,0.281c-1.439,0.831-2.608,3.085-2.608,5.024c0,0.933,0.275,1.628,0.757,1.906
						c0.477,0.276,1.031,0.07,1.41-0.149c1.439-0.831,2.608-3.085,2.608-5.024c0-0.933-0.275-1.628-0.757-1.906
						C302.102,104.111,301.929,104.073,301.757,104.073z"/>
				</g>
			</g>
		</g>
	</g>
	<g id="Graph_2_">
		<g>
			<g>
				<g>
					<path style="fill:#27DEBF;" d="M319.14,134.749c-0.069,0-0.14-0.017-0.204-0.051c-0.216-0.113-0.3-0.379-0.187-0.595
						l15.061-28.775c0.114-0.216,0.385-0.297,0.595-0.186c0.216,0.113,0.3,0.379,0.186,0.595l-15.06,28.775
						C319.452,134.662,319.298,134.749,319.14,134.749z"/>
				</g>
				<g>
					<path style="fill:#27DEBF;" d="M299.342,196.305c-0.043,0-0.087-0.006-0.13-0.02c-0.232-0.072-0.363-0.318-0.292-0.551
						l16.533-53.633c0.072-0.232,0.319-0.363,0.552-0.292c0.232,0.072,0.363,0.318,0.292,0.551l-16.533,53.633
						C299.706,196.183,299.531,196.305,299.342,196.305z"/>
				</g>
				<g>
					<path style="fill:#27DEBF;" d="M296.078,198.893c-0.093,0-0.186-0.029-0.266-0.089l-15.06-11.385
						c-0.194-0.147-0.233-0.424-0.086-0.618c0.146-0.195,0.426-0.231,0.617-0.086l15.061,11.385
						c0.194,0.147,0.233,0.424,0.086,0.618C296.344,198.833,296.211,198.893,296.078,198.893z"/>
				</g>
				<g>
					<path style="fill:#27DEBF;" d="M261.438,234.212c-0.05,0-0.102-0.009-0.151-0.027c-0.229-0.084-0.347-0.337-0.263-0.565
						l16.099-44.156c0.083-0.229,0.337-0.346,0.565-0.264c0.229,0.083,0.347,0.337,0.263,0.565l-16.099,44.156
						C261.788,234.101,261.618,234.212,261.438,234.212z"/>
				</g>
				<g>
					<path style="fill:#27DEBF;" d="M257.56,237.666c-0.036,0-0.072-0.005-0.108-0.014l-14.268-3.634
						c-0.236-0.06-0.379-0.3-0.319-0.536c0.059-0.237,0.299-0.378,0.536-0.318l14.268,3.634c0.236,0.06,0.379,0.3,0.319,0.536
						C257.937,237.533,257.757,237.666,257.56,237.666z"/>
				</g>
				<g>
					<path style="fill:#27DEBF;" d="M223.386,283.819c-0.048,0-0.097-0.008-0.145-0.024c-0.23-0.08-0.352-0.332-0.272-0.562
						l16.095-46.328c0.08-0.231,0.331-0.352,0.561-0.272c0.23,0.08,0.353,0.331,0.273,0.561l-16.095,46.328
						C223.74,283.705,223.569,283.819,223.386,283.819z"/>
				</g>
				<g>
					<path style="fill:#27DEBF;" d="M219.785,286.458c-0.105,0-0.209-0.037-0.294-0.112l-15.204-13.557
						c-0.182-0.162-0.197-0.441-0.035-0.623c0.163-0.182,0.44-0.197,0.623-0.035l15.204,13.557c0.182,0.162,0.197,0.44,0.035,0.623
						C220.027,286.409,219.906,286.458,219.785,286.458z"/>
				</g>
				<g>
					<path style="fill:#27DEBF;" d="M200.3,270.661c-0.036,0-0.072-0.005-0.108-0.014l-14.156-3.605
						c-0.236-0.061-0.379-0.301-0.319-0.536c0.06-0.237,0.303-0.377,0.536-0.319l14.156,3.605c0.236,0.061,0.379,0.301,0.319,0.536
						C200.677,270.528,200.497,270.661,200.3,270.661z"/>
				</g>
				<g>
					<path style="fill:#27DEBF;" d="M166.413,307.129c-0.058,0-0.116-0.012-0.173-0.035c-0.224-0.096-0.328-0.354-0.233-0.579
						l15.561-36.607c0.096-0.225,0.354-0.327,0.579-0.233c0.224,0.096,0.328,0.355,0.233,0.579l-15.561,36.608
						C166.749,307.029,166.585,307.129,166.413,307.129z"/>
				</g>
				<g>
					<path style="fill:#27DEBF;" d="M148.272,313.497c-0.217,0-0.406-0.161-0.436-0.382c-0.032-0.241,0.137-0.464,0.378-0.497
						l13.653-1.852c0.24-0.024,0.464,0.137,0.497,0.378c0.032,0.241-0.137,0.464-0.378,0.497l-13.653,1.852
						C148.312,313.495,148.292,313.497,148.272,313.497z"/>
				</g>
				<g>
					<path style="fill:#27DEBF;" d="M126.528,350.28c-0.069,0-0.14-0.017-0.204-0.051c-0.216-0.112-0.3-0.379-0.187-0.595
						l17.061-32.598c0.114-0.217,0.385-0.298,0.595-0.186c0.216,0.112,0.3,0.379,0.186,0.595l-17.06,32.598
						C126.839,350.194,126.686,350.28,126.528,350.28z"/>
				</g>
			</g>
			<g>
				<g>
					<path style="fill:#27DEBF;" d="M144.464,317.972c-0.338,0-0.657-0.083-0.946-0.25c-0.762-0.439-1.199-1.413-1.199-2.67
						c0-2.258,1.34-4.8,3.05-5.787c0.822-0.476,1.636-0.528,2.292-0.149c0.762,0.439,1.199,1.413,1.199,2.67
						c0,2.258-1.34,4.8-3.05,5.787C145.35,317.838,144.893,317.972,144.464,317.972z M146.711,309.748
						c-0.328,0-0.652,0.138-0.901,0.281c-1.438,0.831-2.608,3.084-2.608,5.023c0,0.934,0.275,1.628,0.757,1.906
						c0.478,0.275,1.03,0.069,1.41-0.149c1.438-0.831,2.608-3.084,2.608-5.023c0-0.934-0.275-1.628-0.757-1.906
						C147.056,309.785,146.883,309.748,146.711,309.748z"/>
				</g>
				<g>
					<path style="fill:#27DEBF;" d="M182.586,270.669c-0.338,0-0.658-0.083-0.947-0.25c-0.761-0.439-1.198-1.413-1.198-2.67
						c0-2.258,1.34-4.8,3.05-5.787c0.821-0.475,1.637-0.527,2.293-0.148c0.762,0.439,1.198,1.412,1.198,2.669
						c0,2.259-1.34,4.801-3.05,5.787C183.472,270.536,183.014,270.669,182.586,270.669z M184.833,262.445
						c-0.328,0-0.652,0.138-0.901,0.281c-1.438,0.831-2.608,3.084-2.608,5.023c0,0.934,0.275,1.628,0.757,1.906
						c0.477,0.274,1.028,0.071,1.41-0.149c1.438-0.83,2.608-3.083,2.608-5.023c0-0.933-0.275-1.628-0.757-1.905
						C185.178,262.483,185.005,262.445,184.833,262.445z"/>
				</g>
				<g>
					<path style="fill:#27DEBF;" d="M163.526,315.189c-0.338,0-0.657-0.083-0.946-0.25c-0.762-0.439-1.199-1.413-1.199-2.67
						c0-2.257,1.34-4.8,3.049-5.787c0.822-0.476,1.635-0.529,2.292-0.15c0.762,0.44,1.199,1.413,1.199,2.67
						c0,2.259-1.34,4.801-3.05,5.787C164.411,315.055,163.954,315.189,163.526,315.189z M165.772,306.964
						c-0.328,0-0.652,0.138-0.901,0.281c-1.413,0.817-2.607,3.117-2.607,5.023c0,0.934,0.275,1.628,0.757,1.906
						c0.475,0.274,1.028,0.071,1.409-0.149c1.414-0.815,2.608-3.116,2.608-5.023c0-0.934-0.275-1.628-0.757-1.906
						C166.117,307.001,165.944,306.964,165.772,306.964z"/>
				</g>
				<g>
					<path style="fill:#27DEBF;" d="M201.648,275.178c-0.338,0-0.657-0.083-0.946-0.25c-0.762-0.44-1.199-1.413-1.199-2.67
						c0-2.259,1.34-4.801,3.05-5.787c0.822-0.475,1.636-0.529,2.292-0.149c0.762,0.439,1.199,1.413,1.199,2.67
						c0,2.258-1.34,4.8-3.05,5.787C202.534,275.044,202.077,275.178,201.648,275.178z M203.895,266.954
						c-0.328,0-0.652,0.138-0.901,0.281c-1.414,0.815-2.608,3.116-2.608,5.023c0,0.934,0.275,1.628,0.757,1.906
						c0.477,0.275,1.031,0.069,1.41-0.149c1.439-0.831,2.608-3.084,2.608-5.023c0-0.934-0.275-1.628-0.757-1.906
						C204.24,266.991,204.067,266.954,203.895,266.954z"/>
				</g>
				<g>
					<path style="fill:#27DEBF;" d="M220.709,291.98c-0.338,0-0.658-0.083-0.947-0.25c-0.761-0.44-1.198-1.413-1.198-2.67
						c0-2.259,1.34-4.801,3.049-5.787c0.823-0.476,1.637-0.528,2.293-0.149c0.761,0.439,1.198,1.413,1.198,2.67
						c0,2.258-1.34,4.8-3.05,5.787C221.594,291.846,221.137,291.98,220.709,291.98z M222.956,283.755
						c-0.327,0-0.651,0.137-0.901,0.281c-1.414,0.816-2.607,3.116-2.607,5.023c0,0.934,0.275,1.628,0.757,1.905
						c0.476,0.274,1.028,0.07,1.409-0.148c1.438-0.831,2.608-3.084,2.608-5.023c0-0.934-0.275-1.628-0.757-1.906
						C223.3,283.793,223.127,283.755,222.956,283.755z"/>
				</g>
				<g>
					<path style="fill:#27DEBF;" d="M239.77,237.532c-0.338,0-0.657-0.083-0.946-0.25c-0.762-0.439-1.199-1.413-1.199-2.67
						c0-2.258,1.34-4.8,3.05-5.787c0.822-0.476,1.635-0.527,2.293-0.149c0.761,0.44,1.198,1.413,1.198,2.67
						c0,2.258-1.34,4.8-3.05,5.787C240.656,237.398,240.198,237.532,239.77,237.532z M242.017,229.308
						c-0.328,0-0.652,0.137-0.901,0.281c-1.414,0.816-2.608,3.117-2.608,5.023c0,0.934,0.275,1.628,0.757,1.906
						c0.477,0.275,1.029,0.07,1.41-0.149c1.414-0.816,2.608-3.117,2.608-5.023c0-0.933-0.275-1.628-0.757-1.906
						C242.362,229.345,242.189,229.308,242.017,229.308z"/>
				</g>
				<g>
					<path style="fill:#27DEBF;" d="M258.832,242.387c-0.338,0-0.657-0.083-0.947-0.25c-0.761-0.44-1.198-1.413-1.198-2.67
						c0-2.258,1.34-4.8,3.05-5.787c0.823-0.476,1.636-0.528,2.292-0.149c0.762,0.439,1.199,1.413,1.199,2.67
						c0,2.258-1.34,4.8-3.05,5.787C259.717,242.254,259.26,242.387,258.832,242.387z M261.078,234.163
						c-0.328,0-0.651,0.138-0.901,0.282c-1.438,0.831-2.608,3.084-2.608,5.023c0,0.933,0.275,1.628,0.757,1.906
						c0.478,0.276,1.031,0.071,1.41-0.149c1.438-0.83,2.608-3.084,2.608-5.023c0-0.934-0.275-1.628-0.757-1.906
						C261.423,234.201,261.25,234.163,261.078,234.163z"/>
				</g>
				<g>
					<path style="fill:#27DEBF;" d="M277.892,190.107c-0.338,0-0.657-0.083-0.947-0.25c-0.761-0.44-1.198-1.413-1.198-2.67
						c0-2.258,1.34-4.8,3.05-5.787c0.823-0.476,1.637-0.528,2.292-0.149c0.762,0.439,1.199,1.413,1.199,2.67
						c0,2.258-1.34,4.8-3.05,5.787C278.778,189.974,278.321,190.107,277.892,190.107z M280.139,181.882
						c-0.328,0-0.651,0.138-0.901,0.282c-1.414,0.816-2.608,3.117-2.608,5.023c0,0.933,0.275,1.628,0.757,1.906
						c0.477,0.275,1.03,0.07,1.41-0.149c1.414-0.816,2.608-3.117,2.608-5.023c0-0.934-0.275-1.628-0.757-1.906
						C280.484,181.92,280.311,181.882,280.139,181.882z"/>
				</g>
				<g>
					<path style="fill:#27DEBF;" d="M296.953,204.517c-0.338,0-0.657-0.083-0.946-0.25c-0.762-0.44-1.199-1.413-1.199-2.67
						c0-2.258,1.34-4.8,3.05-5.787c0.822-0.476,1.634-0.528,2.293-0.149c0.761,0.439,1.198,1.413,1.198,2.669
						c0,2.258-1.34,4.8-3.05,5.788C297.839,204.384,297.382,204.517,296.953,204.517z M299.201,196.292
						c-0.328,0-0.652,0.137-0.901,0.281c-1.438,0.83-2.608,3.084-2.608,5.023c0,0.934,0.275,1.628,0.757,1.906
						c0.478,0.276,1.031,0.071,1.41-0.149c1.439-0.831,2.608-3.085,2.608-5.024c0-0.933-0.275-1.628-0.757-1.906
						C299.545,196.33,299.372,196.292,299.201,196.292z"/>
				</g>
				<g>
					<path style="fill:#27DEBF;" d="M316.015,142.682c-0.338,0-0.657-0.083-0.947-0.25c-0.761-0.44-1.198-1.413-1.198-2.67
						c0-2.258,1.34-4.8,3.05-5.787c0.823-0.477,1.637-0.528,2.292-0.149c0.762,0.439,1.199,1.413,1.199,2.67
						c0,2.258-1.34,4.8-3.05,5.787C316.901,142.549,316.444,142.682,316.015,142.682z M318.262,134.458
						c-0.328,0-0.651,0.138-0.901,0.282c-1.439,0.831-2.608,3.084-2.608,5.023c0,0.933,0.275,1.628,0.757,1.906
						c0.478,0.275,1.03,0.071,1.41-0.149c1.438-0.831,2.608-3.085,2.608-5.024c0-0.934-0.275-1.628-0.757-1.906
						C318.607,134.496,318.434,134.458,318.262,134.458z"/>
				</g>
				<g>
					<path style="fill:#27DEBF;" d="M335.076,106.262c-0.338,0-0.657-0.083-0.947-0.249c-0.761-0.44-1.198-1.413-1.198-2.67
						c0-2.258,1.34-4.8,3.05-5.787c0.822-0.476,1.637-0.529,2.292-0.149c0.762,0.439,1.199,1.413,1.199,2.67
						c0,2.258-1.34,4.8-3.05,5.787C335.961,106.129,335.504,106.262,335.076,106.262z M337.323,98.038
						c-0.328,0-0.651,0.138-0.901,0.282c-1.439,0.831-2.608,3.084-2.608,5.023c0,0.933,0.275,1.628,0.757,1.906
						c0.478,0.276,1.031,0.071,1.41-0.149c1.439-0.831,2.608-3.084,2.608-5.023c0-0.934-0.275-1.628-0.757-1.906
						C337.667,98.076,337.495,98.038,337.323,98.038z"/>
				</g>
			</g>
		</g>
		<g>
			<polygon style="opacity:0.4;fill:#27DEBF;" points="336.201,121.707 317.14,158.127 298.271,219.34 283.311,208.031 
				279.017,205.552 259.956,257.832 240.895,252.977 222.192,306.812 207.066,293.326 202.773,290.847 183.712,285.991 
				164.65,330.832 145.589,333.416 126.528,369.836 126.528,395.251 130.821,397.73 340.495,276.676 340.495,124.186 			"/>
			<polygon style="opacity:0.3;fill:#27DEBF;" points="130.822,372.315 149.883,335.895 168.944,333.311 188.005,288.47 
				207.066,293.326 226.128,310.321 245.189,255.456 264.25,260.311 283.311,208.031 302.372,222.441 321.433,160.606 
				340.495,124.186 340.495,276.676 130.822,397.73 			"/>
			<polygon style="fill:#27DEBF;" points="126.528,369.836 130.822,372.315 130.822,397.73 126.528,395.251 			"/>
			<polygon style="opacity:0.05;" points="126.528,369.836 130.822,372.315 130.822,397.73 126.528,395.251 			"/>
			<polygon style="opacity:0.3;fill:#27DEBF;" points="164.65,330.832 168.944,333.311 188.005,288.47 183.712,285.991 			"/>
			<polygon style="opacity:0.15;" points="164.65,330.832 168.944,333.311 188.005,288.47 183.712,285.991 			"/>
			<polygon style="opacity:0.3;fill:#27DEBF;" points="145.589,333.416 149.883,335.895 130.822,372.315 126.528,369.836 			"/>
			<polygon style="opacity:0.15;" points="145.589,333.416 149.883,335.895 130.822,372.315 126.528,369.836 			"/>
			<polygon style="opacity:0.3;fill:#27DEBF;" points="245.189,255.456 240.895,252.977 222.192,306.812 226.128,310.321 			"/>
			<polygon style="opacity:0.15;" points="245.189,255.456 240.895,252.977 222.192,306.812 226.128,310.321 			"/>
			<polygon style="opacity:0.3;fill:#27DEBF;" points="259.956,257.832 264.25,260.311 283.311,208.031 279.017,205.552 			"/>
			<polygon style="opacity:0.15;" points="259.956,257.832 264.25,260.311 283.311,208.031 279.017,205.552 			"/>
			<polygon style="opacity:0.3;fill:#27DEBF;" points="321.433,160.606 317.14,158.127 298.271,219.34 302.372,222.441 			"/>
			<polygon style="opacity:0.15;" points="321.433,160.606 317.14,158.127 298.271,219.34 302.372,222.441 			"/>
		</g>
	</g>
</g>
<g id="Arrow_1_">
	<g id="Arrow_2_">
		<polygon style="fill:#27DEBF;" points="357.764,90.554 353.471,88.075 342.737,112.864 347.03,115.343 349.178,114.103 
			349.178,267.214 353.471,269.693 362.058,264.735 362.058,106.667 368.498,102.948 		"/>
		<polygon style="fill:#27DEBF;" points="368.498,102.948 357.764,90.554 347.03,115.343 353.471,111.624 353.471,269.693 
			362.058,264.735 362.058,106.667 		"/>
		<polygon style="opacity:0.15;" points="342.737,112.864 347.03,115.343 357.764,90.554 353.471,88.075 		"/>
		<polygon style="opacity:0.15;" points="349.178,267.214 353.471,269.693 353.471,111.624 349.178,114.103 		"/>
	</g>
</g>
<g id="Plants">
	<g id="Pot">
		<g id="Pot_1_">
			<path id="XMLID_511_" style="fill:#37474F;" d="M67.466,356.531l-37.895-0.008l3.918,22.691h0.005
				c0.299,1.968,1.747,3.889,4.357,5.395c5.893,3.403,15.448,3.403,21.342,0c2.808-1.621,4.262-3.723,4.394-5.847L67.466,356.531z"
				/>
			<path id="XMLID_510_" style="fill:#263238;" d="M63.417,360.456c-8.226,4.748-21.566,4.748-29.792,0
				c-1.643-0.95-2.957-2.02-3.942-3.16l0.957,6.575c0.931,1.053,2.159,2.041,3.687,2.922c7.841,4.522,20.546,4.522,28.386,0
				c1.53-0.884,2.745-1.879,3.678-2.936l0.961-6.553C66.368,358.441,65.056,359.508,63.417,360.456z"/>
			<path id="XMLID_507_" style="fill:#263238;" d="M33.489,379.223h0.005c0.299,1.968,1.747,3.889,4.357,5.396
				c4.211,2.431,10.288,3.115,15.566,2.072c-9.468,0.722-15.967-3.415-16.94-7.227c-0.975-3.821-2.217-18.289-2.217-18.289
				l1.048-4.231l-0.295-0.411l-5.442-0.001L33.489,379.223z"/>
			<path id="XMLID_501_" style="fill:#455A64;" d="M69.436,351.703c-0.196,1.002-0.617,1.992-1.265,2.945
				c-1.021,1.54-2.609,2.982-4.754,4.223c-8.226,4.748-21.566,4.748-29.792,0c-2.145-1.24-3.734-2.683-4.755-4.223
				c-0.642-0.953-1.063-1.943-1.259-2.945h-0.006c-0.733-3.569,1.277-7.291,6.02-10.028c8.225-4.754,21.566-4.754,29.792,0
				C68.159,344.412,70.169,348.134,69.436,351.703z"/>
			<path id="XMLID_500_" style="fill:#37474F;" d="M68.171,354.648c-1.021,1.54-2.609,2.982-4.754,4.223
				c-8.226,4.748-21.566,4.748-29.792,0c-2.145-1.24-3.734-2.683-4.755-4.223c-0.642-0.953-1.063-1.943-1.259-2.945h-0.006
				l0.935,6.423c0.428,2.585,2.353,5.103,5.787,7.083c7.841,4.522,20.546,4.522,28.386,0c3.386-1.956,5.311-4.443,5.769-6.991
				l0.049-0.33l0.904-6.184C69.24,352.705,68.819,353.695,68.171,354.648z"/>
			<path id="XMLID_499_" style="fill:#37474F;" d="M60.935,343.104c-6.857-3.96-17.973-3.96-24.823,0
				c-3.881,2.243-5.561,5.268-5.054,8.189c0.391,2.243,2.078,4.424,5.054,6.142c6.851,3.96,17.967,3.96,24.823,0
				c2.97-1.717,4.657-3.899,5.048-6.136C66.497,348.372,64.816,345.347,60.935,343.104z"/>
			<path id="XMLID_495_" style="fill:#E0E0E0;" d="M32.217,354.008c0.857,1.247,2.148,2.418,3.896,3.427
				c6.851,3.96,17.967,3.96,24.823,0c1.745-1.009,3.035-2.181,3.891-3.428c-0.051-2.371-1.638-4.73-4.771-6.54
				c-6.371-3.68-16.7-3.68-23.065,0C33.857,349.278,32.269,351.639,32.217,354.008z"/>
		</g>
		<g id="Flower_7_">
			<g id="XMLID_485_">
				<path id="XMLID_493_" style="fill:#27DEBF;" d="M48.801,354.646c0,0-3.592-5.172-1.901-10.461
					c1.724-5.39,6.083-8.788,7.682-8.587c1.599,0.201,4.233,5.218,3.097,10.597C56.544,351.574,52.71,354.022,48.801,354.646z"/>
				<path id="XMLID_491_" style="opacity:0.1;" d="M48.801,354.646c0,0-3.592-5.172-1.901-10.461
					c1.724-5.39,6.083-8.788,7.682-8.587c1.599,0.201,4.233,5.218,3.097,10.597C56.544,351.574,52.71,354.022,48.801,354.646z"/>
				<path id="XMLID_490_" style="opacity:0.15;" d="M48.797,354.639c-0.251-9.734,5.782-19.043,5.782-19.043
					c-1.596-0.199-5.957,3.198-7.678,8.59C45.248,349.341,48.629,354.392,48.797,354.639z"/>
			</g>
		</g>
		<g id="Flower_6_">
			<g id="XMLID_462_">
				<path id="XMLID_514_" style="fill:#27DEBF;" d="M48.797,354.639c0,0,0.001-3.09-2.16-4.749c-2.202-1.69-4.91-1.841-5.498-1.313
					c-0.588,0.528-0.247,3.287,1.715,5.138S47.047,355.481,48.797,354.639z"/>
				<path id="XMLID_475_" style="opacity:0.1;" d="M48.797,354.639c0,0,0.001-3.09-2.16-4.749c-2.202-1.69-4.91-1.841-5.498-1.313
					c-0.588,0.528-0.247,3.287,1.715,5.138S47.047,355.481,48.797,354.639z"/>
				<path id="XMLID_472_" style="opacity:0.25;" d="M48.797,354.636c-2.621-3.994-7.657-6.059-7.657-6.059
					c0.588-0.527,3.296-0.377,5.497,1.315C48.746,351.508,48.796,354.489,48.797,354.636z"/>
			</g>
		</g>
	</g>
	<g id="Pot_with_flowerr">
		<g id="Pot_6_">
			<path id="XMLID_983_" style="fill:#37474F;" d="M119.485,394.224l-37.895-0.007l3.918,22.691h0.005
				c0.299,1.968,1.748,3.889,4.357,5.395c5.893,3.403,15.448,3.403,21.342,0c2.808-1.621,4.262-3.723,4.394-5.847L119.485,394.224z"
				/>
			<path id="XMLID_982_" style="fill:#263238;" d="M115.436,398.149c-8.226,4.748-21.566,4.748-29.792,0
				c-1.643-0.95-2.957-2.02-3.942-3.16l0.957,6.575c0.932,1.053,2.159,2.041,3.688,2.922c7.84,4.522,20.546,4.522,28.386,0
				c1.529-0.884,2.745-1.879,3.677-2.936l0.961-6.553C118.388,396.134,117.076,397.201,115.436,398.149z"/>
			<path id="XMLID_981_" style="fill:#263238;" d="M85.509,416.916h0.005c0.299,1.968,1.748,3.889,4.357,5.395
				c4.211,2.431,10.288,3.116,15.566,2.072c-9.468,0.722-15.967-3.415-16.94-7.227c-0.975-3.821-2.217-18.289-2.217-18.289
				l1.048-4.231l-0.295-0.41l-5.442-0.001L85.509,416.916z"/>
			<path id="XMLID_980_" style="fill:#455A64;" d="M121.456,389.395c-0.196,1.002-0.617,1.992-1.265,2.945
				c-1.021,1.54-2.61,2.982-4.755,4.223c-8.226,4.748-21.566,4.748-29.792,0c-2.145-1.24-3.734-2.683-4.755-4.223
				c-0.642-0.953-1.063-1.943-1.259-2.945h-0.006c-0.733-3.569,1.277-7.291,6.02-10.028c8.226-4.754,21.566-4.754,29.792,0
				C120.179,382.105,122.189,385.826,121.456,389.395z"/>
			<path id="XMLID_979_" style="fill:#37474F;" d="M120.191,392.341c-1.021,1.54-2.61,2.982-4.755,4.223
				c-8.226,4.748-21.566,4.748-29.792,0c-2.145-1.24-3.734-2.683-4.755-4.223c-0.642-0.953-1.063-1.943-1.259-2.945h-0.006
				l0.935,6.423c0.428,2.585,2.353,5.103,5.787,7.083c7.84,4.522,20.546,4.522,28.386,0c3.386-1.956,5.31-4.443,5.769-6.991
				l0.049-0.33l0.904-6.184C121.26,390.397,120.839,391.387,120.191,392.341z"/>
			<path id="XMLID_978_" style="fill:#37474F;" d="M112.955,380.797c-6.857-3.96-17.973-3.96-24.823,0
				c-3.881,2.243-5.561,5.268-5.054,8.189c0.391,2.243,2.078,4.424,5.054,6.142c6.85,3.96,17.967,3.96,24.823,0
				c2.97-1.717,4.657-3.899,5.048-6.136C118.516,386.065,116.836,383.04,112.955,380.797z"/>
			<path id="XMLID_977_" style="fill:#E0E0E0;" d="M84.237,391.7c0.857,1.247,2.147,2.418,3.896,3.427
				c6.85,3.96,17.967,3.96,24.823,0c1.745-1.009,3.035-2.181,3.891-3.428c-0.051-2.371-1.638-4.73-4.771-6.541
				c-6.371-3.679-16.7-3.679-23.065,0C85.877,386.971,84.289,389.331,84.237,391.7z"/>
		</g>
		<g id="Flower_21_">
			<g id="XMLID_974_">
				<path id="XMLID_976_" style="fill:#27DEBF;" d="M100.541,379.444c0,0,0.749-6.612,5.777-9.636
					c5.124-3.082,10.955-2.745,12.086-1.472s-0.271,7.095-4.921,10.578C108.833,382.398,104.082,381.672,100.541,379.444z"/>
				<path id="XMLID_975_" style="opacity:0.15;" d="M100.543,379.437c6.581-7.909,17.859-11.104,17.859-11.104
					c-1.129-1.27-6.961-1.609-12.084,1.477C101.413,372.755,100.581,379.123,100.543,379.437z"/>
			</g>
		</g>
		<path style="fill:#263238;" d="M101.917,391.911c-0.43-0.087-0.897-0.398-1.14-0.647c-0.313-0.268-0.552-0.579-0.721-0.874
			c-0.403-0.615-0.53-1.267-0.714-1.913c-0.301-1.284-0.558-2.563-0.718-3.845c-0.333-2.562-0.473-5.132-0.39-7.698
			c0.079-2.566,0.367-5.121,0.777-7.655c0.455-2.528,1.102-5.032,1.914-7.467c1.618-4.658,2.974-9.408,3.765-14.255
			c0.796-4.838,0.906-9.822-0.219-14.685l0.205-0.063c0.899,2.345,1.43,4.837,1.723,7.354c0.268,2.523,0.24,5.072,0.058,7.602
			c-0.374,5.07-1.539,10.02-2.858,14.885c-1.295,4.661-1.833,9.509-1.873,14.353c-0.022,2.421,0.06,4.845,0.283,7.239
			c0.115,1.197,0.262,2.382,0.471,3.538c0.123,0.562,0.256,1.132,0.276,1.693c0.014,0.616-0.056,1.09-0.214,1.81L101.917,391.911z"
			/>
		<g id="Flower_20_">
			<g id="XMLID_971_">
				<path id="XMLID_973_" style="fill:#27DEBF;" d="M99.202,378.413c0,0,0.778-8.007-4.407-12.848
					c-5.284-4.933-12.263-6.002-13.92-4.78c-1.657,1.221-2.068,10.038,2.554,15.326C88.05,381.399,95.977,380.813,99.202,378.413z"
					/>
				<path id="XMLID_972_" style="opacity:0.15;" d="M99.202,378.404c-5.793-11.008-18.325-17.622-18.325-17.622
					c1.655-1.217,8.636-0.151,13.918,4.786C99.854,370.284,99.236,378.023,99.202,378.404z"/>
			</g>
		</g>
		<g id="XMLID_829_">
			<g id="XMLID_5697_">
				<path id="XMLID_6629_" style="fill:#FFA8A7;" d="M104.044,330.416c0,0,2.173-0.695,4.458-2.827s4.724-6.993,5.249-11.66
					c0.525-4.667-1.18-10.432-2.024-11.275c-0.844-0.843-2.268-0.629-2.268-0.629s-1.163-1.411-3.1-1.711
					c-1.937-0.3-3.289-0.101-4.372,1.096c-1.083,1.197-1.408,1.732-2.332,2.711c-0.924,0.978-2.318,4.238-2.296,8.247
					C97.377,318.092,99.195,326.04,104.044,330.416z"/>
				<path style="fill:#F28F8F;" d="M110.008,313.596c-0.065-0.124-0.293-0.005-0.32,0.091c-0.237,0.825,0.038,1.816,0.02,2.692
					c-0.018,0.899-0.079,1.811-0.148,2.705c-0.18,2.326-1.347,4.033-2.329,6.072c-0.216,0.45-0.546,1.121-0.875,1.891
					c-0.101-2.309,0.682-4.973,0.887-6.903c0.406-3.808,0.764-7.095-1-10.561c-0.071-0.139-0.436-0.054-0.396,0.114
					c0.961,4.038,0.165,8.41-0.436,12.487c-0.141,0.955-0.45,2.49-0.557,4.046c-0.717-1.197-1.536-2.364-2.125-3.476
					c-1.167-2.204-0.988-5.017-0.914-7.46c0.056-1.849,0.327-3.123-0.703-4.715c-0.07-0.109-0.287-0.011-0.309,0.092
					c-0.133,0.629,0.023,1.193,0.035,1.83c0.018,0.967-0.174,1.908-0.238,2.874c-0.117,1.75-0.255,3.613-0.018,5.36
					c0.249,1.839,1.196,3.481,2.08,5.083c0.615,1.113,1.246,1.935,1.715,3.147c0.168,0.434,0.253,0.827,0.288,1.2
					c0.675-0.298,1.826-0.897,3.103-1.942c0.793-1.969,2.11-3.857,2.75-5.79C111.376,319.845,111.286,316.03,110.008,313.596z"/>
				<path style="opacity:0.6;fill:#FFFFFF;" d="M113.751,315.929c0.525-4.667-1.18-10.432-2.024-11.275
					c-0.845-0.843-2.268-0.629-2.268-0.629s-1.162-1.411-3.1-1.711c-1.666-0.258-2.897-0.142-3.898,0.655
					c0.69-0.186,1.392-0.322,2.104-0.319c0.99,0.005,2.012,0.302,2.721,0.992c0.328,0.319,0.578,0.709,0.89,1.044
					c0.311,0.335,0.713,0.626,1.17,0.651c0.216,0.012,0.432-0.036,0.648-0.032c0.442,0.009,0.858,0.241,1.17,0.555
					c0.311,0.314,0.532,0.706,0.73,1.102c0.521,1.04,0.915,2.143,1.172,3.277c0.24,1.056,0.249,2.094,0.365,3.162
					c0.141,1.291,0.156,2.586,0.112,3.881C113.626,316.83,113.7,316.379,113.751,315.929z"/>
				<g>
					<path id="XMLID_6677_" style="fill:#F28F8F;" d="M97.357,314.368c-0.021-4.009,1.372-7.269,2.296-8.247
						c0.732-0.775,1.094-1.277,1.748-2.045c-0.778,0.945-1.067,1.853-0.585,3.9c0.485,2.06,0.867,3.726,0.53,6.158
						c-0.484,3.497-1.168,8.859,2.697,16.283C99.195,326.04,97.377,318.092,97.357,314.368z"/>
					<path style="opacity:0.6;fill:#FFFFFF;" d="M101.347,314.133c0.337-2.432-0.045-4.098-0.53-6.158
						c-0.482-2.047-0.193-2.955,0.585-3.9c-0.504,0.592-0.838,1.028-1.298,1.55c-0.188,0.897-0.2,1.863-0.171,2.393
						c0.052,0.933,0.332,1.773,0.446,2.68c0.209,1.665-0.309,3.262-0.499,4.885c-0.337,2.892-0.025,5.564,0.852,8.342
						c0.329,1.042,0.943,2.762,1.961,3.524C100.373,321.544,100.93,317.145,101.347,314.133z"/>
				</g>
			</g>
			<g>
				<path id="XMLID_6599_" style="fill:#FFC4C3;" d="M109.656,334.186c0,0,3.174,2.998,8.249,3.269
					c5.075,0.272,8.486-2.153,10.053-5.07c1.567-2.917,2.479-3.819,3.211-5.924c0.732-2.104,0.025-3.698-0.161-4.831
					c-0.186-1.133-0.107-2.941-0.992-4.062c-0.885-1.12-2.786-0.928-4.804-1.862s-5.636-1.93-8.253-0.68
					c-2.617,1.251-8.68,8.515-9.905,13.749L109.656,334.186z"/>
				<path style="fill:#FFA8A7;" d="M123.062,331.052c-3.413-0.796-6.751-0.428-10.099,0.451c-0.804,0.211-1.854,0.554-2.859,1.024
					c0.049-0.083,0.095-0.168,0.15-0.248c0.935-1.34,2.156-2.303,3.411-3.331c2.903-2.374,6.58-5.445,10.407-6.032
					c0.24-0.037,0.359-0.333,0.046-0.352c-4.012-0.24-7.674,2.023-10.695,4.434c-1.442,1.151-3.127,2.486-4.32,4.08
					c0.404-1.264,1.024-2.505,1.646-3.636c1.362-2.479,3.527-5.308,5.797-7.04c0.204-0.156-0.094-0.27-0.239-0.17
					c-2.519,1.722-4.823,3.066-6.487,5.745c-0.665,1.07-1.521,2.575-2.114,4.151l1.951,4.057c0,0,0.138,0.128,0.391,0.329
					c0.115-0.082,0.229-0.158,0.341-0.221c0.81-0.458,1.686-0.818,2.551-1.152c3.213-1.239,6.595-1.716,10.011-1.897
					C123.035,331.24,123.23,331.092,123.062,331.052z"/>
				<path style="opacity:0.6;fill:#FFFFFF;" d="M131.008,321.631c-0.186-1.133-0.107-2.941-0.992-4.062
					c-0.885-1.12-2.786-0.928-4.804-1.862c-2.018-0.934-5.636-1.931-8.253-0.68c-0.524,0.251-1.19,0.751-1.924,1.419
					c1.247-0.637,2.542-1.196,3.925-1.325c2.307-0.214,3.811,1.211,5.932,1.779c1.197,0.32,2.882,0.304,3.966,0.86
					c1.497,0.768,1.404,2.977,1.848,4.359c0.202,0.629,0.438,1.147,0.729,1.571C131.325,322.884,131.101,322.199,131.008,321.631z"
					/>
				<path style="opacity:0.6;fill:#FFFFFF;" d="M130.417,328.166c-1.268,0.841-2.245,2.118-3.254,3.359
					c-1.193,1.468-2.262,2.809-4.156,3.405c-1.245,0.391-2.314,0.439-3.348,1.282c-0.201,0.163,0.173,1.214,0.311,1.202
					c2.598-0.223,4.196-1.076,5.676-2.251c0.988-0.804,1.765-1.759,2.312-2.777C129.038,330.373,129.804,329.317,130.417,328.166z"
					/>
			</g>
			<g id="XMLID_5001_">
				<path id="XMLID_6597_" style="fill:#FFA8A7;" d="M109.656,334.186c0.394-0.179,1.149-0.072,1.567-0.081
					c1.424-0.03,2.851,0.031,4.269,0.162c3.461,0.322,6.661,1.493,9.081,4.104c1.534,1.655,2.636,3.678,3.394,5.803
					c0.554,1.554,0.93,3.263,0.454,4.843c-0.475,1.58-2.047,2.925-3.673,2.643c0.285,0.049,0.102,1.824-0.223,2.042
					c-0.739,0.498-1.841,0.317-3.278,0.802c-1.436,0.485-5.469,2.63-8.641-3.687c-3.172-6.317-7.776-14.44-7.776-14.44
					S109.651,334.188,109.656,334.186z"/>
				<path style="fill:#F28F8F;" d="M113.645,336.013c-1.914-0.482-4.116-0.908-6.222-0.813c-1.263,0.574-2.592,1.178-2.592,1.178
					s0.372,0.657,0.965,1.719c0.012,0.001,0.026,0.001,0.038,0.002c1.46,0.116,2.849,0.394,4.174,1.035
					c2.173,1.052,4.178,3.233,5.398,5.279c0.059,0.098,0.339-0.008,0.285-0.121c-1.247-2.568-2.792-5.064-5.287-6.651
					c-0.573-0.365-1.162-0.625-1.765-0.822c1.186,0.008,2.419,0.109,3.547,0.3c3.643,0.616,7.446,3.178,9.679,6.134
					c0.065,0.086,0.323-0.006,0.274-0.12C120.804,340.068,116.842,336.818,113.645,336.013z"/>
				<path style="opacity:0.6;fill:#FFFFFF;" d="M127.967,344.175c-0.758-2.125-1.86-4.149-3.394-5.803
					c-2.421-2.612-5.62-3.783-9.081-4.104c-0.567-0.053-1.137-0.085-1.706-0.114c2.972,0.707,5.119,1.151,7.683,2.83
					c0.613,0.402,1.68,1.465,2.219,1.962c1.19,1.098,2.029,2.521,2.691,3.985c0.556,1.229,0.957,2.545,1.079,3.892
					c0.095,1.049-0.124,2.105-0.548,3.064c-0.375,0.848-1.262,1.522-2.161,1.775c1.625,0.282,3.197-1.063,3.673-2.643
					C128.897,347.439,128.522,345.729,127.967,344.175z"/>
				<path id="XMLID_6594_" style="fill:#F28F8F;" d="M113.763,352.717c1.879,1.447,4.009,0.779,6.048,0.598
					c2.04-0.181,4.017,0.675,4.716,0.388c-0.739,0.498-1.841,0.317-3.278,0.802C119.982,354.934,116.697,356.648,113.763,352.717z"
					/>
			</g>
			<g>
				<path id="XMLID_6586_" style="fill:#FAFAFA;" d="M104.359,328.478c0,0,0.795-1.077,2.833-0.228
					c2.038,0.849,3.361,4.615,2.587,6.496c-0.774,1.881-2.705,3.074-4.826,2.336C102.832,336.344,102.319,330.401,104.359,328.478z"
					/>
				<path style="fill:#E0E0E0;" d="M109.115,335.848c-0.391,0.142-0.877,0.298-1.38,0.407c-0.047-0.012-0.095-0.02-0.14-0.038
					c-1.386-0.573-0.705-1.151-1.057-1.944c-0.253-0.57-0.764-1.168-0.89-1.766c-0.159-0.756,0.028-2.221,0.183-2.909
					c0.229-1.02,0.66-1.248,1.357-1.349c-2.035-0.845-2.829,0.23-2.829,0.23c-0.096,0.09-0.18,0.197-0.265,0.304
					c-0.252,0.768-0.115,1.522-0.058,2.333c0.057,0.821-0.099,1.647,0.144,2.448c0.047,0.153,0.126,0.312,0.217,0.471
					c-0.253,0.099-0.469,0.324-0.537,0.651c-0.091,0.443-0.084,0.908,0.002,1.355c0.292,0.511,0.655,0.89,1.091,1.042
					C106.616,337.661,108.152,337.044,109.115,335.848z"/>
			</g>
			<g id="XMLID_915_">
				<path id="XMLID_6585_" style="fill:#F28F8F;" d="M104.831,336.379c2.643,0.56,5.195,4.331,6.307,6.936
					c1.112,2.605,1.612,5.858,1.436,8.846c-0.176,2.988-2.069,3.251-2.069,3.251s-0.225,2.565-1.652,3.774
					c-1.426,1.209-2.552,2.164-4.368,1.316c-1.815-0.848-3.029-1.367-5.09-5.167c-2.061-3.8-4.749-5.069-2.79-11.052
					C98.565,338.299,104.831,336.379,104.831,336.379z"/>
				<path style="opacity:0.1;" d="M105.845,336.747c-0.335-0.169-0.674-0.297-1.014-0.369c0,0-0.506,0.159-1.262,0.511
					c0.064,0.029,0.131,0.055,0.195,0.084c-0.025,0.387-0.071,0.778-0.193,1.187c-0.381,1.28-1.118,2.325-1.927,3.37
					c-1.128,1.457-2.287,2.566-3.937,3.438c-0.465,0.245-0.952,0.386-1.443,0.508c-0.179,0.722-0.278,1.365-0.314,1.952
					c2.447,0,5.224-2.522,6.517-4.135c0.842-1.05,2.028-2.606,2.622-4.207c0.273,0.548,0.521,1.105,0.715,1.651
					c0.783,2.204,1.021,4.977,0.891,7.29c-0.093,1.654,0.104,3.383-0.306,4.997c-0.039,0.154,0.295,0.117,0.337,0.001
					c1.536-4.282,1.692-9.476,0.01-13.853c0.4,0.457,0.768,0.957,1.1,1.514c1.029,1.728,2.255,3.866,2.217,5.93
					c-0.003,0.131,0.251,0.058,0.261-0.05c0.223-2.231-1.026-4.877-2.088-6.801C107.682,338.781,106.852,337.598,105.845,336.747z"
					/>
				<path style="opacity:0.6;fill:#FFFFFF;" d="M112.574,352.161c0.097-1.646-0.019-3.37-0.321-5.024
					c0.066,1.187,0.073,2.377-0.035,3.56c-0.098,1.061-0.307,2.199-1.08,2.932c-0.669,0.634-1.583,0.979-1.904,1.909
					c-0.355,1.028-0.418,2.142-1.048,3.064c-0.82,1.2-1.711,1.809-2.719,2.183c1.277,0.166,2.237-0.626,3.386-1.6
					c1.426-1.209,1.652-3.774,1.652-3.774S112.398,355.148,112.574,352.161z"/>
				<path id="XMLID_6582_" style="fill:#B16668;" d="M97.621,352.56c1.139,0.95,2.951,0.986,4.557,3.213
					c1.606,2.227,2.493,5.142,5.006,4.661c-0.795,0.438-1.626,0.568-2.698,0.068c-1.815-0.848-3.029-1.367-5.09-5.167
					C98.815,354.263,98.184,353.392,97.621,352.56L97.621,352.56z"/>
			</g>
			<g id="XMLID_914_">
				<g id="XMLID_6580_">
					<path id="XMLID_6666_" style="fill:#FFC4C3;" d="M104.434,332.548c0,0,0.561-0.923-0.39-2.132c0,0,0.901-1.137-0.13-3.321
						c-1.031-2.184-5.193-6.565-10.405-6.025c-5.213,0.54-5.397,4.204-5.333,7.913c0.06,3.416-0.578,5.567-0.078,8.76
						c0.398,2.546,1.436,6.094,4.385,7.548c2.949,1.454,5.267,0.757,8.352-2.381c3.085-3.138,4.071-6.286,4.276-7.804
						C105.317,333.589,104.434,332.548,104.434,332.548z"/>
					<g>
						<path style="fill:#FFA8A7;" d="M95.865,326.899c-0.174,0.003-0.404,0.249-0.129,0.297c2.35,0.408,4.537,1.075,6.648,2.169
							c0.723,0.375,1.272,0.812,1.811,1.278c-0.049-0.076-0.089-0.149-0.15-0.228c0,0,0.403-0.536,0.347-1.557
							c-0.616-0.396-1.275-0.744-1.95-1.083C100.176,326.637,98.293,326.856,95.865,326.899z"/>
						<path style="fill:#FFA8A7;" d="M105.064,333.95c-0.181-0.861-0.63-1.402-0.63-1.402s0.038-0.065,0.077-0.178
							c-0.773,1.059-1.806,1.911-2.825,2.705c-1.819,1.418-4.305,3.286-6.559,3.893c-0.152,0.041-0.152,0.232,0.022,0.202
							C98.538,338.598,102.729,336.845,105.064,333.95z"/>
					</g>
					<path style="opacity:0.6;fill:#FFFFFF;" d="M90.853,344.084c0.469,0.474,0.997,0.896,1.629,1.207
						c2.949,1.454,5.267,0.757,8.352-2.381c3.085-3.137,4.071-6.286,4.276-7.804c0.071-0.521,0.009-0.98-0.097-1.365
						c-0.086,0.793-0.376,2.173-0.427,2.339c-0.299,0.957-0.757,1.865-1.355,2.67c-1.256,1.69-2.738,3.126-4.469,4.339
						c-1.171,0.819-2.493,1.567-3.94,1.715C93.463,344.942,92.113,344.597,90.853,344.084z"/>
					<path style="opacity:0.6;fill:#FFFFFF;" d="M93.508,321.07c-1.354,0.14-2.363,0.494-3.122,1.002
						c-0.078,0.098-0.132,0.197-0.143,0.298c-0.023,0.204,0.346,0.187,0.414,0.045c0.031-0.063,2.171-0.253,2.513-0.277
						c1.038-0.075,2.118,0.115,3.147,0.243c2.448,0.305,3.863,1.534,5.603,3.188c0.813,0.773,1.544,1.583,2.288,2.277
						c-0.074-0.235-0.169-0.485-0.295-0.751C102.882,324.91,98.721,320.53,93.508,321.07z"/>
				</g>
				<path id="XMLID_6572_" style="fill:#FFA8A7;" d="M93.508,321.069c0.459-0.047,0.908-0.055,1.349-0.031
					c-1.821,0.402-3.168,1.545-3.255,4.045c-0.087,2.502,1.21,4.759,0.847,7.417c-0.362,2.654-4.067,6.964-2.356,10.703
					c-1.187-1.664-1.733-3.779-1.996-5.46c-0.5-3.193,0.138-5.345,0.078-8.76C88.111,325.274,88.296,321.609,93.508,321.069z"/>
				<path style="fill:#FFFFFF;" d="M94.21,321.205c-0.135,0.11-0.604,0.093-0.796,0.185c-0.235,0.113-0.447,0.281-0.659,0.436
					c-0.459,0.336-0.876,0.737-1.195,1.21c-0.532,0.789-0.74,1.865-0.696,2.805c0.065,1.378,0.436,2.705,0.738,4.043
					c0.851,3.769-2.938,7.658-1.952,11.246c-0.031-3.172,2.504-6.457,2.8-8.63c0.363-2.658-0.934-4.915-0.848-7.417
					c0.075-2.177,1.108-3.324,2.576-3.85C94.189,321.225,94.199,321.214,94.21,321.205z"/>
			</g>
		</g>
	</g>
</g>
<g id="Magnifying_glass">
	<g id="Glass_2_">
		<g id="XMLID_114_">
			<path id="XMLID_127_" style="fill:#27DEBF;" d="M377.251,364.947c0-8.079-5.339-16.159-16.015-22.323
				c-21.354-12.329-55.975-12.329-77.329,0c-10.677,6.164-16.015,14.243-16.015,22.323l0,0v14.883
				c0,8.079,5.339,16.158,16.016,22.322c21.354,12.329,55.975,12.329,77.329,0c10.677-6.164,16.015-14.243,16.015-22.322V364.947
				L377.251,364.947z M286.55,347.204c9.536-5.506,22.328-8.538,36.02-8.538c13.692,0,26.484,3.032,36.021,8.538
				c8.623,4.978,13.371,11.28,13.371,17.744c0,6.463-4.749,12.764-13.371,17.743c-9.536,5.506-22.328,8.538-36.021,8.538
				c-13.691,0-26.483-3.032-36.02-8.538c-8.622-4.978-13.371-11.279-13.371-17.743C273.18,358.484,277.927,352.182,286.55,347.204z"
				/>
			<path id="XMLID_124_" style="opacity:0.3;fill:#FFFFFF;" d="M283.903,387.27c21.354,12.328,55.975,12.328,77.329,0
				c21.354-12.328,21.354-32.317,0-44.646c-21.354-12.329-55.975-12.329-77.329,0C262.55,354.953,262.55,374.942,283.903,387.27z
				 M273.176,364.948c0-6.464,4.748-12.766,13.371-17.744c9.536-5.506,22.329-8.538,36.021-8.538c13.692,0,26.484,3.032,36.02,8.538
				c8.623,4.978,13.371,11.28,13.371,17.744c0,6.463-4.749,12.764-13.371,17.743c-9.537,5.506-22.329,8.538-36.02,8.538
				c-13.692,0-26.485-3.032-36.021-8.538C277.925,377.712,273.176,371.411,273.176,364.948z"/>
			<g id="XMLID_117_">
				<path id="XMLID_119_" style="fill:#27DEBF;" d="M273.172,364.946c0,2.538,0.73,5.034,2.136,7.445
					c2.168-3.754,5.986-7.276,11.242-10.301c9.529-5.51,22.326-8.545,36.022-8.545c13.685,0,26.483,3.035,36.012,8.545
					c5.256,3.025,9.074,6.547,11.253,10.301c1.396-2.411,2.126-4.907,2.126-7.445c0-6.462-4.749-12.765-13.379-17.747
					c-9.529-5.499-22.326-8.535-36.012-8.535c-13.696,0-26.493,3.035-36.022,8.535C277.921,352.181,273.172,358.484,273.172,364.946
					z"/>
				<path id="XMLID_118_" style="opacity:0.1;" d="M273.172,364.946c0,2.538,0.73,5.034,2.136,7.445
					c2.168-3.754,5.986-7.276,11.242-10.301c9.529-5.51,22.326-8.545,36.022-8.545c13.685,0,26.483,3.035,36.012,8.545
					c5.256,3.025,9.074,6.547,11.253,10.301c1.396-2.411,2.126-4.907,2.126-7.445c0-6.462-4.749-12.765-13.379-17.747
					c-9.529-5.499-22.326-8.535-36.012-8.535c-13.696,0-26.493,3.035-36.022,8.535C277.921,352.181,273.172,358.484,273.172,364.946
					z"/>
			</g>
			<path id="XMLID_116_" style="opacity:0.4;fill:#FFFFFF;" d="M286.547,353.942c9.536-5.506,22.329-8.538,36.021-8.538
				c13.692,0,26.484,3.032,36.02,8.538c7.115,4.108,11.583,9.117,12.931,14.374c-1.348,5.257-5.817,10.266-12.931,14.374
				c-9.537,5.506-22.329,8.538-36.02,8.538c-13.692,0-26.485-3.032-36.021-8.538c-7.115-4.108-11.583-9.117-12.931-14.374
				C274.964,363.059,279.432,358.05,286.547,353.942z"/>
			<path id="XMLID_115_" style="opacity:0.1;" d="M309.684,395.638v14.87c-9.444-1.311-18.402-4.093-25.774-8.355
				c-10.682-6.166-16.023-14.246-16.023-22.326v-14.88c0-1.629,0.222-3.257,0.656-4.876h0.011
				c-2.591,9.614,2.528,19.788,15.356,27.202C291.282,391.534,300.24,394.316,309.684,395.638z"/>
		</g>
		<g id="XMLID_104_">
			<g id="XMLID_111_">
				<path id="XMLID_113_" style="fill:#37474F;" d="M285.532,396.744c0.01-2.443-1.693-5.421-3.804-6.651
					c-1.05-0.612-2.002-0.675-2.697-0.284l-0.001-0.002l-0.01,0.005l-0.002,0.001l-18.406,10.505
					c-0.004,0.003-0.008,0.005-0.013,0.007l-0.004,0.002l0,0.001c-0.689,0.4-1.118,1.253-1.123,2.468
					c-0.01,2.443,1.693,5.421,3.804,6.652c1.056,0.615,2.013,0.677,2.708,0.279l0,0l18.404-10.502l-0.001-0.002
					C285.09,398.828,285.527,397.971,285.532,396.744z"/>
				<path id="XMLID_112_" style="fill:#263238;" d="M284.389,399.223c0.701-0.395,1.138-1.252,1.143-2.479
					c0.004-0.921-0.237-1.917-0.65-2.868l-23.736,13.574c0.608,0.831,1.341,1.537,2.131,1.997c1.056,0.615,2.013,0.677,2.708,0.279
					l18.404-10.502L284.389,399.223z"/>
			</g>
			<path id="XMLID_110_" style="fill:#27DEBF;" d="M266.384,409.395c0.013-3.18-2.204-7.055-4.951-8.657
				c-1.347-0.785-2.567-0.869-3.467-0.384l-0.004-0.007l-0.052,0.027c-0.001,0.001-0.002,0.001-0.003,0.002l-61.042,32.601
				l9.107,16.096l58.929-36.453C265.811,412.104,266.377,410.989,266.384,409.395z"/>
			<path id="XMLID_109_" style="opacity:0.1;" d="M205.973,449.073l58.929-36.453c0.908-0.516,1.474-1.632,1.481-3.226
				c0.007-1.707-0.641-3.605-1.656-5.254l-63.45,36.633L205.973,449.073z"/>
			<g id="XMLID_107_">
				<path id="XMLID_108_" style="fill:#27DEBF;" d="M201.37,448.589c-3.603-2.098-6.51-7.18-6.493-11.353
					c0.017-4.172,2.952-5.853,6.555-3.753c3.603,2.1,6.51,7.183,6.493,11.353C207.907,449.007,204.973,450.687,201.37,448.589z"/>
			</g>
			<g id="XMLID_105_" style="opacity:0.2;">
				<path id="XMLID_106_" d="M201.37,448.589c-3.603-2.098-6.51-7.18-6.493-11.353c0.017-4.172,2.952-5.853,6.555-3.753
					c3.603,2.1,6.51,7.183,6.493,11.353C207.907,449.007,204.973,450.687,201.37,448.589z"/>
			</g>
		</g>
	</g>
</g>
<g id="Gears">
	<g id="Gears_1_">
		<g id="XMLID_4018_">
			<path style="fill:#27DEBF;" d="M59.085,136.788c-0.138,0-0.274-0.01-0.408-0.031l-4.116-0.638
				c-0.678-0.106-1.268-0.484-1.619-1.039c-0.35-0.554-0.439-1.248-0.243-1.904l2.254-7.607c0.138-0.465-0.112-1.193-0.544-1.59
				c-0.437-0.403-0.848-0.845-1.227-1.316c-0.214-0.264-0.593-0.438-0.93-0.188l-5.149,3.898c-0.587,0.443-1.273,0.574-1.871,0.359
				c-0.602-0.216-1.046-0.749-1.218-1.463l-1.402-5.809c-0.279-1.162,0.131-2.691,0.956-3.557l5.06-5.311
				c0.441-0.461,0.856-1.476,0.89-2.172c0.062-1.312,0.205-2.682,0.426-4.073c0.07-0.443-0.223-0.957-0.629-1.1l-3.246-1.138
				c-0.635-0.222-1.142-0.679-1.429-1.285c-0.286-0.607-0.315-1.289-0.083-1.922l3.131-8.483c0.437-1.189,1.724-2.104,2.995-2.125
				l3.922-0.066c0.555-0.009,1.326-0.471,1.619-0.967c0.825-1.398,1.708-2.743,2.625-4c0.397-0.544,0.674-1.576,0.593-2.207
				l-0.745-5.76c-0.152-1.176,0.397-2.661,1.282-3.453l5.762-5.182c0.541-0.487,1.209-0.674,1.833-0.527
				c0.624,0.153,1.13,0.631,1.385,1.313l1.674,4.463c0.054,0.146,0.142,0.244,0.259,0.29c0.131,0.054,0.299,0.039,0.462-0.042
				c0.854-0.413,1.715-0.761,2.56-1.037c0.638-0.208,1.403-0.856,1.637-1.387l3.334-7.522c0.524-1.179,1.933-1.948,3.206-1.751
				l4.118,0.638c0.678,0.106,1.267,0.484,1.617,1.039c0.35,0.554,0.441,1.248,0.245,1.904l-2.254,7.607
				c-0.138,0.465,0.111,1.193,0.542,1.591c0.435,0.398,0.848,0.841,1.229,1.316c0.216,0.267,0.596,0.441,0.93,0.189l5.147-3.899
				c0.586-0.444,1.269-0.574,1.873-0.359c0.602,0.216,1.046,0.749,1.219,1.463l1.4,5.808c0.281,1.163-0.129,2.692-0.957,3.559
				l-5.057,5.31c-0.442,0.462-0.858,1.476-0.89,2.17c-0.063,1.329-0.209,2.7-0.426,4.075c-0.073,0.444,0.221,0.958,0.627,1.1
				l3.247,1.138c0.636,0.223,1.144,0.68,1.429,1.286c0.286,0.607,0.315,1.29,0.081,1.923l-3.129,8.482
				c-0.441,1.19-1.728,2.104-2.997,2.125l-3.922,0.066c-0.553,0.009-1.325,0.47-1.619,0.969c-0.819,1.391-1.704,2.736-2.625,3.998
				c-0.397,0.545-0.674,1.576-0.591,2.206l0.745,5.762c0.15,1.176-0.399,2.66-1.28,3.452l-5.764,5.183
				c-0.542,0.487-1.208,0.682-1.835,0.526c-0.624-0.152-1.128-0.631-1.383-1.312l-1.674-4.463c-0.054-0.146-0.142-0.244-0.259-0.29
				c-0.134-0.054-0.297-0.042-0.463,0.042c-0.857,0.413-1.717,0.762-2.558,1.037c-0.638,0.208-1.405,0.856-1.643,1.388l-3.332,7.522
				C61.415,136.062,60.24,136.788,59.085,136.788z M52.607,120.523c0.736,0,1.472,0.342,1.998,0.995
				c0.328,0.407,0.676,0.78,1.042,1.117c0.946,0.87,1.391,2.322,1.057,3.453l-2.254,7.608c-0.047,0.156-0.033,0.297,0.036,0.409
				c0.071,0.111,0.194,0.184,0.354,0.208l4.116,0.638c0.463,0.076,1.064-0.252,1.255-0.684l3.334-7.523
				c0.509-1.145,1.766-2.066,2.745-2.384c0.764-0.25,1.548-0.568,2.33-0.946c0.629-0.304,1.318-0.341,1.937-0.093
				c0.598,0.239,1.057,0.717,1.293,1.346l1.673,4.462c0.046,0.124,0.098,0.174,0.113,0.181c0.004-0.003,0.074-0.023,0.172-0.113
				l5.764-5.182c0.435-0.392,0.763-1.279,0.689-1.861l-0.745-5.76c-0.141-1.085,0.257-2.598,0.928-3.517
				c0.887-1.214,1.737-2.509,2.527-3.85c0.618-1.045,1.978-1.848,3.164-1.868l3.92-0.066c0.511-0.008,1.137-0.451,1.313-0.93
				l3.129-8.483c0.063-0.17,0.056-0.351-0.02-0.51c-0.075-0.16-0.21-0.281-0.379-0.341l-3.249-1.138
				c-1.235-0.433-2.036-1.8-1.828-3.111c0.209-1.309,0.346-2.614,0.408-3.876c0.053-1.131,0.651-2.568,1.393-3.343l5.057-5.31
				c0.399-0.418,0.638-1.308,0.502-1.868v-0.002l-1.4-5.809c-0.024-0.095-0.051-0.146-0.067-0.168
				c-0.013,0.012-0.067,0.033-0.145,0.093l-5.148,3.898c-1.08,0.82-2.571,0.603-3.458-0.5c-0.323-0.402-0.673-0.778-1.041-1.115
				c-0.948-0.873-1.393-2.326-1.057-3.455l2.254-7.607c0.045-0.156,0.033-0.296-0.036-0.408c-0.073-0.112-0.194-0.185-0.355-0.209
				l-4.116-0.638c-0.462-0.076-1.064,0.255-1.255,0.685l-3.334,7.522c-0.506,1.143-1.762,2.064-2.743,2.384
				c-0.765,0.25-1.55,0.568-2.33,0.945c-0.635,0.307-1.325,0.341-1.938,0.094c-0.596-0.239-1.055-0.717-1.291-1.346l-1.673-4.462
				c-0.046-0.124-0.098-0.173-0.113-0.181c-0.005,0.003-0.074,0.023-0.172,0.112l-5.764,5.183c-0.437,0.392-0.765,1.278-0.689,1.859
				l0.745,5.762c0.14,1.088-0.261,2.6-0.93,3.517c-0.883,1.209-1.733,2.505-2.527,3.851c-0.615,1.043-1.975,1.847-3.164,1.867
				l-3.92,0.066c-0.511,0.008-1.135,0.451-1.311,0.928l-3.131,8.485c-0.062,0.169-0.054,0.35,0.02,0.51
				c0.076,0.16,0.212,0.281,0.381,0.341l3.248,1.138c1.233,0.432,2.036,1.799,1.829,3.109c-0.212,1.325-0.348,2.63-0.408,3.877
				c-0.054,1.133-0.653,2.57-1.391,3.343l-5.06,5.311c-0.397,0.418-0.638,1.309-0.502,1.869l1.401,5.809
				c0.022,0.094,0.051,0.145,0.067,0.168c0.013-0.013,0.065-0.034,0.143-0.092l5.149-3.898
				C51.59,120.685,52.099,120.523,52.607,120.523z M65.516,115.552c-0.747,0-1.47-0.105-2.159-0.319
				c-2.557-0.793-4.393-3.01-5.173-6.24c-1.717-7.124,2.141-17.646,8.603-23.454c3.601-3.238,7.47-4.536,10.625-3.556
				c2.556,0.793,4.393,3.009,5.173,6.24c1.717,7.125-2.141,17.646-8.601,23.455l0,0C71.17,114.208,68.189,115.552,65.516,115.552z
				 M75.236,83.488c-2.208,0-4.756,1.186-7.227,3.409c-6.016,5.408-9.626,15.128-8.048,21.669c0.631,2.616,1.993,4.319,3.936,4.923
				c2.526,0.78,5.753-0.373,8.864-3.168c6.014-5.408,9.624-15.129,8.047-21.669c-0.631-2.617-1.993-4.319-3.936-4.923
				C76.353,83.567,75.806,83.488,75.236,83.488z"/>
		</g>
		<g id="XMLID_4042_">
			<path style="fill:#27DEBF;" d="M118.281,117.925c-0.106,0-0.21-0.008-0.316-0.024l-2.983-0.464
				c-0.536-0.082-1.002-0.382-1.282-0.822c-0.278-0.44-0.35-0.99-0.196-1.51l1.634-5.514c0.084-0.281-0.08-0.744-0.348-0.992
				c-0.32-0.294-0.622-0.617-0.906-0.971c-0.084-0.103-0.282-0.247-0.458-0.109l-3.733,2.826c-0.468,0.354-1.022,0.454-1.502,0.283
				c-0.488-0.174-0.846-0.601-0.984-1.171l-1.016-4.212c-0.214-0.89,0.1-2.061,0.734-2.725l3.665-3.849
				c0.294-0.307,0.58-1.009,0.604-1.474c0.044-0.96,0.15-1.96,0.312-2.971c0.038-0.247-0.13-0.545-0.354-0.623l-2.353-0.825
				c-0.5-0.174-0.9-0.533-1.126-1.01c-0.226-0.478-0.25-1.017-0.068-1.516l2.273-6.151c0.34-0.919,1.334-1.625,2.315-1.642
				l2.843-0.047c0.35-0.006,0.856-0.31,1.042-0.626c0.592-1.005,1.236-1.985,1.91-2.911c0.264-0.361,0.456-1.07,0.402-1.487
				l-0.54-4.176c-0.116-0.899,0.304-2.033,0.978-2.639l4.179-3.757c0.432-0.388,0.958-0.542,1.472-0.418
				c0.502,0.124,0.908,0.506,1.112,1.05l1.212,3.235c0.156,0.141,0.232,0.133,0.308,0.094c0.634-0.306,1.26-0.559,1.876-0.76
				c0.418-0.137,0.938-0.575,1.09-0.919l2.421-5.454c0.402-0.916,1.474-1.52,2.491-1.361l2.985,0.463
				c0.536,0.084,1.002,0.385,1.28,0.825c0.278,0.439,0.35,0.989,0.196,1.508l-1.634,5.515c-0.084,0.281,0.08,0.744,0.348,0.992
				c0.32,0.293,0.622,0.617,0.906,0.971c0.086,0.105,0.274,0.246,0.458,0.11l3.733-2.827c0.468-0.356,1.016-0.455,1.502-0.284
				c0.488,0.174,0.848,0.601,0.984,1.172l1.014,4.211c0.216,0.889-0.098,2.061-0.73,2.725l-3.667,3.85
				c-0.294,0.307-0.58,1.008-0.602,1.471c-0.046,0.962-0.152,1.961-0.31,2.972c-0.042,0.249,0.126,0.546,0.35,0.624l2.353,0.825
				c0.504,0.176,0.904,0.537,1.128,1.016c0.226,0.477,0.248,1.014,0.064,1.512l-2.271,6.15c-0.336,0.918-1.332,1.625-2.314,1.642
				l-2.843,0.048c-0.35,0.006-0.856,0.31-1.042,0.626c-0.592,1.004-1.236,1.983-1.91,2.91c-0.264,0.362-0.456,1.07-0.402,1.487
				l0.54,4.176c0.116,0.898-0.304,2.034-0.978,2.641l-4.177,3.757c-0.434,0.389-0.974,0.536-1.474,0.417
				c-0.504-0.124-0.908-0.507-1.112-1.05l-1.212-3.234c-0.16-0.147-0.234-0.131-0.308-0.095c-0.622,0.302-1.254,0.557-1.877,0.761
				c-0.42,0.136-0.938,0.574-1.09,0.918l-2.421,5.455C120.095,117.36,119.181,117.925,118.281,117.925z M113.59,105.819
				c0.58,0,1.158,0.268,1.57,0.78c0.232,0.289,0.478,0.552,0.738,0.792c0.73,0.67,1.07,1.791,0.812,2.665l-1.634,5.514l0.158,0.247
				l2.983,0.464c0.286,0.036,0.634-0.16,0.74-0.404l2.421-5.454c0.382-0.87,1.336-1.572,2.08-1.814
				c0.548-0.179,1.106-0.404,1.669-0.677c0.5-0.242,1.042-0.269,1.534-0.072c0.474,0.19,0.838,0.569,1.024,1.066l1.212,3.234
				l4.133-3.767c0.274-0.247,0.496-0.847,0.45-1.212l-0.54-4.176c-0.106-0.824,0.196-1.969,0.702-2.663
				c0.644-0.883,1.256-1.818,1.822-2.777c0.474-0.802,1.518-1.417,2.429-1.431l2.841-0.048c0.302-0.005,0.702-0.287,0.804-0.57
				l2.272-6.151c0.038-0.105,0.016-0.192-0.01-0.247c-0.02-0.045-0.074-0.127-0.188-0.167l-2.353-0.825
				c-0.966-0.339-1.592-1.405-1.426-2.43c0.15-0.949,0.248-1.889,0.292-2.791c0.04-0.852,0.492-1.938,1.052-2.525l3.665-3.849
				c0.25-0.262,0.412-0.86,0.326-1.208V75.32l-1.014-4.211l-3.639,2.861c-0.854,0.647-2.023,0.478-2.723-0.389
				c-0.232-0.289-0.478-0.553-0.738-0.791c-0.73-0.671-1.07-1.791-0.812-2.665l1.635-5.515l0.043-0.211l-0.199-0.036l-2.985-0.463
				c-0.292-0.046-0.634,0.16-0.74,0.403l-2.421,5.455c-0.382,0.869-1.336,1.57-2.08,1.814c-0.548,0.179-1.106,0.404-1.671,0.677
				c-0.496,0.241-1.04,0.266-1.532,0.071c-0.474-0.19-0.838-0.568-1.024-1.065l-1.212-3.235l-4.133,3.768
				c-0.274,0.246-0.496,0.846-0.45,1.211l0.54,4.176c0.106,0.825-0.196,1.97-0.702,2.664c-0.644,0.881-1.256,1.817-1.823,2.777
				c-0.474,0.801-1.516,1.415-2.426,1.431l-2.843,0.047c-0.302,0.005-0.7,0.289-0.806,0.572l-2.271,6.149
				c-0.04,0.111-0.01,0.204,0.012,0.249c0.026,0.055,0.078,0.128,0.184,0.165l2.354,0.825c0.964,0.338,1.59,1.404,1.431,2.428
				c-0.154,0.951-0.252,1.89-0.294,2.792c-0.044,0.869-0.486,1.93-1.052,2.526l-3.667,3.85c-0.25,0.261-0.412,0.86-0.328,1.209
				l1.016,4.212l3.639-2.861C112.786,105.947,113.188,105.819,113.59,105.819z M122.948,102.53c-0.558,0-1.098-0.079-1.612-0.238
				c-1.909-0.592-3.277-2.239-3.855-4.637c-1.258-5.216,1.56-12.913,6.284-17.156c2.651-2.384,5.513-3.339,7.854-2.612
				c1.908,0.592,3.277,2.239,3.855,4.636c1.258,5.215-1.56,12.912-6.281,17.157l0,0C127.121,101.542,124.925,102.53,122.948,102.53z
				 M129.992,79.286c-1.561,0-3.369,0.846-5.131,2.432c-4.323,3.884-6.92,10.861-5.787,15.554c0.444,1.841,1.394,3.036,2.749,3.456
				c1.772,0.553,4.063-0.275,6.273-2.264l0,0c4.321-3.885,6.915-10.863,5.785-15.555c-0.444-1.84-1.395-3.035-2.749-3.455
				C130.772,79.341,130.39,79.286,129.992,79.286z"/>
		</g>
	</g>
</g>
<g id="Speech_bubbles">
	<g id="Speech_Bubble_6_">
		<g>
			<path style="fill:#27DEBF;" d="M192.029,79.499c-0.315,0-0.611-0.083-0.877-0.249c-0.616-0.388-0.956-1.159-0.956-2.171V54.674
				c0-1.877,1.17-4.083,2.663-5.022l32.919-20.694c0.807-0.506,1.591-0.571,2.205-0.184c0.616,0.388,0.956,1.158,0.956,2.171V53.35
				c0,1.877-1.17,4.083-2.663,5.023l-4.878,3.066l-3.291,12.185c-0.137,0.514-0.544,0.868-1.036,0.901
				c-0.469,0.039-0.936-0.262-1.132-0.755l-2.832-7.119l-19.75,12.416C192.898,79.354,192.447,79.499,192.029,79.499z
				 M226.277,29.896L193.357,50.59c-1.174,0.738-2.165,2.608-2.165,4.084v22.405c0,0.601,0.167,1.05,0.458,1.233
				c0.294,0.183,0.734,0.117,1.21-0.184l20.718-13.024l3.274,8.234c0.038,0.092,0.093,0.109,0.158,0.105
				c0.05-0.004,0.117-0.028,0.142-0.124l3.403-12.602l5.224-3.283c1.174-0.738,2.165-2.609,2.165-4.084V30.945
				c0-0.6-0.167-1.049-0.458-1.233C227.195,29.529,226.754,29.596,226.277,29.896L226.277,29.896z"/>
		</g>
		<g>
			<path style="fill:#27DEBF;" d="M198.243,56.898c-0.172,0-0.339-0.097-0.431-0.271c-0.138-0.259-0.056-0.59,0.182-0.74
				l22.65-14.238c0.236-0.148,0.542-0.061,0.679,0.198c0.138,0.259,0.056,0.59-0.182,0.74l-22.65,14.238
				C198.414,56.874,198.328,56.898,198.243,56.898z"/>
		</g>
		<g>
			<path style="fill:#27DEBF;" d="M198.243,61.673c-0.172,0-0.339-0.097-0.431-0.271c-0.138-0.259-0.056-0.59,0.182-0.74
				l22.65-14.238c0.236-0.148,0.542-0.061,0.679,0.198c0.138,0.259,0.056,0.59-0.182,0.74L198.492,61.6
				C198.414,61.649,198.328,61.673,198.243,61.673z"/>
		</g>
		<g>
			<path style="fill:#27DEBF;" d="M198.243,66.447c-0.172,0-0.339-0.097-0.431-0.271c-0.138-0.259-0.056-0.59,0.182-0.74
				l22.65-14.238c0.236-0.148,0.542-0.061,0.679,0.198c0.138,0.259,0.056,0.59-0.182,0.74l-22.65,14.238
				C198.414,66.423,198.328,66.447,198.243,66.447z"/>
		</g>
	</g>
	<g id="Speech_Bubble_2_">
		<g id="Speech_Bubble_3_">
			<g>
				<path style="fill:#27DEBF;" d="M337.563,66.253l-8.129,4.707l3.229,7.258c0.07,0.158,0.18,0.273,0.309,0.346
					c0.386,0.219,2.667,1.539,2.793,1.613c0.386,0.223,0.943,0.066,1.091-0.434l3.506-11.874L337.563,66.253z"/>
				<path style="opacity:0.2;" d="M337.563,66.253l-8.129,4.707l3.229,7.258c0.07,0.158,0.18,0.273,0.309,0.346
					c0.386,0.219,2.667,1.539,2.793,1.613c0.386,0.223,0.943,0.066,1.091-0.434l3.506-11.874L337.563,66.253z"/>
				<path style="fill:#27DEBF;" d="M332.232,72.576l3.229,7.258c0.281,0.632,1.198,0.572,1.394-0.092l3.506-11.874L332.232,72.576z"
					/>
			</g>
			<g>
				<path id="XMLID_93_" style="fill:#27DEBF;" d="M349.03,37.056l-33.585,19.389c-0.426,0.246-0.771,0.844-0.771,1.335v20.78
					c0,0.492,0.347,1.086,0.775,1.328l2.762,1.548c0.428,0.242,1.12,0.238,1.546-0.008l33.586-19.389
					c0.426-0.246,0.771-0.844,0.771-1.335v-20.78c0-0.492-0.347-1.086-0.775-1.328l-2.762-1.548
					C350.148,36.807,349.456,36.81,349.03,37.056z"/>
				<path id="XMLID_92_" style="fill:#27DEBF;" d="M318.986,80.984v-20.78c0-0.492,0.345-1.09,0.771-1.335l33.586-19.389
					c0.426-0.246,0.771-0.047,0.771,0.445v20.78c0,0.492-0.345,1.09-0.771,1.335l-33.586,19.389
					C319.331,81.675,318.986,81.476,318.986,80.984z"/>
				<path id="XMLID_91_" style="opacity:0.2;" d="M319.757,81.429c-0.41,0.238-1.16,0.246-1.547,0.009l-2.76-1.551
					c-0.427-0.239-0.776-0.833-0.776-1.325V57.78c0-0.256,0.096-0.538,0.246-0.787l4.295,2.452
					c-0.142,0.239-0.228,0.513-0.228,0.758v20.778C318.986,81.433,319.303,81.692,319.757,81.429z"/>
				<path id="XMLID_90_" style="opacity:0.4;fill:#FFFFFF;" d="M354.103,39.785c-0.06-0.388-0.377-0.527-0.762-0.306l-33.583,19.39
					c-0.214,0.125-0.406,0.335-0.545,0.577l-4.298-2.452c0.139-0.231,0.324-0.431,0.531-0.548l33.586-19.39
					c0.424-0.246,1.115-0.249,1.545-0.007l2.76,1.548C353.725,38.816,354.049,39.325,354.103,39.785z"/>
			</g>
		</g>
		<g>
			<path style="fill:#FFFFFF;" d="M325.225,68.115c-0.172,0-0.339-0.097-0.431-0.271c-0.138-0.259-0.056-0.59,0.182-0.74
				l22.65-14.238c0.236-0.148,0.542-0.061,0.679,0.198c0.138,0.259,0.056,0.59-0.182,0.74l-22.65,14.238
				C325.395,68.091,325.31,68.115,325.225,68.115z"/>
		</g>
	</g>
	<g id="Speech_Bubble_1_">
		<g id="Speech_Bubble_7_">
			<g>
				<path style="fill:#27DEBF;" d="M89.017,279.148l-8.129,4.707l3.229,7.259c0.07,0.158,0.18,0.273,0.309,0.346
					c0.386,0.219,2.667,1.54,2.793,1.613c0.386,0.223,0.943,0.066,1.091-0.434l3.506-11.874L89.017,279.148z"/>
				<path style="opacity:0.2;" d="M89.017,279.148l-8.129,4.707l3.229,7.259c0.07,0.158,0.18,0.273,0.309,0.346
					c0.386,0.219,2.667,1.54,2.793,1.613c0.386,0.223,0.943,0.066,1.091-0.434l3.506-11.874L89.017,279.148z"/>
				<path style="fill:#27DEBF;" d="M83.686,285.471l3.229,7.258c0.281,0.632,1.198,0.572,1.394-0.092l3.506-11.874L83.686,285.471z"
					/>
			</g>
			<g>
				<path id="XMLID_30_" style="fill:#27DEBF;" d="M100.484,249.951l-33.585,19.389c-0.426,0.246-0.771,0.844-0.771,1.335v20.78
					c0,0.492,0.347,1.086,0.775,1.328l2.762,1.548c0.428,0.242,1.121,0.238,1.546-0.008l33.586-19.389
					c0.426-0.246,0.771-0.844,0.771-1.335v-20.78c0-0.492-0.347-1.086-0.775-1.328l-2.762-1.548
					C101.602,249.702,100.91,249.705,100.484,249.951z"/>
				<path id="XMLID_29_" style="fill:#27DEBF;" d="M70.44,293.879v-20.78c0-0.492,0.345-1.089,0.771-1.335l33.586-19.389
					c0.426-0.246,0.771-0.047,0.771,0.445v20.78c0,0.492-0.345,1.09-0.771,1.335l-33.586,19.389
					C70.785,294.57,70.44,294.371,70.44,293.879z"/>
				<path id="XMLID_28_" style="opacity:0.2;" d="M71.211,294.324c-0.41,0.238-1.16,0.246-1.547,0.009l-2.76-1.551
					c-0.427-0.239-0.776-0.833-0.776-1.325v-20.782c0-0.256,0.096-0.538,0.246-0.787l4.295,2.452
					c-0.142,0.239-0.228,0.513-0.228,0.758v20.778C70.44,294.328,70.757,294.587,71.211,294.324z"/>
				<path id="XMLID_27_" style="opacity:0.4;fill:#FFFFFF;" d="M105.557,252.68c-0.061-0.388-0.377-0.527-0.762-0.306l-33.583,19.39
					c-0.214,0.125-0.406,0.335-0.545,0.577l-4.298-2.452c0.139-0.232,0.324-0.431,0.531-0.548l33.586-19.39
					c0.424-0.246,1.114-0.249,1.545-0.007l2.76,1.548C105.179,251.711,105.503,252.22,105.557,252.68z"/>
			</g>
		</g>
		<g>
			<path style="fill:#FFFFFF;" d="M76.679,281.01c-0.172,0-0.339-0.097-0.431-0.271c-0.138-0.259-0.056-0.59,0.182-0.74
				l22.65-14.238c0.236-0.148,0.542-0.061,0.679,0.198c0.138,0.259,0.056,0.59-0.182,0.74l-22.65,14.238
				C76.85,280.986,76.764,281.01,76.679,281.01z"/>
		</g>
	</g>
</g>
<g id="Light_bulb">
	<g id="Idea_2_">
		<g id="Light_1_">
			<g id="XMLID_7_">
				<g id="XMLID_8_">
					<g id="XMLID_25_">
						<path id="XMLID_26_" style="fill:#37474F;" d="M434.307,97.794c-0.017,1.627-1.35,2.932-2.977,2.914
							c-1.627-0.017-2.932-1.35-2.914-2.977c0.017-1.627,1.35-2.931,2.977-2.914C433.019,94.835,434.324,96.167,434.307,97.794z"/>
					</g>
					<g id="XMLID_23_">
						<path id="XMLID_24_" style="fill:#455A64;" d="M427.828,97.919c-1.939-1.147-1.919-2.973,0.043-4.078
							c1.962-1.105,5.125-1.072,7.063,0.075c1.939,1.147,1.919,2.972-0.043,4.078C432.928,99.099,429.766,99.065,427.828,97.919z"/>
					</g>
					<g id="XMLID_21_">
						<path id="XMLID_22_" style="fill:#37474F;" d="M427.73,96.854c-1.998-1.182-1.978-3.064,0.044-4.203
							c2.023-1.139,5.282-1.105,7.28,0.077c1.998,1.182,1.978,3.064-0.044,4.203C432.988,98.07,429.729,98.036,427.73,96.854z"/>
					</g>
					<g id="XMLID_19_">
						<path id="XMLID_20_" style="fill:#455A64;" d="M427.63,95.757c-2.059-1.218-2.039-3.158,0.046-4.332
							c2.085-1.174,5.444-1.139,7.504,0.079c2.059,1.218,2.039,3.158-0.046,4.332C433.049,97.01,429.69,96.975,427.63,95.757z"/>
					</g>
					<g id="XMLID_17_">
						<path id="XMLID_18_" style="fill:#37474F;" d="M427.527,94.626c-2.123-1.256-2.101-3.255,0.047-4.465
							c2.149-1.21,5.611-1.174,7.734,0.082c2.123,1.256,2.102,3.255-0.047,4.465C433.112,95.918,429.65,95.882,427.527,94.626z"/>
					</g>
					<g id="XMLID_15_">
						<path id="XMLID_16_" style="fill:#455A64;" d="M427.461,93.439c-2.166-1.281-2.145-3.321,0.048-4.556
							c2.193-1.235,5.726-1.198,7.892,0.084c2.166,1.281,2.144,3.321-0.048,4.556C433.16,94.758,429.627,94.72,427.461,93.439z"/>
					</g>
					<g id="XMLID_13_">
						<path id="XMLID_14_" style="fill:#27DEBF;" d="M431.77,59.178c-7.749-0.082-14.096,6.133-14.178,13.881
							c-0.118,11.138,9.052,13.084,9.004,17.573c-0.008,0.715,0.457,1.435,1.397,1.991c1.879,1.111,4.943,1.144,6.845,0.072
							c0.951-0.536,1.431-1.246,1.439-1.961l0,0c0.047-4.489,9.257-6.241,9.375-17.379C445.733,65.608,439.518,59.26,431.77,59.178z
							"/>
					</g>
					<g id="XMLID_11_" style="opacity:0.6;">
						<path id="XMLID_12_" style="fill:#FFFFFF;" d="M431.77,59.178c-7.749-0.082-14.096,6.133-14.178,13.881
							c-0.118,11.138,9.052,13.084,9.004,17.573c-0.008,0.715,0.457,1.435,1.397,1.991c1.879,1.111,4.943,1.144,6.845,0.072
							c0.951-0.536,1.431-1.246,1.439-1.961l0,0c0.047-4.489,9.257-6.241,9.375-17.379C445.733,65.608,439.518,59.26,431.77,59.178z
							"/>
					</g>
					<g id="XMLID_9_">
						<path id="XMLID_10_" style="fill:#27DEBF;" d="M428.848,92.026c-1.413-0.836-1.399-2.166,0.031-2.972
							c1.43-0.806,3.735-0.781,5.148,0.055c1.413,0.836,1.399,2.166-0.031,2.972C432.565,92.886,430.261,92.861,428.848,92.026z"/>
					</g>
				</g>
			</g>
			<g id="XMLID_1_">
				<path id="XMLID_2_" style="fill:#FFFFFF;" d="M433.313,90.238c-0.258-0.003-0.468-0.211-0.471-0.471
					c-0.001-0.152-0.025-3.756,1.069-8.007c0.212-0.824,0.456-1.569,0.722-2.222c-0.389-0.144-0.794-0.343-1.211-0.608
					c-0.743-0.471-1.359-1.019-1.844-1.585c-0.496,0.556-1.124,1.091-1.877,1.546c-0.422,0.256-0.832,0.447-1.224,0.582
					c0.253,0.658,0.481,1.408,0.676,2.237c1.004,4.273,0.904,7.876,0.899,8.027c-0.008,0.263-0.216,0.446-0.491,0.461
					c-0.262-0.008-0.469-0.228-0.461-0.491c0.001-0.035,0.099-3.634-0.873-7.78c-0.207-0.881-0.442-1.62-0.686-2.229
					c-1.165,0.153-2.103-0.209-2.646-0.807c-0.542-0.597-0.616-1.387-0.184-1.967c0.328-0.439,0.799-0.634,1.301-0.529
					c0.749,0.157,1.472,0.935,2.086,2.199c0.35-0.113,0.722-0.282,1.111-0.517c0.754-0.457,1.348-0.983,1.792-1.51
					c-0.639-1.007-0.869-1.998-0.666-2.682c0.175-0.59,0.657-0.939,1.29-0.933c0.633,0.007,1.107,0.366,1.27,0.96
					c0.188,0.688-0.063,1.675-0.723,2.667c0.433,0.535,1.016,1.075,1.76,1.547c0.384,0.243,0.752,0.42,1.1,0.541
					c0.641-1.249,1.38-2.013,2.132-2.154c0.502-0.089,0.971,0.111,1.289,0.557c0.42,0.588,0.329,1.377-0.225,1.962
					c-0.555,0.586-1.502,0.928-2.662,0.751c-0.257,0.604-0.507,1.337-0.733,2.214c-1.062,4.131-1.038,7.724-1.038,7.759
					c0.003,0.263-0.208,0.479-0.471,0.481C433.319,90.238,433.316,90.238,433.313,90.238z M425.748,77.32
					c-0.081-0.001-0.171,0.034-0.275,0.175c-0.235,0.316,0.037,0.659,0.125,0.757c0.302,0.333,0.837,0.556,1.517,0.524
					c-0.497-0.937-0.984-1.382-1.299-1.448C425.795,77.323,425.772,77.32,425.748,77.32z M436.008,78.87
					c0.674,0.045,1.218-0.165,1.528-0.492c0.091-0.097,0.369-0.434,0.141-0.754c-0.131-0.185-0.243-0.192-0.34-0.174
					C437.021,77.509,436.525,77.944,436.008,78.87z M431.614,73.905c-0.242-0.003-0.321,0.099-0.367,0.252
					c-0.104,0.351,0.005,0.921,0.348,1.563c0.356-0.634,0.477-1.202,0.38-1.555C431.933,74.01,431.856,73.907,431.614,73.905z"/>
			</g>
		</g>
		<g>
			<g>
				<path style="fill:#E0E0E0;" d="M431.912,53.834c-0.078,0.021-0.159,0.032-0.243,0.031c-0.506-0.002-0.915-0.414-0.913-0.92
					l0.02-4.778c0.002-0.508,0.415-0.916,0.92-0.913c0.506,0.002,0.915,0.414,0.913,0.92l-0.02,4.778
					C432.587,53.375,432.3,53.729,431.912,53.834z"/>
			</g>
			<g>
				<path style="fill:#E0E0E0;" d="M421.704,56.523c-0.392,0.106-0.821-0.061-1.033-0.43l-2.372-4.147
					c-0.251-0.44-0.099-0.999,0.34-1.251c0.44-0.251,0.999-0.099,1.251,0.34l2.373,4.147c0.251,0.44,0.098,0.999-0.34,1.251
					C421.852,56.474,421.779,56.503,421.704,56.523z"/>
			</g>
			<g>
				<path style="fill:#E0E0E0;" d="M414.21,63.954c-0.228,0.062-0.48,0.035-0.699-0.093l-4.128-2.407
					c-0.438-0.255-0.585-0.816-0.331-1.253c0.255-0.438,0.817-0.584,1.253-0.331l4.128,2.407c0.438,0.255,0.585,0.816,0.331,1.253
					C414.637,63.748,414.435,63.894,414.21,63.954z"/>
			</g>
			<g>
				<path style="fill:#E0E0E0;" d="M411.437,74.139c-0.078,0.021-0.159,0.032-0.243,0.031l-4.778-0.02
					c-0.506-0.002-0.915-0.414-0.913-0.92c0.002-0.507,0.415-0.917,0.92-0.913l4.778,0.02c0.506,0.002,0.915,0.414,0.913,0.92
					C412.112,73.68,411.826,74.034,411.437,74.139z"/>
			</g>
			<g>
				<path style="fill:#E0E0E0;" d="M453.569,86.898c-0.228,0.062-0.48,0.035-0.7-0.093l-4.128-2.407
					c-0.438-0.255-0.585-0.816-0.331-1.253c0.255-0.438,0.817-0.584,1.253-0.331l4.128,2.407c0.438,0.255,0.585,0.816,0.331,1.253
					C453.996,86.692,453.794,86.838,453.569,86.898z"/>
			</g>
			<g>
				<path style="fill:#E0E0E0;" d="M409.767,86.898c0.228,0.062,0.48,0.035,0.7-0.093l4.128-2.407
					c0.438-0.255,0.585-0.816,0.331-1.253c-0.255-0.438-0.817-0.584-1.253-0.331l-4.128,2.407c-0.438,0.255-0.585,0.816-0.331,1.253
					C409.34,86.692,409.543,86.838,409.767,86.898z"/>
			</g>
			<g>
				<path style="fill:#E0E0E0;" d="M456.995,74.328c-0.078,0.021-0.159,0.032-0.243,0.031l-4.778-0.019
					c-0.506-0.002-0.915-0.414-0.913-0.92c0.002-0.507,0.414-0.918,0.92-0.913l4.778,0.02c0.506,0.002,0.915,0.414,0.913,0.92
					C457.67,73.869,457.384,74.224,456.995,74.328z"/>
			</g>
			<g>
				<path style="fill:#E0E0E0;" d="M449.526,64.103c-0.392,0.106-0.823-0.061-1.033-0.43c-0.251-0.44-0.099-1,0.34-1.251
					l4.149-2.372c0.441-0.25,1-0.099,1.251,0.34c0.251,0.44,0.099,1-0.34,1.251l-4.149,2.372
					C449.673,64.053,449.6,64.083,449.526,64.103z"/>
			</g>
			<g>
				<path style="fill:#E0E0E0;" d="M442.094,56.607c-0.228,0.062-0.48,0.035-0.7-0.092c-0.438-0.255-0.585-0.816-0.331-1.253
					l2.407-4.128c0.255-0.438,0.817-0.584,1.253-0.331c0.438,0.255,0.585,0.816,0.331,1.253l-2.407,4.128
					C442.521,56.401,442.319,56.547,442.094,56.607z"/>
			</g>
		</g>
	</g>
</g>
<g id="Character">
	<g id="Character_15_">
		<g>
			<path style="fill:#B16668;" d="M383.1,91.151c1.613-0.27,1.753,2.859,1.867,6.152c0.104,3.029,0.326,8.878,0.987,8.962
				c0.662,0.084,2.525-1.246,4.147-1.359c1.584-0.11,2.841,1.23,1.669,1.836c-0.672,0.348-2.683,1.937-3.632,2.611
				c-0.949,0.675-2.192,1.657-2.27,2.987c-0.078,1.329,7.246,22.551,7.246,22.551s17.112,10.488,20.824,12.52
				c3.712,2.033,5.586,1.853,7.632,3.374c-3.918,2.262-9.559,7.86-12.712,10.873c0,0,0.736,0.426-4.3-3.69
				c-6.095-4.982-17.201-12.012-20.881-17.025c-2.604-6.443-6.6-24.933-7.174-26.643c-0.689-2.056-1.69-3.059-2.23-4.719
				c-0.65-1.996-1.296-3.666-1.183-5.841c0.032-0.618,0.182-1.292,0.677-1.664c0.252-0.189,0.569-0.277,0.823-0.463
				c0.396-0.288,0.726-0.836,1.161-1.061c0.601-0.311,1.516,0.054,2.096-0.295c0.254-0.153,0.758-0.919,1.049-0.974
				c0.618-0.117,0.89,0.055,1.41,0.065c0.281,0.006,0.858,0.161,0.971-0.211c0.137-0.452,0.034-1.433,0.321-3.838
				C381.887,92.895,381.998,91.336,383.1,91.151z"/>
			<path style="fill:#455A64;" d="M421.9,150.466c-1.807-1.046-3.766-1.817-7.275-3.25c-3.508-1.433-20.987-12.591-20.987-12.591
				l-6.361-17.216c0,0-0.876,1.777-4.092,2.742c-3.217,0.965-5.378-0.591-5.378-0.591s3.841,16.262,4.529,18.961
				c0.688,2.698,1.331,3.824,3.985,6.236c2.654,2.412,22.676,18.173,22.676,18.173L421.9,150.466z"/>
			<path style="fill:#9A4A4D;" d="M382.002,102.381c-0.179,1.961,0.155,4.144-0.801,4.763c-0.731,0.474-1.815,0.167-2.224-0.784
				c0,0-0.193,0.892-1.056,1.114c-0.863,0.222-1.414-0.468-1.414-0.468c-0.126,0.417-1.173,1.016-2.119,0.364
				c0.263,0.564,1.158,1.442,2.012,0.55c0,0,1.495,0.92,2.374-0.244c0,0-1.062,1.26-0.235,3.624c0,0-0.107-2.128,1.069-3.458
				c0,0,1.313,0.521,2.267-0.403C382.831,106.517,382.002,102.381,382.002,102.381z"/>
		</g>
		<g>
			<g id="Bottom_1_">
				<path style="fill:#B16668;" d="M458.034,312.238c-1.898-8.364-1.571-23.5-2.525-31.065c-1.117-8.858-7.74-17.627-7.74-17.627
					s2.8-22.616,3.872-32.695c2.516-23.661-1.896-32.829-4.387-36.388c-1.177-1.681-1.651-2.469-2.718-4.307
					c-1.572-2.705-2.439-4.956-2.439-4.956l-32.838,0.338c-2.26,4.289-4.34,12.076-4.181,18.24
					c-3.421,12.328-2.844,51.462-2.304,65.618c0.324,8.484,5.81,45.831,5.931,46.982c0.052,0.494,1.542,2.643,4.912,2.078
					s4.272-1.742,4.274-2.097c0.006-1.226,0.168-2.588,0.274-3.81c0.693-7.983,3.76-25.06,4.745-33.2
					c0.881-7.283-2.714-12.847-2.714-12.847l4.967-21.905c1.886,13.575,5.064,24.37,7.233,30.563
					c3.761,10.739,16.732,42.542,16.732,42.542c1.184,3.341,8.282,1.651,9.204-4.061L458.034,312.238z"/>
				<path id="XMLID_1091_" style="fill:#37474F;" d="M458.034,312.238c1.777-0.303,1.529,5.869,2.578,9.615
					c1.124,4.016,3.137,6.727,4.1,10.012c1.101,3.753,0.954,5.438-0.147,8.897c-0.857,2.689-6.547,7.214-9.447,4.134
					c-2.935-3.117-4.031-7.003-4.351-10.884c-0.331-4.012-0.859-6.705-1.555-9.668c-0.75-3.191-2.436-8.783-1.13-9.207l0.746,1.835
					c1.046,1.278,8.996-0.405,9.502-3.329L458.034,312.238z"/>
				<g id="XMLID_1086_">
					<g id="XMLID_1087_">
						<path id="XMLID_1090_" style="fill:#263238;" d="M419.877,316.617c0.452,1.944-0.104,7.252-0.104,7.252
							s-0.861,1.823-3.866,3.008l-1.254-7.407L419.877,316.617z"/>
						<polygon id="XMLID_1089_" points="415.908,326.877 409.34,324.634 407.822,318.764 415.14,322.342 						"/>
						<path id="XMLID_1088_" style="fill:#37474F;" d="M407.819,310.077l-0.245-1.736c-0.9,0.424-0.855,7.586-5.642,12.632
							c-3.531,3.723-7.549,5.909-9.137,7.855c-2.126,2.604,2.851,6.992,9.401,5.673c3.251-0.655,8.186-2.671,9.543-4.843
							c1.357-2.172,2.294-5.722,3.401-7.317c1.108-1.595,4.159-2.818,4.882-4.588c0.8-1.958,0.17-4.604-0.366-6.427
							c-0.492-1.672-0.184-3.459-0.948-3.499l-0.176,1.351c-0.448,0.886-3.074,2.055-6.376,2.194
							C410.586,311.439,408.52,311.514,407.819,310.077z"/>
					</g>
				</g>
				<g>
					<path style="fill:#455A64;" d="M405.587,197.282c0,0,7.304,5.207,21.409,4.259c14.105-0.948,20.257-7.077,20.257-7.077
						s4.531,5.979,5.441,13.267c0.753,6.031-0.705,24.439-2.122,37.635c-1.417,13.196-2.018,17.749-2.018,17.749
						s3.159,5.496,5.461,10.378c2.959,6.275,2.749,26.785,3.273,34.335c-2.694,3.087-8.504,4.338-10.624,3.808
						c-3.189-6.721-13.399-32.722-15.031-37.658s-5.332-14.275-6.472-29.38l-3.994,22.024c0,0,1.376,2.918,2.14,7.976
						c0.721,4.778-2.905,24.247-4.216,30.317c-2.112,1.621-7.226,2.913-11.993,0c-0.737-5.632-4.101-26.919-4.574-32.88
						c0,0-1.552-13.954-1.052-35.402C401.971,215.186,405.587,197.282,405.587,197.282z"/>
					<path style="fill:#37474F;" d="M425.161,244.598l-1.866-22.073c0,0-8.918-5.194-11.078-9.926c0,0,0.338,7.409,6.965,11.452
						l3.048,22.332l-1.063,20.238L425.161,244.598z"/>
				</g>
			</g>
			<g id="Top_1_">
				<g>
					<g id="XMLID_1017_">
						<path style="fill:#263238;" d="M423.918,135.324c-0.226-0.499-0.304-0.937-0.68-1.345c-0.417-0.451-0.945-0.81-1.474-1.114
							c-1.037-0.596-2.183-0.977-3.306-1.373c-1.932-0.682-4-1.59-4.914-3.424c-0.259-0.52-0.409-1.132-0.228-1.684
							c0.18-0.553,0.774-0.992,1.337-0.847c-0.695-0.527-1.358-1.127-1.778-1.891c-0.42-0.764-0.566-1.719-0.209-2.514
							c0.357-0.795,1.293-1.343,2.13-1.101c-0.987-1.039-2.153-1.946-2.598-3.331c-0.39-1.215-0.197-2.384,0.835-3.214
							c0.654-0.526,2.633-0.563,3.469-0.631c3.219-0.262,5.569-1.015,8.714-1.749c1.867-0.436,7.205-0.856,10.664-0.083
							c2.895,0.647,5.491,1.987,6.772,4.801c0.332,0.729,0.374,1.066,1.102,1.384c0.743,0.324,1.491,0.421,2.2,0.876
							c1.493,0.958,2.593,2.502,3.205,4.15c0.933,2.512,0.923,5.26,0.961,7.94c0.038,2.68,0.154,5.447,1.304,7.868
							c0.745,1.568,1.913,2.967,2.266,4.667c0.385,1.852-0.343,3.891-1.813,5.081c-1.47,1.19-3.615,1.477-5.346,0.716
							c0.625-1.325,0.851-2.836,0.641-4.286c-0.521,2.527-3.084,4.164-5.615,4.666c-6.068,1.203-11.565-3.064-14.673-7.909
							C425.735,139.18,424.798,137.267,423.918,135.324z"/>
						<path style="fill:#263238;" d="M417.597,126.794c0.101,0.003-1.455,4.192-1.637,4.564c-1.86,3.774-3.515,7.163-1.789,11.186
							c1.069,2.491,3.618,4.433,6.284,4.921c1.262,0.231,3.015,0.38,4.291,0.264c1.581-0.145,2.437-0.425,3.239-1.075
							c0.588-0.476,0.375-2.009,0.397-2.752c0.087-2.836,0.173-5.671,0.26-8.507c0.015-0.504,0.25-8.282,0.253-8.282
							C428.896,127.113,417.599,126.794,417.597,126.794z"/>
						<g id="XMLID_1084_">
							<path id="XMLID_1085_" style="fill:#B16668;" d="M421.802,116.937c-2.076,0.979-6.361,5.432-6.281,16.061
								c0.066,8.833,1.595,10.949,3.985,12.045c1.426,0.654,3.75,0.643,6.475,0.446l-0.11,5.336c0,0-7.912,5.391-1.82,6.751
								c3.042,0.679,6.902-0.192,9.708-2.016c2.87-1.865,3.943-3.599,3.943-3.599l0.983-11.86c0,0,1.436,1.681,4.332-0.41
								c2.391-1.726,3.44-4.915,1.881-6.825c-1.559-1.909-4.924-1.765-6.378,0.614c0,0-1.523,0.807-2.824-2.262
								c0,0-3.428-1.399-7.242-4.118C423.136,123.31,422.124,118.745,421.802,116.937z"/>
						</g>
						<g id="XMLID_1081_">
							<path id="XMLID_1083_" style="fill:#9A4A4D;" d="M427.906,137.493l-4.833,1.213c0.308,1.38,1.639,2.228,2.974,1.894
								C427.381,140.264,428.213,138.874,427.906,137.493z"/>
						</g>
						<path style="fill:#F28F8F;" d="M424.956,140.609c0.123-1.258,1.232-2.188,2.495-2.08c0.157,0.013,0.309,0.043,0.455,0.085
							c-0.198,0.945-0.893,1.743-1.86,1.985C425.674,140.692,425.305,140.685,424.956,140.609z"/>
						<g id="XMLID_1076_">
							<path id="XMLID_1079_" style="fill:#263238;" d="M417.686,126.743l2.642-0.702c-0.168-0.743-0.896-1.187-1.625-0.993
								C417.973,125.242,417.518,126.001,417.686,126.743z"/>
						</g>
						<g id="XMLID_1066_">
							<path id="XMLID_1068_" style="fill:#263238;" d="M429.645,127.31l2.45,1.213c0.364-0.669,0.109-1.483-0.567-1.818
								C430.851,126.37,430.009,126.641,429.645,127.31z"/>
						</g>
						<g id="XMLID_1064_">
							<polygon id="XMLID_1065_" style="fill:#9A4A4D;" points="423.647,128.372 422.426,135.731 418.491,134.551 							"/>
						</g>
						<g id="XMLID_1058_">
							<path id="XMLID_1063_" style="fill:#9A4A4D;" d="M425.981,145.489c2.862-0.107,9.174-2.27,10.295-4.486
								c0,0-0.496,2.535-2.49,3.678c-2.796,1.602-7.841,2.536-7.841,2.536L425.981,145.489z"/>
						</g>
						<path id="XMLID_1019_" style="fill:#263238;" d="M438.724,131.287l-0.432,4.625l0,0c-1.738-0.162-3.016-1.703-2.854-3.442
							l0.399-4.271L438.724,131.287z"/>
					</g>
					<g id="XMLID_1012_">
						<path id="XMLID_1016_" style="fill:#263238;" d="M419.522,129.494c0.044,0.667-0.467,1.258-1.142,1.321
							c-0.674,0.063-1.256-0.428-1.3-1.095c-0.044-0.667,0.467-1.259,1.141-1.321C418.895,128.336,419.478,128.826,419.522,129.494z
							"/>
					</g>
					<g id="XMLID_988_">
						<path id="XMLID_989_" style="fill:#263238;" d="M428.856,129.865c0.044,0.667-0.467,1.259-1.142,1.322
							c-0.674,0.063-1.256-0.428-1.3-1.095c-0.044-0.668,0.467-1.259,1.141-1.321C428.23,128.708,428.812,129.198,428.856,129.865z"
							/>
					</g>
				</g>
				<g>
					<path style="fill:#B16668;" d="M442.096,185.201l4.194-14.523c2.225-6.637,1.564-11.065,1.096-13.16
						c-0.752-2.927-9.684-5.557-9.684-5.557c-1.364-0.431-5.394-0.458-6.632-0.666l-9.17-0.829c0,0-7.06,3.38-13.597,11.869
						c-2.99,3.883-5.81,9.399,0.251,15.336c-0.262,2.578-0.211,4.958,0.704,7.868"/>
					<path style="fill:#263238;" d="M425.871,150.825c0,0-12.603,13.028-5.543,13.9c7.89,0.974,14.776-7.251,17.374-12.764
						c0,0,7.007,1.971,8.783,2.566c1.776,0.595,2.496,6.155,1.071,12.656c-1.425,6.501-4.878,17.765-4.878,17.765l4.576,9.515
						c0,0-7.94,8.55-21.733,8.327c-13.793-0.223-19.934-5.509-19.934-5.509l2.928-11.884c0,0-1.084-4.158-0.352-7.583
						c0,0-3.481-3.039-3.531-7.314c-0.052-4.482,2.264-7.487,6.643-12.238c3.801-4.123,10.026-7.887,10.026-7.887L425.871,150.825z"
						/>
					<path style="opacity:0.2;" d="M435.385,177.644c0,0-2.751,4.97-9.321,4.247c-6.009-0.661-8.004-5.948-8.004-5.948
						s-0.298,6.936,7.873,7.603C434.092,184.212,435.385,177.644,435.385,177.644z"/>
				</g>
			</g>
		</g>
		<g>
			<g id="XMLID_4513_">
				<path style="fill:#27DEBF;" d="M434.985,214.124v30.799c0,0.278,0.087,0.478,0.244,0.574l1.392,0.809
					c0.07,0.035,0.139,0.044,0.217,0.044c0.122,0,0.261-0.035,0.4-0.113l34.912-20.159c0.496-0.287,0.896-0.983,0.896-1.566
					l-0.009-30.756c0-0.278-0.096-0.478-0.252-0.574c0,0-0.017-0.017-0.061-0.035h-0.009l-1.305-0.765
					c-0.07-0.035-0.148-0.061-0.235-0.061c-0.122,0-0.252,0.044-0.4,0.122l-18.299,10.548l-2.166,1.252c0,0-2.662,1.531-3.236,1.853
					c-0.044,0.026-0.07,0.044-0.087,0.052l-11.107,6.41c-0.061,0.035-0.122,0.078-0.183,0.131c-0.174,0.139-0.331,0.33-0.452,0.548
					C435.08,213.516,434.985,213.837,434.985,214.124z"/>
				<path style="opacity:0.5;fill:#FFFFFF;" d="M435.246,213.237l1.348,0.783h0.009c0.044-0.069,0.087-0.139,0.131-0.2
					c0.096-0.13,0.209-0.252,0.322-0.348c0.061-0.052,0.122-0.096,0.183-0.13l11.107-6.402c0.278-0.165,2.783-1.6,3.288-1.887
					l1.331-0.766l19.169-11.052c0.217-0.13,0.426-0.157,0.583-0.087l-1.305-0.765c-0.07-0.035-0.148-0.061-0.235-0.061
					c-0.122,0-0.261,0.035-0.4,0.122l-18.299,10.548l-2.166,1.252c0,0-2.662,1.531-3.236,1.853c-0.044,0.026-0.07,0.044-0.087,0.052
					l-11.107,6.41c-0.061,0.035-0.122,0.078-0.183,0.131C435.524,212.829,435.367,213.02,435.246,213.237z"/>
				<path id="XMLID_4522_" style="fill:#27DEBF;" d="M473.032,193.755l0.016,30.763c0,0.577-0.404,1.278-0.904,1.565l-35.011,20.212
					c-0.355,0.205-0.799-0.051-0.799-0.461v-30.922c0-0.287,0.1-0.607,0.264-0.888c0.167-0.283,0.394-0.53,0.637-0.674l11.107-6.412
					c0.284-0.16,2.79-1.595,3.29-1.882l20.496-11.821c0.224-0.13,0.434-0.154,0.591-0.087l0.037,0.02
					c0.007,0.003,0.013,0.007,0.02,0.01l0.01,0.007C472.935,193.281,473.032,193.478,473.032,193.755z"/>
				<path style="fill:#27DEBF;" d="M436.594,214.02h0.009c0.044-0.069,0.087-0.139,0.131-0.2
					C436.681,213.881,436.637,213.951,436.594,214.02z"/>
				<path id="XMLID_4520_" style="opacity:0.2;" d="M436.663,246.322c-0.013-0.003-0.027-0.007-0.04-0.013l-1.398-0.811
					c-0.15-0.1-0.244-0.297-0.244-0.574v-30.803c0-0.29,0.104-0.604,0.267-0.887l1.351,0.787v0.003
					c-0.163,0.28-0.263,0.601-0.263,0.887v30.92C436.336,246.062,436.476,246.246,436.663,246.322z"/>
			</g>
			<g id="XMLID_4475_">
				<g id="XMLID_4483_">
					<path id="XMLID_4511_" style="fill:#B16668;" d="M464.231,196.004c-7.48-30.574-11.328-39.956-20.414-39.837
						c-2.652,3.171,0.145,13.036,1.898,17.831c0,0,8.038,19.633,9.53,26.643c1.31,6.159,2.794,13.906,2.7,19.2
						c-0.017,0.938-0.403,1.829-1.039,2.519c-1.707,1.85-1.714,3.339-2.819,5.386c-0.866,1.602-1.813,2.201-1.543,2.561
						c0.347,0.463,1.443,1.067,2.806,0.207c0.686-0.433,1.131-0.941,2.126-2.04c0,0-0.243,3.834-1.658,7.026l-1.901,1.097
						c0,0,0.582,1.976,5.174,0.658c5.186-1.488,7.044-2.13,7.591-10.925c0.158-2.534,0.397-6.531,0.097-9.734
						C465.998,208.256,465.435,200.925,464.231,196.004z"/>
				</g>
				<path id="XMLID_4476_" style="fill:#455A64;" d="M443.591,153.648c0,0,9.165,2.045,11.36,5.406
					c2.536,3.883,3.5,8.893,7.764,24.062c4.264,15.169,4.644,26.404,4.861,34.943c0,0-5.343,2.494-10.273-0.352
					c0,0-2.184-13.195-4.119-20.216c-1.936-7.021-8.146-22.231-8.146-22.231S440.134,164.208,443.591,153.648z"/>
			</g>
			<g id="XMLID_4473_">
				<path id="XMLID_4474_" style="fill:#37474F;" d="M434.34,239.498c-0.421,0.26-0.599-0.528-0.699-1.685l-0.037-2.138
					c0,0-1.633,1.464-2.034-3.482c-0.441-5.442,1.996-6.439,1.996-6.439s0.011-0.905,0.011-2.695s0.38-2.228,0.793-2.529l0.612-0.31
					v18.896C434.981,239.116,434.761,239.238,434.34,239.498z"/>
			</g>
			<g id="XMLID_4470_">
				<path id="XMLID_4471_" style="fill:#37474F;" d="M436.336,236.809c0-1.621,0.155-2.581,1.194-3.218
					c1.187-0.728,1.702-0.977,1.702-0.977l0.305-10.023c0,0-1.717,1.155-2.306,1.498c-0.588,0.343-0.925-1.697-0.895-2.3
					l-1.404,0.64l-0.164,15.475L436.336,236.809z"/>
			</g>
			<g id="XMLID_4452_">
				<path id="XMLID_4469_" style="fill:#37474F;" d="M439.721,235.839c0,0-0.549,0.33-1.227,0.738
					c-0.678,0.408-0.977-1.673-0.669-4.647l-0.289-6.621c0.308-2.974,0.358-5.7,1.036-6.108l1.227-0.738L439.721,235.839z"/>
			</g>
		</g>
	</g>
</g>
</svg>
